Istok-Regular.ufo
<glyph name="exclam" format="2">
  <advance width="600"/>
  <unicode hex="0021"/>
  <outline>
    <contour>
      <point x="198.0" y="1379.0" type="line" smooth="yes"/>
      <point x="198.0" y="1434.0"/>
      <point x="248.0" y="1434.0" type="qcurve" smooth="yes"/>
      <point x="352.0" y="1434.0" type="line" smooth="yes"/>
      <point x="402.0" y="1434.0"/>
      <point x="402.0" y="1379.0" type="qcurve"/>
      <point x="381.0" y="435.0" type="line"/>
      <point x="381.0" y="390.0"/>
      <point x="336.0" y="390.0" type="qcurve" smooth="yes"/>
      <point x="264.0" y="390.0" type="line" smooth="yes"/>
      <point x="219.0" y="390.0"/>
      <point x="219.0" y="435.0" type="qcurve" smooth="yes"/>
    </contour>
    <contour>
      <point x="244.0" y="0.0" type="line" smooth="yes"/>
      <point x="199.0" y="0.0"/>
      <point x="199.0" y="45.0" type="qcurve" smooth="yes"/>
      <point x="199.0" y="167.0" type="line" smooth="yes"/>
      <point x="199.0" y="212.0"/>
      <point x="244.0" y="212.0" type="qcurve" smooth="yes"/>
      <point x="356.0" y="212.0" type="line" smooth="yes"/>
      <point x="401.0" y="212.0"/>
      <point x="401.0" y="167.0" type="qcurve" smooth="yes"/>
      <point x="401.0" y="45.0" type="line" smooth="yes"/>
      <point x="401.0" y="0.0"/>
      <point x="356.0" y="0.0" type="qcurve" smooth="yes"/>
    </contour>
  </outline>
</glyph>
<glyph name="dollar" format="2">
  <advance width="1110"/>
  <unicode hex="0024"/>
  <outline>
    <contour>
      <point x="127.0" y="96.0" type="qcurve" smooth="yes"/>
      <point x="73.0" y="145.0"/>
      <point x="99.0" y="180.0" type="qcurve" smooth="yes"/>
      <point x="139.0" y="234.0" type="line" smooth="yes"/>
      <point x="170.0" y="276.0"/>
      <point x="226.0" y="228.0" type="qcurve" smooth="yes"/>
      <point x="300.0" y="165.0"/>
      <point x="434.0" y="126.0"/>
      <point x="506.0" y="121.0" type="qcurve"/>
      <point x="506.0" y="651.0" type="line"/>
      <point x="433.0" y="672.0"/>
      <point x="363.0" y="712.0" type="qcurve" smooth="yes"/>
      <point x="268.0" y="766.0"/>
      <point x="164.0" y="904.0"/>
      <point x="136.0" y="1022.0"/>
      <point x="136.0" y="1116.0" type="qcurve" smooth="yes"/>
      <point x="136.0" y="1180.0"/>
      <point x="228.0" y="1346.0"/>
      <point x="394.0" y="1440.0"/>
      <point x="506.0" y="1451.0" type="qcurve"/>
      <point x="506.0" y="1571.0" type="line" smooth="yes"/>
      <point x="506.0" y="1616.0"/>
      <point x="541.0" y="1616.0" type="qcurve" smooth="yes"/>
      <point x="591.0" y="1616.0" type="line" smooth="yes"/>
      <point x="626.0" y="1616.0"/>
      <point x="626.0" y="1571.0" type="qcurve" smooth="yes"/>
      <point x="626.0" y="1449.0" type="line"/>
      <point x="691.0" y="1449.0"/>
      <point x="860.0" y="1388.0"/>
      <point x="902.0" y="1347.0" type="qcurve" smooth="yes"/>
      <point x="948.0" y="1302.0"/>
      <point x="926.0" y="1269.0" type="qcurve" smooth="yes"/>
      <point x="883.0" y="1206.0" type="line" smooth="yes"/>
      <point x="850.0" y="1158.0"/>
      <point x="793.0" y="1220.0" type="qcurve" smooth="yes"/>
      <point x="759.0" y="1257.0"/>
      <point x="650.0" y="1296.0"/>
      <point x="626.0" y="1296.0" type="qcurve"/>
      <point x="626.0" y="808.0" type="line"/>
      <point x="705.0" y="783.0"/>
      <point x="802.0" y="726.0" type="qcurve" smooth="yes"/>
      <point x="870.0" y="686.0"/>
      <point x="966.0" y="576.0"/>
      <point x="1006.0" y="444.0"/>
      <point x="1006.0" y="374.0" type="qcurve" smooth="yes"/>
      <point x="1006.0" y="280.0"/>
      <point x="942.0" y="132.0"/>
      <point x="772.0" y="-10.0"/>
      <point x="626.0" y="-27.0" type="qcurve"/>
      <point x="626.0" y="-165.0" type="line" smooth="yes"/>
      <point x="626.0" y="-210.0"/>
      <point x="591.0" y="-210.0" type="qcurve" smooth="yes"/>
      <point x="541.0" y="-210.0" type="line" smooth="yes"/>
      <point x="506.0" y="-210.0"/>
      <point x="506.0" y="-165.0" type="qcurve" smooth="yes"/>
      <point x="506.0" y="-29.0" type="line"/>
      <point x="406.0" y="-29.0"/>
      <point x="193.0" y="36.0"/>
    </contour>
    <contour>
      <point x="322.0" y="1104.0" type="qcurve" smooth="yes"/>
      <point x="322.0" y="1025.0"/>
      <point x="375.0" y="923.0"/>
      <point x="444.0" y="884.0" type="qcurve" smooth="yes"/>
      <point x="474.0" y="867.0"/>
      <point x="506.0" y="853.0" type="qcurve"/>
      <point x="506.0" y="1299.0" type="line"/>
      <point x="442.0" y="1294.0"/>
      <point x="322.0" y="1200.0"/>
    </contour>
    <contour>
      <point x="626.0" y="127.0" type="line"/>
      <point x="702.0" y="144.0"/>
      <point x="810.0" y="250.0"/>
      <point x="810.0" y="373.0" type="qcurve" smooth="yes"/>
      <point x="810.0" y="440.0"/>
      <point x="749.0" y="547.0"/>
      <point x="702.0" y="575.0" type="qcurve" smooth="yes"/>
      <point x="650.0" y="605.0"/>
      <point x="626.0" y="613.0" type="qcurve"/>
    </contour>
  </outline>
</glyph>
<glyph name="plus" format="2">
  <advance width="1280"/>
  <unicode hex="002B"/>
  <outline>
    <contour>
      <point x="125.0" y="665.0" type="line" smooth="yes"/>
      <point x="80.0" y="665.0"/>
      <point x="80.0" y="700.0" type="qcurve" smooth="yes"/>
      <point x="80.0" y="750.0" type="line" smooth="yes"/>
      <point x="80.0" y="785.0"/>
      <point x="125.0" y="785.0" type="qcurve" smooth="yes"/>
      <point x="579.0" y="785.0" type="line"/>
      <point x="579.0" y="1240.0" type="line" smooth="yes"/>
      <point x="579.0" y="1285.0"/>
      <point x="614.0" y="1285.0" type="qcurve" smooth="yes"/>
      <point x="664.0" y="1285.0" type="line" smooth="yes"/>
      <point x="699.0" y="1285.0"/>
      <point x="699.0" y="1240.0" type="qcurve" smooth="yes"/>
      <point x="699.0" y="785.0" type="line"/>
      <point x="1155.0" y="785.0" type="line" smooth="yes"/>
      <point x="1200.0" y="785.0"/>
      <point x="1200.0" y="750.0" type="qcurve" smooth="yes"/>
      <point x="1200.0" y="700.0" type="line" smooth="yes"/>
      <point x="1200.0" y="665.0"/>
      <point x="1155.0" y="665.0" type="qcurve" smooth="yes"/>
      <point x="699.0" y="665.0" type="line"/>
      <point x="699.0" y="210.0" type="line" smooth="yes"/>
      <point x="699.0" y="165.0"/>
      <point x="664.0" y="165.0" type="qcurve" smooth="yes"/>
      <point x="614.0" y="165.0" type="line" smooth="yes"/>
      <point x="579.0" y="165.0"/>
      <point x="579.0" y="210.0" type="qcurve" smooth="yes"/>
      <point x="579.0" y="665.0" type="line"/>
    </contour>
  </outline>
</glyph>
<glyph name="comma" format="2">
  <advance width="600"/>
  <unicode hex="002C"/>
  <outline>
    <contour>
      <point x="242.0" y="0.0" type="line" smooth="yes"/>
      <point x="197.0" y="0.0"/>
      <point x="197.0" y="45.0" type="qcurve" smooth="yes"/>
      <point x="197.0" y="167.0" type="line" smooth="yes"/>
      <point x="197.0" y="212.0"/>
      <point x="242.0" y="212.0" type="qcurve" smooth="yes"/>
      <point x="358.0" y="212.0" type="line" smooth="yes"/>
      <point x="403.0" y="212.0"/>
      <point x="403.0" y="167.0" type="qcurve" smooth="yes"/>
      <point x="403.0" y="45.0" type="line" smooth="yes"/>
      <point x="403.0" y="-60.0"/>
      <point x="358.0" y="-217.0"/>
      <point x="292.0" y="-276.0" type="qcurve" smooth="yes"/>
      <point x="270.0" y="-295.0"/>
      <point x="255.0" y="-281.0" type="qcurve" smooth="yes"/>
      <point x="210.0" y="-239.0" type="line" smooth="yes"/>
      <point x="195.0" y="-225.0"/>
      <point x="217.0" y="-205.0" type="qcurve" smooth="yes"/>
      <point x="251.0" y="-175.0"/>
      <point x="294.0" y="-62.0"/>
      <point x="294.0" y="0.0" type="qcurve"/>
    </contour>
  </outline>
</glyph>
<glyph name="F" format="2">
  <advance width="1166"/>
  <unicode hex="0046"/>
  <outline>
    <contour>
      <point x="220.0" y="0.0" type="line" smooth="yes"/>
      <point x="170.0" y="0.0"/>
      <point x="170.0" y="55.0" type="qcurve" smooth="yes"/>
      <point x="170.0" y="1379.0" type="line" smooth="yes"/>
      <point x="170.0" y="1434.0"/>
      <point x="220.0" y="1434.0" type="qcurve" smooth="yes"/>
      <point x="1035.0" y="1434.0" type="line" smooth="yes"/>
      <point x="1090.0" y="1434.0"/>
      <point x="1090.0" y="1389.0" type="qcurve" smooth="yes"/>
      <point x="1090.0" y="1315.0" type="line" smooth="yes"/>
      <point x="1090.0" y="1270.0"/>
      <point x="1035.0" y="1270.0" type="qcurve" smooth="yes"/>
      <point x="362.0" y="1270.0" type="line"/>
      <point x="362.0" y="796.0" type="line"/>
      <point x="949.0" y="796.0" type="line" smooth="yes"/>
      <point x="1004.0" y="796.0"/>
      <point x="1004.0" y="751.0" type="qcurve" smooth="yes"/>
      <point x="1004.0" y="677.0" type="line" smooth="yes"/>
      <point x="1004.0" y="632.0"/>
      <point x="949.0" y="632.0" type="qcurve" smooth="yes"/>
      <point x="362.0" y="632.0" type="line"/>
      <point x="362.0" y="55.0" type="line" smooth="yes"/>
      <point x="362.0" y="0.0"/>
      <point x="312.0" y="0.0" type="qcurve" smooth="yes"/>
    </contour>
  </outline>
</glyph>
<glyph name="G" format="2">
  <advance width="1470"/>
  <unicode hex="0047"/>
  <outline>
    <contour>
      <point x="92.0" y="717.0" type="qcurve" smooth="yes"/>
      <point x="92.0" y="1067.0"/>
      <point x="454.0" y="1464.0"/>
      <point x="776.0" y="1464.0" type="qcurve" smooth="yes"/>
      <point x="969.0" y="1464.0"/>
      <point x="1213.0" y="1331.0"/>
      <point x="1270.0" y="1241.0" type="qcurve" smooth="yes"/>
      <point x="1305.0" y="1185.0"/>
      <point x="1269.0" y="1160.0" type="qcurve" smooth="yes"/>
      <point x="1194.0" y="1108.0" type="line" smooth="yes"/>
      <point x="1157.0" y="1082.0"/>
      <point x="1120.0" y="1139.0" type="qcurve" smooth="yes"/>
      <point x="1090.0" y="1184.0"/>
      <point x="924.0" y="1308.0"/>
      <point x="786.0" y="1308.0" type="qcurve" smooth="yes"/>
      <point x="541.0" y="1308.0"/>
      <point x="297.0" y="997.0"/>
      <point x="297.0" y="717.0" type="qcurve" smooth="yes"/>
      <point x="297.0" y="437.0"/>
      <point x="535.0" y="126.0"/>
      <point x="796.0" y="126.0" type="qcurve" smooth="yes"/>
      <point x="926.0" y="126.0"/>
      <point x="1119.0" y="189.0"/>
      <point x="1158.0" y="245.0" type="qcurve"/>
      <point x="1158.0" y="510.0" type="line"/>
      <point x="861.0" y="510.0" type="line" smooth="yes"/>
      <point x="806.0" y="510.0"/>
      <point x="806.0" y="555.0" type="qcurve" smooth="yes"/>
      <point x="806.0" y="629.0" type="line" smooth="yes"/>
      <point x="806.0" y="674.0"/>
      <point x="861.0" y="674.0" type="qcurve" smooth="yes"/>
      <point x="1295.0" y="674.0" type="line" smooth="yes"/>
      <point x="1350.0" y="674.0"/>
      <point x="1350.0" y="629.0" type="qcurve" smooth="yes"/>
      <point x="1350.0" y="157.0" type="line"/>
      <point x="1228.0" y="68.0"/>
      <point x="984.0" y="-30.0"/>
      <point x="786.0" y="-30.0" type="qcurve" smooth="yes"/>
      <point x="456.0" y="-30.0"/>
      <point x="92.0" y="367.0"/>
    </contour>
  </outline>
</glyph>
<glyph name="I" format="2">
  <advance width="532"/>
  <unicode hex="0049"/>
  <outline>
    <contour>
      <point x="220.0" y="0.0" type="line" smooth="yes"/>
      <point x="170.0" y="0.0"/>
      <point x="170.0" y="55.0" type="qcurve" smooth="yes"/>
      <point x="170.0" y="1379.0" type="line" smooth="yes"/>
      <point x="170.0" y="1434.0"/>
      <point x="220.0" y="1434.0" type="qcurve" smooth="yes"/>
      <point x="312.0" y="1434.0" type="line" smooth="yes"/>
      <point x="362.0" y="1434.0"/>
      <point x="362.0" y="1379.0" type="qcurve" smooth="yes"/>
      <point x="362.0" y="55.0" type="line" smooth="yes"/>
      <point x="362.0" y="0.0"/>
      <point x="312.0" y="0.0" type="qcurve" smooth="yes"/>
    </contour>
  </outline>
</glyph>
<glyph name="S" format="2">
  <advance width="1224"/>
  <unicode hex="0053"/>
  <outline>
    <contour>
      <point x="141.0" y="108.0" type="qcurve" smooth="yes"/>
      <point x="88.0" y="156.0"/>
      <point x="113.0" y="192.0" type="qcurve" smooth="yes"/>
      <point x="165.0" y="267.0" type="line" smooth="yes"/>
      <point x="192.0" y="306.0"/>
      <point x="252.0" y="261.0" type="qcurve" smooth="yes"/>
      <point x="331.0" y="202.0"/>
      <point x="502.0" y="126.0"/>
      <point x="624.0" y="126.0" type="qcurve" smooth="yes"/>
      <point x="714.0" y="126.0"/>
      <point x="838.0" y="180.0"/>
      <point x="913.0" y="281.0"/>
      <point x="913.0" y="353.0" type="qcurve" smooth="yes"/>
      <point x="913.0" y="405.0"/>
      <point x="882.0" y="494.0"/>
      <point x="814.0" y="554.0"/>
      <point x="777.0" y="571.0" type="qcurve" smooth="yes"/>
      <point x="716.0" y="599.0"/>
      <point x="473.0" y="673.0"/>
      <point x="382.0" y="716.0" type="qcurve" smooth="yes"/>
      <point x="292.0" y="759.0"/>
      <point x="185.0" y="881.0"/>
      <point x="150.0" y="1010.0"/>
      <point x="150.0" y="1093.0" type="qcurve" smooth="yes"/>
      <point x="150.0" y="1220.0"/>
      <point x="298.0" y="1404.0"/>
      <point x="513.0" y="1464.0"/>
      <point x="624.0" y="1464.0" type="qcurve" smooth="yes"/>
      <point x="751.0" y="1464.0"/>
      <point x="939.0" y="1398.0"/>
      <point x="1013.0" y="1345.0" type="qcurve" smooth="yes"/>
      <point x="1065.0" y="1308.0"/>
      <point x="1037.0" y="1267.0" type="qcurve" smooth="yes"/>
      <point x="986.0" y="1194.0" type="line" smooth="yes"/>
      <point x="963.0" y="1161.0"/>
      <point x="896.0" y="1208.0" type="qcurve" smooth="yes"/>
      <point x="845.0" y="1244.0"/>
      <point x="698.0" y="1307.0"/>
      <point x="626.0" y="1307.0" type="qcurve" smooth="yes"/>
      <point x="534.0" y="1307.0"/>
      <point x="412.0" y="1264.0"/>
      <point x="342.0" y="1162.0"/>
      <point x="342.0" y="1095.0" type="qcurve" smooth="yes"/>
      <point x="342.0" y="1053.0"/>
      <point x="358.0" y="982.0"/>
      <point x="424.0" y="908.0"/>
      <point x="471.0" y="888.0" type="qcurve" smooth="yes"/>
      <point x="534.0" y="861.0"/>
      <point x="799.0" y="788.0"/>
      <point x="898.0" y="735.0" type="qcurve" smooth="yes"/>
      <point x="990.0" y="686.0"/>
      <point x="1071.0" y="579.0"/>
      <point x="1116.0" y="454.0"/>
      <point x="1116.0" y="376.0" type="qcurve" smooth="yes"/>
      <point x="1116.0" y="234.0"/>
      <point x="970.0" y="44.0"/>
      <point x="770.0" y="-30.0"/>
      <point x="619.0" y="-30.0" type="qcurve" smooth="yes"/>
      <point x="438.0" y="-30.0"/>
      <point x="200.0" y="54.0"/>
    </contour>
  </outline>
</glyph>
<glyph name="W" format="2">
  <advance width="1888"/>
  <unicode hex="0057"/>
  <outline>
    <contour>
      <point x="48.0" y="1374.0" type="line" smooth="yes"/>
      <point x="32.0" y="1434.0"/>
      <point x="74.0" y="1434.0" type="qcurve" smooth="yes"/>
      <point x="196.0" y="1434.0" type="line" smooth="yes"/>
      <point x="228.0" y="1434.0"/>
      <point x="239.0" y="1388.0" type="qcurve" smooth="yes"/>
      <point x="462.0" y="427.0" type="line" smooth="yes"/>
      <point x="476.0" y="369.0"/>
      <point x="511.0" y="233.0"/>
      <point x="524.0" y="173.0" type="qcurve"/>
      <point x="529.0" y="173.0" type="line"/>
      <point x="539.0" y="232.0"/>
      <point x="566.0" y="348.0"/>
      <point x="583.0" y="426.0" type="qcurve" smooth="yes"/>
      <point x="811.0" y="1380.0" type="line" smooth="yes"/>
      <point x="824.0" y="1434.0"/>
      <point x="875.0" y="1434.0" type="qcurve" smooth="yes"/>
      <point x="1013.0" y="1434.0" type="line" smooth="yes"/>
      <point x="1064.0" y="1434.0"/>
      <point x="1077.0" y="1380.0" type="qcurve" smooth="yes"/>
      <point x="1305.0" y="426.0" type="line" smooth="yes"/>
      <point x="1322.0" y="348.0"/>
      <point x="1349.0" y="232.0"/>
      <point x="1359.0" y="173.0" type="qcurve"/>
      <point x="1364.0" y="173.0" type="line"/>
      <point x="1377.0" y="233.0"/>
      <point x="1412.0" y="369.0"/>
      <point x="1426.0" y="427.0" type="qcurve" smooth="yes"/>
      <point x="1649.0" y="1388.0" type="line" smooth="yes"/>
      <point x="1660.0" y="1434.0"/>
      <point x="1692.0" y="1434.0" type="qcurve" smooth="yes"/>
      <point x="1814.0" y="1434.0" type="line" smooth="yes"/>
      <point x="1856.0" y="1434.0"/>
      <point x="1840.0" y="1374.0" type="qcurve" smooth="yes"/>
      <point x="1496.0" y="77.0" type="line" smooth="yes"/>
      <point x="1476.0" y="0.0"/>
      <point x="1422.0" y="0.0" type="qcurve" smooth="yes"/>
      <point x="1297.0" y="0.0" type="line" smooth="yes"/>
      <point x="1247.0" y="-0.0"/>
      <point x="1226.0" y="84.0" type="qcurve" smooth="yes"/>
      <point x="985.0" y="1043.0" type="line" smooth="yes"/>
      <point x="967.0" y="1116.0"/>
      <point x="951.0" y="1209.0"/>
      <point x="945.0" y="1259.0" type="qcurve"/>
      <point x="943.0" y="1259.0" type="line"/>
      <point x="937.0" y="1209.0"/>
      <point x="921.0" y="1116.0"/>
      <point x="903.0" y="1043.0" type="qcurve" smooth="yes"/>
      <point x="662.0" y="84.0" type="line" smooth="yes"/>
      <point x="641.0" y="0.0"/>
      <point x="591.0" y="0.0" type="qcurve" smooth="yes"/>
      <point x="466.0" y="0.0" type="line" smooth="yes"/>
      <point x="412.0" y="-0.0"/>
      <point x="392.0" y="77.0" type="qcurve" smooth="yes"/>
    </contour>
  </outline>
</glyph>
<glyph name="X" format="2">
  <advance width="1310"/>
  <unicode hex="0058"/>
  <outline>
    <contour>
      <point x="77.0" y="0.0" type="line" smooth="yes"/>
      <point x="12.0" y="0.0"/>
      <point x="59.0" y="66.0" type="qcurve" smooth="yes"/>
      <point x="539.0" y="740.0" type="line"/>
      <point x="93.0" y="1368.0" type="line" smooth="yes"/>
      <point x="46.0" y="1434.0"/>
      <point x="111.0" y="1434.0" type="qcurve" smooth="yes"/>
      <point x="234.0" y="1434.0" type="line" smooth="yes"/>
      <point x="278.0" y="1434.0"/>
      <point x="304.0" y="1395.0" type="qcurve" smooth="yes"/>
      <point x="655.0" y="873.0" type="line"/>
      <point x="1006.0" y="1395.0" type="line" smooth="yes"/>
      <point x="1032.0" y="1434.0"/>
      <point x="1076.0" y="1434.0" type="qcurve" smooth="yes"/>
      <point x="1199.0" y="1434.0" type="line" smooth="yes"/>
      <point x="1264.0" y="1434.0"/>
      <point x="1217.0" y="1368.0" type="qcurve" smooth="yes"/>
      <point x="771.0" y="740.0" type="line"/>
      <point x="1251.0" y="66.0" type="line" smooth="yes"/>
      <point x="1298.0" y="0.0"/>
      <point x="1233.0" y="0.0" type="qcurve" smooth="yes"/>
      <point x="1109.0" y="0.0" type="line" smooth="yes"/>
      <point x="1065.0" y="-0.0"/>
      <point x="1039.0" y="39.0" type="qcurve" smooth="yes"/>
      <point x="655.0" y="607.0" type="line"/>
      <point x="271.0" y="39.0" type="line" smooth="yes"/>
      <point x="245.0" y="0.0"/>
      <point x="201.0" y="0.0" type="qcurve" smooth="yes"/>
    </contour>
  </outline>
</glyph>
<glyph name="Y" format="2">
  <advance width="1302"/>
  <unicode hex="0059"/>
  <outline>
    <contour>
      <point x="54.0" y="1368.0" type="line" smooth="yes"/>
      <point x="11.0" y="1434.0"/>
      <point x="81.0" y="1434.0" type="qcurve" smooth="yes"/>
      <point x="193.0" y="1434.0" type="line" smooth="yes"/>
      <point x="237.0" y="1434.0"/>
      <point x="265.0" y="1385.0" type="qcurve" smooth="yes"/>
      <point x="519.0" y="948.0" type="line" smooth="yes"/>
      <point x="561.0" y="876.0"/>
      <point x="621.0" y="769.0"/>
      <point x="649.0" y="709.0" type="qcurve"/>
      <point x="653.0" y="709.0" type="line"/>
      <point x="681.0" y="769.0"/>
      <point x="741.0" y="876.0"/>
      <point x="783.0" y="948.0" type="qcurve" smooth="yes"/>
      <point x="1037.0" y="1385.0" type="line" smooth="yes"/>
      <point x="1065.0" y="1434.0"/>
      <point x="1109.0" y="1434.0" type="qcurve" smooth="yes"/>
      <point x="1221.0" y="1434.0" type="line" smooth="yes"/>
      <point x="1291.0" y="1434.0"/>
      <point x="1248.0" y="1368.0" type="qcurve" smooth="yes"/>
      <point x="747.0" y="590.0" type="line"/>
      <point x="747.0" y="55.0" type="line" smooth="yes"/>
      <point x="747.0" y="0.0"/>
      <point x="697.0" y="0.0" type="qcurve" smooth="yes"/>
      <point x="605.0" y="0.0" type="line" smooth="yes"/>
      <point x="555.0" y="0.0"/>
      <point x="555.0" y="55.0" type="qcurve" smooth="yes"/>
      <point x="555.0" y="590.0" type="line"/>
    </contour>
  </outline>
</glyph>
<glyph name="Z" format="2">
  <advance width="1216"/>
  <unicode hex="005A"/>
  <outline>
    <contour>
      <point x="120.0" y="0.0" type="line" smooth="yes"/>
      <point x="65.0" y="0.0"/>
      <point x="65.0" y="45.0" type="qcurve" smooth="yes"/>
      <point x="65.0" y="93.0" type="line" smooth="yes"/>
      <point x="65.0" y="141.0"/>
      <point x="95.0" y="182.0" type="qcurve" smooth="yes"/>
      <point x="881.0" y="1268.0" type="line"/>
      <point x="881.0" y="1272.0" type="line"/>
      <point x="841.0" y="1270.0"/>
      <point x="801.0" y="1270.0" type="qcurve" smooth="yes"/>
      <point x="152.0" y="1270.0" type="line" smooth="yes"/>
      <point x="97.0" y="1270.0"/>
      <point x="97.0" y="1315.0" type="qcurve" smooth="yes"/>
      <point x="97.0" y="1389.0" type="line" smooth="yes"/>
      <point x="97.0" y="1434.0"/>
      <point x="152.0" y="1434.0" type="qcurve" smooth="yes"/>
      <point x="1074.0" y="1434.0" type="line" smooth="yes"/>
      <point x="1129.0" y="1434.0"/>
      <point x="1129.0" y="1389.0" type="qcurve" smooth="yes"/>
      <point x="1129.0" y="1358.0" type="line" smooth="yes"/>
      <point x="1129.0" y="1325.0"/>
      <point x="1109.0" y="1297.0" type="qcurve" smooth="yes"/>
      <point x="313.0" y="166.0" type="line"/>
      <point x="313.0" y="162.0" type="line"/>
      <point x="340.0" y="164.0"/>
      <point x="393.0" y="164.0" type="qcurve" smooth="yes"/>
      <point x="1096.0" y="164.0" type="line" smooth="yes"/>
      <point x="1151.0" y="164.0"/>
      <point x="1151.0" y="119.0" type="qcurve" smooth="yes"/>
      <point x="1151.0" y="45.0" type="line" smooth="yes"/>
      <point x="1151.0" y="0.0"/>
      <point x="1096.0" y="0.0" type="qcurve" smooth="yes"/>
    </contour>
  </outline>
</glyph>
<glyph name="bracketleft" format="2">
  <advance width="658"/>
  <unicode hex="005B"/>
  <outline>
    <contour>
      <point x="215.0" y="-408.0" type="line" smooth="yes"/>
      <point x="170.0" y="-408.0"/>
      <point x="170.0" y="-363.0" type="qcurve" smooth="yes"/>
      <point x="170.0" y="1451.0" type="line" smooth="yes"/>
      <point x="170.0" y="1496.0"/>
      <point x="215.0" y="1496.0" type="qcurve" smooth="yes"/>
      <point x="543.0" y="1496.0" type="line" smooth="yes"/>
      <point x="588.0" y="1496.0"/>
      <point x="588.0" y="1461.0" type="qcurve" smooth="yes"/>
      <point x="588.0" y="1401.0" type="line" smooth="yes"/>
      <point x="588.0" y="1366.0"/>
      <point x="543.0" y="1366.0" type="qcurve" smooth="yes"/>
      <point x="346.0" y="1366.0" type="line"/>
      <point x="346.0" y="-278.0" type="line"/>
      <point x="543.0" y="-278.0" type="line" smooth="yes"/>
      <point x="588.0" y="-278.0"/>
      <point x="588.0" y="-313.0" type="qcurve" smooth="yes"/>
      <point x="588.0" y="-373.0" type="line" smooth="yes"/>
      <point x="588.0" y="-408.0"/>
      <point x="543.0" y="-408.0" type="qcurve" smooth="yes"/>
    </contour>
  </outline>
</glyph>
<glyph name="bracketright" format="2">
  <advance width="658"/>
  <unicode hex="005D"/>
  <outline>
    <contour>
      <point x="115.0" y="-408.0" type="line" smooth="yes"/>
      <point x="70.0" y="-408.0"/>
      <point x="70.0" y="-373.0" type="qcurve" smooth="yes"/>
      <point x="70.0" y="-313.0" type="line" smooth="yes"/>
      <point x="70.0" y="-278.0"/>
      <point x="115.0" y="-278.0" type="qcurve" smooth="yes"/>
      <point x="312.0" y="-278.0" type="line"/>
      <point x="312.0" y="1366.0" type="line"/>
      <point x="115.0" y="1366.0" type="line" smooth="yes"/>
      <point x="70.0" y="1366.0"/>
      <point x="70.0" y="1401.0" type="qcurve" smooth="yes"/>
      <point x="70.0" y="1461.0" type="line" smooth="yes"/>
      <point x="70.0" y="1496.0"/>
      <point x="115.0" y="1496.0" type="qcurve" smooth="yes"/>
      <point x="443.0" y="1496.0" type="line" smooth="yes"/>
      <point x="488.0" y="1496.0"/>
      <point x="488.0" y="1451.0" type="qcurve" smooth="yes"/>
      <point x="488.0" y="-363.0" type="line" smooth="yes"/>
      <point x="488.0" y="-408.0"/>
      <point x="443.0" y="-408.0" type="qcurve" smooth="yes"/>
    </contour>
  </outline>
</glyph>
<glyph name="c" format="2">
  <advance width="1026"/>
  <unicode hex="0063"/>
  <outline>
    <contour>
      <point x="85.0" y="525.0" type="qcurve" smooth="yes"/>
      <point x="85.0" y="760.0"/>
      <point x="318.0" y="1067.0"/>
      <point x="558.0" y="1067.0" type="qcurve" smooth="yes"/>
      <point x="720.0" y="1067.0"/>
      <point x="891.0" y="952.0"/>
      <point x="929.0" y="892.0" type="qcurve" smooth="yes"/>
      <point x="950.4650268554688" y="858.8270263671875"/>
      <point x="920.0" y="839.0" type="qcurve" smooth="yes"/>
      <point x="857.0" y="798.0" type="line" smooth="yes"/>
      <point x="827.0" y="777.0"/>
      <point x="797.0" y="825.0" type="qcurve" smooth="yes"/>
      <point x="768.0" y="871.0"/>
      <point x="663.0" y="937.0"/>
      <point x="558.0" y="937.0" type="qcurve" smooth="yes"/>
      <point x="421.0" y="937.0"/>
      <point x="271.0" y="735.0"/>
      <point x="271.0" y="525.0" type="qcurve" smooth="yes"/>
      <point x="271.0" y="315.0"/>
      <point x="421.0" y="113.0"/>
      <point x="558.0" y="113.0" type="qcurve" smooth="yes"/>
      <point x="669.0" y="113.0"/>
      <point x="787.0" y="198.0"/>
      <point x="814.0" y="248.0" type="qcurve" smooth="yes"/>
      <point x="839.8759765625" y="294.7760009765625"/>
      <point x="873.0" y="275.0" type="qcurve" smooth="yes"/>
      <point x="940.0" y="235.0" type="line" smooth="yes"/>
      <point x="970.0390014648438" y="217.0659942626953"/>
      <point x="949.0" y="181.0" type="qcurve" smooth="yes"/>
      <point x="924.0" y="138.0"/>
      <point x="747.0" y="-17.0"/>
      <point x="558.0" y="-17.0" type="qcurve" smooth="yes"/>
      <point x="318.0" y="-17.0"/>
      <point x="85.0" y="290.0"/>
    </contour>
  </outline>
</glyph>
<glyph name="g" format="2">
  <advance width="1119"/>
  <unicode hex="0067"/>
  <outline>
    <contour>
      <point x="85.0" y="525.0" type="qcurve" smooth="yes"/>
      <point x="85.0" y="740.0"/>
      <point x="293.0" y="1067.0"/>
      <point x="493.0" y="1067.0" type="qcurve" smooth="yes"/>
      <point x="608.0" y="1067.0"/>
      <point x="746.0" y="991.0"/>
      <point x="801.0" y="925.0" type="qcurve"/>
      <point x="803.0" y="925.0" type="line"/>
      <point x="809.0" y="1005.0" type="line" smooth="yes"/>
      <point x="812.375" y="1050.0"/>
      <point x="848.0" y="1050.0" type="qcurve" smooth="yes"/>
      <point x="932.0" y="1050.0" type="line" smooth="yes"/>
      <point x="977.0" y="1050.0"/>
      <point x="977.0" y="1005.0" type="qcurve" smooth="yes"/>
      <point x="977.0" y="-8.0" type="line" smooth="yes"/>
      <point x="977.0" y="-200.0"/>
      <point x="800.0" y="-417.0"/>
      <point x="539.0" y="-417.0" type="qcurve" smooth="yes"/>
      <point x="364.0" y="-417.0"/>
      <point x="190.0" y="-338.0"/>
      <point x="153.0" y="-294.0" type="qcurve" smooth="yes"/>
      <point x="126.25599670410156" y="-261.31298828125"/>
      <point x="150.0" y="-238.0" type="qcurve" smooth="yes"/>
      <point x="205.0" y="-184.0" type="line" smooth="yes"/>
      <point x="227.68699645996094" y="-161.72500610351562"/>
      <point x="269.0" y="-198.0" type="qcurve" smooth="yes"/>
      <point x="322.0" y="-246.0"/>
      <point x="420.0" y="-287.0"/>
      <point x="540.0" y="-287.0" type="qcurve" smooth="yes"/>
      <point x="676.0" y="-287.0"/>
      <point x="801.0" y="-171.0"/>
      <point x="801.0" y="11.0" type="qcurve" smooth="yes"/>
      <point x="801.0" y="71.0" type="line" smooth="yes"/>
      <point x="801.0" y="102.0"/>
      <point x="803.0" y="132.0" type="qcurve"/>
      <point x="801.0" y="132.0" type="line"/>
      <point x="749.0" y="63.0"/>
      <point x="608.0" y="-17.0"/>
      <point x="493.0" y="-17.0" type="qcurve" smooth="yes"/>
      <point x="293.0" y="-17.0"/>
      <point x="85.0" y="310.0"/>
    </contour>
    <contour>
      <point x="271.0" y="525.0" type="qcurve" smooth="yes"/>
      <point x="271.0" y="341.0"/>
      <point x="398.0" y="113.0"/>
      <point x="550.0" y="113.0" type="qcurve" smooth="yes"/>
      <point x="658.0" y="113.0"/>
      <point x="801.0" y="260.0"/>
      <point x="801.0" y="410.0" type="qcurve" smooth="yes"/>
      <point x="801.0" y="640.0" type="line" smooth="yes"/>
      <point x="801.0" y="790.0"/>
      <point x="658.0" y="937.0"/>
      <point x="550.0" y="937.0" type="qcurve" smooth="yes"/>
      <point x="398.0" y="937.0"/>
      <point x="271.0" y="709.0"/>
    </contour>
  </outline>
</glyph>
<glyph name="m" format="2">
  <advance width="1678"/>
  <unicode hex="006D"/>
  <outline>
    <contour>
      <point x="187.0" y="0.0" type="line" smooth="yes"/>
      <point x="142.0" y="0.0"/>
      <point x="142.0" y="45.0" type="qcurve" smooth="yes"/>
      <point x="142.0" y="1005.0" type="line" smooth="yes"/>
      <point x="142.0" y="1050.0"/>
      <point x="187.0" y="1050.0" type="qcurve" smooth="yes"/>
      <point x="271.0" y="1050.0" type="line" smooth="yes"/>
      <point x="316.0" y="1050.0"/>
      <point x="316.0" y="1005.0" type="qcurve" smooth="yes"/>
      <point x="316.0" y="925.0" type="line"/>
      <point x="320.0" y="925.0" type="line"/>
      <point x="385.0" y="997.0"/>
      <point x="537.0" y="1067.0"/>
      <point x="607.0" y="1067.0" type="qcurve" smooth="yes"/>
      <point x="736.0" y="1067.0"/>
      <point x="875.0" y="938.0"/>
      <point x="895.0" y="873.0" type="qcurve"/>
      <point x="899.0" y="873.0" type="line"/>
      <point x="954.0" y="955.0"/>
      <point x="1122.0" y="1067.0"/>
      <point x="1217.0" y="1067.0" type="qcurve" smooth="yes"/>
      <point x="1376.0" y="1067.0"/>
      <point x="1538.0" y="862.0"/>
      <point x="1538.0" y="684.0" type="qcurve" smooth="yes"/>
      <point x="1538.0" y="45.0" type="line" smooth="yes"/>
      <point x="1538.0" y="0.0"/>
      <point x="1493.0" y="0.0" type="qcurve" smooth="yes"/>
      <point x="1407.0" y="0.0" type="line" smooth="yes"/>
      <point x="1362.0" y="0.0"/>
      <point x="1362.0" y="45.0" type="qcurve" smooth="yes"/>
      <point x="1362.0" y="626.0" type="line" smooth="yes"/>
      <point x="1362.0" y="822.0"/>
      <point x="1264.0" y="937.0"/>
      <point x="1162.0" y="937.0" type="qcurve" smooth="yes"/>
      <point x="1062.0" y="937.0"/>
      <point x="928.0" y="766.0"/>
      <point x="928.0" y="594.0" type="qcurve" smooth="yes"/>
      <point x="928.0" y="45.0" type="line" smooth="yes"/>
      <point x="928.0" y="0.0"/>
      <point x="883.0" y="0.0" type="qcurve" smooth="yes"/>
      <point x="797.0" y="0.0" type="line" smooth="yes"/>
      <point x="752.0" y="0.0"/>
      <point x="752.0" y="45.0" type="qcurve" smooth="yes"/>
      <point x="752.0" y="626.0" type="line" smooth="yes"/>
      <point x="752.0" y="822.0"/>
      <point x="654.0" y="937.0"/>
      <point x="552.0" y="937.0" type="qcurve" smooth="yes"/>
      <point x="452.0" y="937.0"/>
      <point x="318.0" y="782.0"/>
      <point x="318.0" y="594.0" type="qcurve" smooth="yes"/>
      <point x="318.0" y="45.0" type="line" smooth="yes"/>
      <point x="318.0" y="0.0"/>
      <point x="273.0" y="0.0" type="qcurve" smooth="yes"/>
    </contour>
  </outline>
</glyph>
<glyph name="s" format="2">
  <advance width="944"/>
  <unicode hex="0073"/>
  <outline>
    <contour>
      <point x="83.0" y="98.0" type="qcurve" smooth="yes"/>
      <point x="52.0" y="127.0"/>
      <point x="70.0" y="152.0" type="qcurve" smooth="yes"/>
      <point x="115.0" y="215.0" type="line" smooth="yes"/>
      <point x="137.0" y="245.0"/>
      <point x="180.0" y="212.0" type="qcurve" smooth="yes"/>
      <point x="239.0" y="167.0"/>
      <point x="384.0" y="113.0"/>
      <point x="477.0" y="113.0" type="qcurve" smooth="yes"/>
      <point x="532.0" y="113.0"/>
      <point x="618.0" y="140.0"/>
      <point x="683.0" y="214.0"/>
      <point x="683.0" y="276.0" type="qcurve" smooth="yes"/>
      <point x="683.0" y="312.0"/>
      <point x="652.0" y="376.0"/>
      <point x="587.0" y="415.0"/>
      <point x="556.0" y="426.0" type="qcurve" smooth="yes"/>
      <point x="505.0" y="445.0"/>
      <point x="404.0" y="470.0"/>
      <point x="322.0" y="496.0" type="qcurve" smooth="yes"/>
      <point x="267.0" y="513.0"/>
      <point x="169.0" y="576.0"/>
      <point x="96.0" y="684.0"/>
      <point x="96.0" y="779.0" type="qcurve" smooth="yes"/>
      <point x="96.0" y="876.0"/>
      <point x="214.0" y="1016.0"/>
      <point x="392.0" y="1067.0"/>
      <point x="476.0" y="1067.0" type="qcurve" smooth="yes"/>
      <point x="600.0" y="1067.0"/>
      <point x="751.0" y="1010.0"/>
      <point x="806.0" y="971.0" type="qcurve" smooth="yes"/>
      <point x="838.0" y="948.0"/>
      <point x="815.0" y="918.0" type="qcurve" smooth="yes"/>
      <point x="770.0" y="858.0" type="line" smooth="yes"/>
      <point x="749.0" y="829.0"/>
      <point x="705.0" y="860.0" type="qcurve" smooth="yes"/>
      <point x="668.0" y="886.0"/>
      <point x="532.0" y="932.0"/>
      <point x="481.0" y="932.0" type="qcurve" smooth="yes"/>
      <point x="418.0" y="932.0"/>
      <point x="328.0" y="904.0"/>
      <point x="272.0" y="836.0"/>
      <point x="272.0" y="790.0" type="qcurve" smooth="yes"/>
      <point x="272.0" y="755.0"/>
      <point x="294.0" y="700.0"/>
      <point x="354.0" y="654.0"/>
      <point x="408.0" y="640.0" type="qcurve" smooth="yes"/>
      <point x="492.0" y="618.0"/>
      <point x="631.0" y="582.0"/>
      <point x="687.0" y="556.0" type="qcurve" smooth="yes"/>
      <point x="760.0" y="522.0"/>
      <point x="839.0" y="440.0"/>
      <point x="869.0" y="345.0"/>
      <point x="869.0" y="287.0" type="qcurve" smooth="yes"/>
      <point x="869.0" y="180.0"/>
      <point x="742.0" y="32.0"/>
      <point x="586.0" y="-17.0"/>
      <point x="476.0" y="-17.0" type="qcurve" smooth="yes"/>
      <point x="327.0" y="-17.0"/>
      <point x="114.0" y="68.0"/>
    </contour>
  </outline>
</glyph>
<glyph name="t" format="2">
  <advance width="757"/>
  <unicode hex="0074"/>
  <outline>
    <contour>
      <point x="91.0" y="918.0" type="line" smooth="yes"/>
      <point x="46.0" y="918.0"/>
      <point x="46.0" y="953.0" type="qcurve" smooth="yes"/>
      <point x="46.0" y="1015.0" type="line" smooth="yes"/>
      <point x="46.0" y="1050.0"/>
      <point x="91.0" y="1050.0" type="qcurve" smooth="yes"/>
      <point x="209.0" y="1050.0" type="line"/>
      <point x="209.0" y="1140.0" type="line" smooth="yes"/>
      <point x="209.0" y="1159.8599853515625"/>
      <point x="219.0" y="1178.0" type="qcurve" smooth="yes"/>
      <point x="289.0" y="1305.0" type="line" smooth="yes"/>
      <point x="308.2909851074219" y="1340.0"/>
      <point x="320.0" y="1340.0" type="qcurve" smooth="yes"/>
      <point x="355.0" y="1340.0" type="line" smooth="yes"/>
      <point x="385.0" y="1340.0"/>
      <point x="385.0" y="1305.0" type="qcurve" smooth="yes"/>
      <point x="385.0" y="1050.0" type="line"/>
      <point x="598.0" y="1050.0" type="line" smooth="yes"/>
      <point x="643.0" y="1050.0"/>
      <point x="643.0" y="1015.0" type="qcurve" smooth="yes"/>
      <point x="643.0" y="953.0" type="line" smooth="yes"/>
      <point x="643.0" y="918.0"/>
      <point x="598.0" y="918.0" type="qcurve" smooth="yes"/>
      <point x="385.0" y="918.0" type="line"/>
      <point x="385.0" y="281.0" type="line" smooth="yes"/>
      <point x="385.0" y="176.0"/>
      <point x="448.0" y="113.0"/>
      <point x="492.0" y="113.0" type="qcurve" smooth="yes"/>
      <point x="526.0" y="113.0"/>
      <point x="621.0" y="153.0"/>
      <point x="639.0" y="167.0" type="qcurve" smooth="yes"/>
      <point x="657.1069946289062" y="181.08299255371094"/>
      <point x="667.0" y="158.0" type="qcurve" smooth="yes"/>
      <point x="700.0" y="81.0" type="line" smooth="yes"/>
      <point x="708.4550170898438" y="61.27259826660156"/>
      <point x="688.0" y="49.0" type="qcurve" smooth="yes"/>
      <point x="649.0" y="26.0"/>
      <point x="499.0" y="-17.0"/>
      <point x="424.0" y="-17.0" type="qcurve" smooth="yes"/>
      <point x="320.0" y="-17.0"/>
      <point x="209.0" y="133.0"/>
      <point x="209.0" y="270.0" type="qcurve" smooth="yes"/>
      <point x="209.0" y="918.0" type="line"/>
    </contour>
  </outline>
</glyph>
<glyph name="y" format="2">
  <advance width="990"/>
  <unicode hex="0079"/>
  <outline>
    <contour>
      <point x="51.0" y="1001.0" type="line" smooth="yes"/>
      <point x="33.34629821777344" y="1050.0"/>
      <point x="78.0" y="1050.0" type="qcurve" smooth="yes"/>
      <point x="187.0" y="1050.0" type="line" smooth="yes"/>
      <point x="219.59100341796875" y="1050.0"/>
      <point x="232.0" y="1011.0" type="qcurve" smooth="yes"/>
      <point x="442.0" y="351.0" type="line" smooth="yes"/>
      <point x="451.0" y="324.0"/>
      <point x="488.0" y="209.0"/>
      <point x="496.0" y="164.0" type="qcurve"/>
      <point x="498.0" y="164.0" type="line"/>
      <point x="506.0" y="209.0"/>
      <point x="529.0" y="282.0"/>
      <point x="552.0" y="351.0" type="qcurve" smooth="yes"/>
      <point x="764.0" y="1011.0" type="line" smooth="yes"/>
      <point x="776.5269775390625" y="1050.0"/>
      <point x="809.0" y="1050.0" type="qcurve" smooth="yes"/>
      <point x="918.0" y="1050.0" type="line" smooth="yes"/>
      <point x="962.5670166015625" y="1050.0"/>
      <point x="945.0" y="1001.0" type="qcurve" smooth="yes"/>
      <point x="608.0" y="61.0" type="line" smooth="yes"/>
      <point x="512.989013671875" y="-204.01499938964844"/>
      <point x="363.0" y="-417.0"/>
      <point x="214.0" y="-417.0" type="qcurve" smooth="yes"/>
      <point x="136.0" y="-417.0"/>
      <point x="90.0" y="-394.0" type="qcurve" smooth="yes"/>
      <point x="69.22489929199219" y="-384.10699462890625"/>
      <point x="76.0" y="-363.0" type="qcurve" smooth="yes"/>
      <point x="102.0" y="-282.0" type="line" smooth="yes"/>
      <point x="108.77300262451172" y="-260.89801025390625"/>
      <point x="129.0" y="-270.0" type="qcurve" smooth="yes"/>
      <point x="170.0" y="-287.0"/>
      <point x="208.0" y="-287.0" type="qcurve" smooth="yes"/>
      <point x="278.0" y="-287.0"/>
      <point x="366.3330078125" y="-135.71600341796875"/>
      <point x="392.0" y="-60.0" type="qcurve" smooth="yes"/>
      <point x="412.0" y="-1.0" type="line"/>
    </contour>
  </outline>
</glyph>
<glyph name="braceright" format="2">
  <advance width="776"/>
  <unicode hex="007D"/>
  <outline>
    <contour>
      <point x="115.0" y="-408.0" type="qcurve" smooth="yes"/>
      <point x="70.0" y="-408.0"/>
      <point x="70.0" y="-373.0" type="qcurve" smooth="yes"/>
      <point x="70.0" y="-313.0" type="line" smooth="yes"/>
      <point x="70.0" y="-278.0"/>
      <point x="115.0" y="-278.0" type="qcurve" smooth="yes"/>
      <point x="213.0" y="-278.0"/>
      <point x="250.0" y="-196.0"/>
      <point x="250.0" y="-101.0" type="qcurve" smooth="yes"/>
      <point x="250.0" y="185.0" type="line" smooth="yes"/>
      <point x="250.0" y="390.0"/>
      <point x="433.0" y="534.0"/>
      <point x="497.0" y="543.0" type="qcurve"/>
      <point x="497.0" y="545.0" type="line"/>
      <point x="433.0" y="554.0"/>
      <point x="250.0" y="698.0"/>
      <point x="250.0" y="903.0" type="qcurve" smooth="yes"/>
      <point x="250.0" y="1189.0" type="line" smooth="yes"/>
      <point x="250.0" y="1284.0"/>
      <point x="213.0" y="1366.0"/>
      <point x="115.0" y="1366.0" type="qcurve" smooth="yes"/>
      <point x="70.0" y="1366.0"/>
      <point x="70.0" y="1401.0" type="qcurve" smooth="yes"/>
      <point x="70.0" y="1461.0" type="line" smooth="yes"/>
      <point x="70.0" y="1496.0"/>
      <point x="115.0" y="1496.0" type="qcurve" smooth="yes"/>
      <point x="300.0" y="1496.0"/>
      <point x="426.0" y="1335.0"/>
      <point x="426.0" y="1166.0" type="qcurve" smooth="yes"/>
      <point x="426.0" y="931.0" type="line" smooth="yes"/>
      <point x="426.0" y="758.0"/>
      <point x="579.0" y="609.0"/>
      <point x="651.0" y="609.0" type="qcurve" smooth="yes"/>
      <point x="686.0" y="609.0"/>
      <point x="686.0" y="564.0" type="qcurve" smooth="yes"/>
      <point x="686.0" y="524.0" type="line" smooth="yes"/>
      <point x="686.0" y="479.0"/>
      <point x="651.0" y="479.0" type="qcurve" smooth="yes"/>
      <point x="579.0" y="479.0"/>
      <point x="426.0" y="330.0"/>
      <point x="426.0" y="157.0" type="qcurve" smooth="yes"/>
      <point x="426.0" y="-78.0" type="line" smooth="yes"/>
      <point x="426.0" y="-247.0"/>
      <point x="300.0" y="-408.0"/>
    </contour>
  </outline>
</glyph>
<glyph name="asciitilde" format="2">
  <advance width="1280"/>
  <unicode hex="007E"/>
  <outline>
    <contour>
      <point x="101.0" y="628.0" type="line" smooth="yes"/>
      <point x="77.0" y="636.0"/>
      <point x="88.0" y="671.0" type="qcurve" smooth="yes"/>
      <point x="123.0" y="781.0"/>
      <point x="285.0" y="910.0"/>
      <point x="400.0" y="910.0" type="qcurve" smooth="yes"/>
      <point x="515.0" y="910.0"/>
      <point x="842.0" y="670.0"/>
      <point x="917.0" y="670.0" type="qcurve" smooth="yes"/>
      <point x="986.0" y="670.0"/>
      <point x="1074.0" y="760.0"/>
      <point x="1099.0" y="816.0" type="qcurve" smooth="yes"/>
      <point x="1112.0" y="846.0"/>
      <point x="1136.0" y="837.0" type="qcurve" smooth="yes"/>
      <point x="1179.0" y="822.0" type="line" smooth="yes"/>
      <point x="1203.0" y="814.0"/>
      <point x="1192.0" y="779.0" type="qcurve" smooth="yes"/>
      <point x="1157.0" y="669.0"/>
      <point x="995.0" y="540.0"/>
      <point x="880.0" y="540.0" type="qcurve" smooth="yes"/>
      <point x="765.0" y="540.0"/>
      <point x="438.0" y="780.0"/>
      <point x="363.0" y="780.0" type="qcurve" smooth="yes"/>
      <point x="294.0" y="780.0"/>
      <point x="206.0" y="690.0"/>
      <point x="181.0" y="634.0" type="qcurve" smooth="yes"/>
      <point x="168.0" y="604.0"/>
      <point x="144.0" y="613.0" type="qcurve" smooth="yes"/>
    </contour>
  </outline>
</glyph>
<glyph name="cent" format="2">
  <advance width="1110"/>
  <unicode hex="00A2"/>
  <outline>
    <contour>
      <point x="128.0" y="525.0" type="qcurve" smooth="yes"/>
      <point x="128.0" y="760.0"/>
      <point x="345.0" y="1045.0"/>
      <point x="536.0" y="1064.0" type="qcurve"/>
      <point x="536.0" y="1252.0" type="line" smooth="yes"/>
      <point x="536.0" y="1297.0"/>
      <point x="571.0" y="1297.0" type="qcurve" smooth="yes"/>
      <point x="621.0" y="1297.0" type="line" smooth="yes"/>
      <point x="656.0" y="1297.0"/>
      <point x="656.0" y="1252.0" type="qcurve" smooth="yes"/>
      <point x="656.0" y="1065.0" type="line"/>
      <point x="778.0" y="1057.0"/>
      <point x="934.0" y="952.0"/>
      <point x="972.0" y="892.0" type="qcurve" smooth="yes"/>
      <point x="993.0" y="859.0"/>
      <point x="963.0" y="839.0" type="qcurve" smooth="yes"/>
      <point x="900.0" y="798.0" type="line" smooth="yes"/>
      <point x="870.0" y="777.0"/>
      <point x="840.0" y="825.0" type="qcurve" smooth="yes"/>
      <point x="811.0" y="871.0"/>
      <point x="721.0" y="928.0"/>
      <point x="656.0" y="934.0" type="qcurve"/>
      <point x="656.0" y="116.0" type="line"/>
      <point x="728.0" y="124.0"/>
      <point x="830.0" y="198.0"/>
      <point x="857.0" y="248.0" type="qcurve" smooth="yes"/>
      <point x="883.0" y="295.0"/>
      <point x="916.0" y="275.0" type="qcurve" smooth="yes"/>
      <point x="983.0" y="235.0" type="line" smooth="yes"/>
      <point x="1013.0" y="217.0"/>
      <point x="992.0" y="181.0" type="qcurve" smooth="yes"/>
      <point x="967.0" y="138.0"/>
      <point x="803.0" y="-5.0"/>
      <point x="656.0" y="-15.0" type="qcurve"/>
      <point x="656.0" y="-202.0" type="line" smooth="yes"/>
      <point x="656.0" y="-247.0"/>
      <point x="621.0" y="-247.0" type="qcurve" smooth="yes"/>
      <point x="571.0" y="-247.0" type="line" smooth="yes"/>
      <point x="536.0" y="-247.0"/>
      <point x="536.0" y="-202.0" type="qcurve" smooth="yes"/>
      <point x="536.0" y="-14.0" type="line"/>
      <point x="345.0" y="5.0"/>
      <point x="128.0" y="290.0"/>
    </contour>
    <contour>
      <point x="314.0" y="525.0" type="qcurve" smooth="yes"/>
      <point x="314.0" y="315.0"/>
      <point x="445.0" y="138.0"/>
      <point x="536.0" y="119.0" type="qcurve"/>
      <point x="536.0" y="931.0" type="line"/>
      <point x="445.0" y="912.0"/>
      <point x="314.0" y="735.0"/>
    </contour>
  </outline>
</glyph>
<glyph name="yen" format="2">
  <advance width="1110"/>
  <unicode hex="00A5"/>
  <outline>
    <contour>
      <point x="15.0" y="1368.0" type="line" smooth="yes"/>
      <point x="-23.0" y="1434.0"/>
      <point x="42.0" y="1434.0" type="qcurve" smooth="yes"/>
      <point x="134.0" y="1434.0" type="line" smooth="yes"/>
      <point x="181.0" y="1434.0"/>
      <point x="206.0" y="1385.0" type="qcurve" smooth="yes"/>
      <point x="432.0" y="948.0" type="line" smooth="yes"/>
      <point x="472.0" y="871.0"/>
      <point x="525.0" y="769.0"/>
      <point x="553.0" y="709.0" type="qcurve"/>
      <point x="557.0" y="709.0" type="line"/>
      <point x="585.0" y="769.0"/>
      <point x="638.0" y="871.0"/>
      <point x="678.0" y="948.0" type="qcurve" smooth="yes"/>
      <point x="904.0" y="1385.0" type="line" smooth="yes"/>
      <point x="929.0" y="1434.0"/>
      <point x="976.0" y="1434.0" type="qcurve" smooth="yes"/>
      <point x="1068.0" y="1434.0" type="line" smooth="yes"/>
      <point x="1133.0" y="1434.0"/>
      <point x="1095.0" y="1368.0" type="qcurve" smooth="yes"/>
      <point x="730.0" y="739.0" type="line"/>
      <point x="906.0" y="739.0" type="line" smooth="yes"/>
      <point x="951.0" y="739.0"/>
      <point x="951.0" y="694.0" type="qcurve" smooth="yes"/>
      <point x="951.0" y="635.0" type="line" smooth="yes"/>
      <point x="951.0" y="590.0"/>
      <point x="906.0" y="590.0" type="qcurve" smooth="yes"/>
      <point x="643.0" y="590.0" type="line"/>
      <point x="643.0" y="409.0" type="line"/>
      <point x="906.0" y="409.0" type="line" smooth="yes"/>
      <point x="951.0" y="409.0"/>
      <point x="951.0" y="364.0" type="qcurve" smooth="yes"/>
      <point x="951.0" y="305.0" type="line" smooth="yes"/>
      <point x="951.0" y="260.0"/>
      <point x="906.0" y="260.0" type="qcurve" smooth="yes"/>
      <point x="643.0" y="260.0" type="line"/>
      <point x="643.0" y="45.0" type="line" smooth="yes"/>
      <point x="643.0" y="0.0"/>
      <point x="598.0" y="0.0" type="qcurve" smooth="yes"/>
      <point x="512.0" y="0.0" type="line" smooth="yes"/>
      <point x="467.0" y="0.0"/>
      <point x="467.0" y="45.0" type="qcurve" smooth="yes"/>
      <point x="467.0" y="260.0" type="line"/>
      <point x="194.0" y="260.0" type="line" smooth="yes"/>
      <point x="149.0" y="260.0"/>
      <point x="149.0" y="305.0" type="qcurve" smooth="yes"/>
      <point x="149.0" y="364.0" type="line" smooth="yes"/>
      <point x="149.0" y="409.0"/>
      <point x="194.0" y="409.0" type="qcurve" smooth="yes"/>
      <point x="467.0" y="409.0" type="line"/>
      <point x="467.0" y="590.0" type="line"/>
      <point x="194.0" y="590.0" type="line" smooth="yes"/>
      <point x="149.0" y="590.0"/>
      <point x="149.0" y="635.0" type="qcurve" smooth="yes"/>
      <point x="149.0" y="694.0" type="line" smooth="yes"/>
      <point x="149.0" y="739.0"/>
      <point x="194.0" y="739.0" type="qcurve" smooth="yes"/>
      <point x="380.0" y="739.0" type="line"/>
    </contour>
  </outline>
</glyph>
<glyph name="macron" format="2">
  <advance width="614"/>
  <unicode hex="00AF"/>
  <outline>
    <contour>
      <point x="43.0" y="1240.0" type="line" smooth="yes"/>
      <point x="-2.0" y="1240.0"/>
      <point x="-2.0" y="1275.0" type="qcurve" smooth="yes"/>
      <point x="-2.0" y="1315.0" type="line" smooth="yes"/>
      <point x="-2.0" y="1350.0"/>
      <point x="43.0" y="1350.0" type="qcurve" smooth="yes"/>
      <point x="571.0" y="1350.0" type="line" smooth="yes"/>
      <point x="616.0" y="1350.0"/>
      <point x="616.0" y="1315.0" type="qcurve" smooth="yes"/>
      <point x="616.0" y="1275.0" type="line" smooth="yes"/>
      <point x="616.0" y="1240.0"/>
      <point x="571.0" y="1240.0" type="qcurve" smooth="yes"/>
    </contour>
  </outline>
</glyph>
<glyph name="paragraph" format="2">
  <advance width="1022"/>
  <unicode hex="00B6"/>
  <outline>
    <contour>
      <point x="80.0" y="1084.0" type="qcurve" smooth="yes"/>
      <point x="80.0" y="1226.0"/>
      <point x="288.0" y="1434.0"/>
      <point x="430.0" y="1434.0" type="qcurve" smooth="yes"/>
      <point x="525.0" y="1434.0" type="line" smooth="yes"/>
      <point x="560.0" y="1434.0"/>
      <point x="560.0" y="1389.0" type="qcurve" smooth="yes"/>
      <point x="560.0" y="-325.0" type="line" smooth="yes"/>
      <point x="560.0" y="-370.0"/>
      <point x="525.0" y="-370.0" type="qcurve" smooth="yes"/>
      <point x="465.0" y="-370.0" type="line" smooth="yes"/>
      <point x="430.0" y="-370.0"/>
      <point x="430.0" y="-325.0" type="qcurve" smooth="yes"/>
      <point x="430.0" y="734.0" type="line"/>
      <point x="288.0" y="734.0"/>
      <point x="80.0" y="942.0"/>
    </contour>
    <contour>
      <point x="785.0" y="-370.0" type="line" smooth="yes"/>
      <point x="750.0" y="-370.0"/>
      <point x="750.0" y="-325.0" type="qcurve" smooth="yes"/>
      <point x="750.0" y="1389.0" type="line" smooth="yes"/>
      <point x="750.0" y="1434.0"/>
      <point x="785.0" y="1434.0" type="qcurve" smooth="yes"/>
      <point x="845.0" y="1434.0" type="line" smooth="yes"/>
      <point x="880.0" y="1434.0"/>
      <point x="880.0" y="1389.0" type="qcurve" smooth="yes"/>
      <point x="880.0" y="-325.0" type="line" smooth="yes"/>
      <point x="880.0" y="-370.0"/>
      <point x="845.0" y="-370.0" type="qcurve" smooth="yes"/>
    </contour>
  </outline>
</glyph>
<glyph name="cedilla" format="2">
  <advance width="614"/>
  <unicode hex="00B8"/>
  <outline>
    <contour>
      <point x="120.0" y="-396.0" type="qcurve" smooth="yes"/>
      <point x="99.0" y="-390.0"/>
      <point x="106.0" y="-361.0" type="qcurve" smooth="yes"/>
      <point x="116.0" y="-322.0" type="line" smooth="yes"/>
      <point x="124.0" y="-292.0"/>
      <point x="154.0" y="-302.0" type="qcurve" smooth="yes"/>
      <point x="196.0" y="-316.0"/>
      <point x="238.0" y="-316.0" type="qcurve" smooth="yes"/>
      <point x="286.0" y="-316.0"/>
      <point x="339.0" y="-282.0"/>
      <point x="339.0" y="-248.0" type="qcurve" smooth="yes"/>
      <point x="339.0" y="-218.0"/>
      <point x="279.0" y="-189.0"/>
      <point x="230.0" y="-189.0" type="qcurve" smooth="yes"/>
      <point x="202.0" y="-189.0" type="line" smooth="yes"/>
      <point x="178.0" y="-189.0"/>
      <point x="178.0" y="-164.0" type="qcurve" smooth="yes"/>
      <point x="178.0" y="-126.0"/>
      <point x="188.0" y="-109.0" type="qcurve" smooth="yes"/>
      <point x="252.0" y="0.0" type="line" smooth="yes"/>
      <point x="265.0" y="22.0"/>
      <point x="292.0" y="22.0" type="qcurve" smooth="yes"/>
      <point x="352.0" y="22.0" type="line" smooth="yes"/>
      <point x="384.0" y="22.0"/>
      <point x="371.0" y="0.0" type="qcurve" smooth="yes"/>
      <point x="315.0" y="-96.0" type="line"/>
      <point x="315.0" y="-99.0" type="line"/>
      <point x="394.0" y="-105.0"/>
      <point x="463.0" y="-199.0"/>
      <point x="463.0" y="-251.0" type="qcurve" smooth="yes"/>
      <point x="463.0" y="-327.0"/>
      <point x="344.0" y="-416.0"/>
      <point x="246.0" y="-416.0" type="qcurve" smooth="yes"/>
      <point x="191.0" y="-416.0"/>
    </contour>
  </outline>
</glyph>
<glyph name="AE" format="2">
  <advance width="1957"/>
  <unicode hex="00C6"/>
  <outline>
    <contour>
      <point x="73.0" y="0.0" type="line" smooth="yes"/>
      <point x="14.0" y="0.0"/>
      <point x="46.0" y="66.0" type="qcurve" smooth="yes"/>
      <point x="690.0" y="1382.0" type="line" smooth="yes"/>
      <point x="715.0" y="1434.0"/>
      <point x="758.0" y="1434.0" type="qcurve" smooth="yes"/>
      <point x="1782.0" y="1434.0" type="line" smooth="yes"/>
      <point x="1837.0" y="1434.0"/>
      <point x="1837.0" y="1389.0" type="qcurve" smooth="yes"/>
      <point x="1837.0" y="1315.0" type="line" smooth="yes"/>
      <point x="1837.0" y="1270.0"/>
      <point x="1782.0" y="1270.0" type="qcurve" smooth="yes"/>
      <point x="1089.0" y="1270.0" type="line"/>
      <point x="1089.0" y="826.0" type="line"/>
      <point x="1722.0" y="826.0" type="line" smooth="yes"/>
      <point x="1777.0" y="826.0"/>
      <point x="1777.0" y="781.0" type="qcurve" smooth="yes"/>
      <point x="1777.0" y="707.0" type="line" smooth="yes"/>
      <point x="1777.0" y="662.0"/>
      <point x="1722.0" y="662.0" type="qcurve" smooth="yes"/>
      <point x="1089.0" y="662.0" type="line"/>
      <point x="1089.0" y="164.0" type="line"/>
      <point x="1812.0" y="164.0" type="line" smooth="yes"/>
      <point x="1867.0" y="164.0"/>
      <point x="1867.0" y="119.0" type="qcurve" smooth="yes"/>
      <point x="1867.0" y="45.0" type="line" smooth="yes"/>
      <point x="1867.0" y="0.0"/>
      <point x="1812.0" y="0.0" type="qcurve" smooth="yes"/>
      <point x="947.0" y="0.0" type="line" smooth="yes"/>
      <point x="897.0" y="0.0"/>
      <point x="897.0" y="55.0" type="qcurve" smooth="yes"/>
      <point x="897.0" y="380.0" type="line"/>
      <point x="408.0" y="380.0" type="line"/>
      <point x="248.0" y="49.0" type="line" smooth="yes"/>
      <point x="224.0" y="0.0"/>
      <point x="180.0" y="0.0" type="qcurve" smooth="yes"/>
    </contour>
    <contour>
      <point x="489.0" y="544.0" type="line"/>
      <point x="897.0" y="544.0" type="line"/>
      <point x="897.0" y="1270.0" type="line"/>
      <point x="827.0" y="1270.0" type="line"/>
      <point x="810.0" y="1211.0"/>
      <point x="769.0" y="1116.0"/>
      <point x="738.0" y="1053.0" type="qcurve" smooth="yes"/>
    </contour>
  </outline>
</glyph>
<glyph name="Thorn" format="2">
  <advance width="1244"/>
  <unicode hex="00DE"/>
  <outline>
    <contour>
      <point x="220.0" y="-8.0" type="line" smooth="yes"/>
      <point x="170.0" y="-8.0"/>
      <point x="170.0" y="47.0" type="qcurve" smooth="yes"/>
      <point x="170.0" y="1380.0" type="line" smooth="yes"/>
      <point x="170.0" y="1435.0"/>
      <point x="220.0" y="1435.0" type="qcurve" smooth="yes"/>
      <point x="312.0" y="1435.0" type="line" smooth="yes"/>
      <point x="362.0" y="1435.0"/>
      <point x="362.0" y="1380.0" type="qcurve" smooth="yes"/>
      <point x="362.0" y="1176.0" type="line"/>
      <point x="560.0" y="1176.0" type="line" smooth="yes"/>
      <point x="860.0" y="1176.0"/>
      <point x="1150.0" y="976.0"/>
      <point x="1150.0" y="756.0" type="qcurve" smooth="yes"/>
      <point x="1150.0" y="536.0"/>
      <point x="860.0" y="336.0"/>
      <point x="560.0" y="336.0" type="qcurve" smooth="yes"/>
      <point x="362.0" y="336.0" type="line"/>
      <point x="362.0" y="47.0" type="line" smooth="yes"/>
      <point x="362.0" y="-8.0"/>
      <point x="312.0" y="-8.0" type="qcurve" smooth="yes"/>
    </contour>
    <contour>
      <point x="362.0" y="500.0" type="line"/>
      <point x="578.0" y="500.0" type="line" smooth="yes"/>
      <point x="758.0" y="500.0"/>
      <point x="945.0" y="606.0"/>
      <point x="945.0" y="756.0" type="qcurve" smooth="yes"/>
      <point x="945.0" y="906.0"/>
      <point x="758.0" y="1012.0"/>
      <point x="578.0" y="1012.0" type="qcurve" smooth="yes"/>
      <point x="362.0" y="1012.0" type="line"/>
    </contour>
  </outline>
</glyph>
<glyph name="germandbls" format="2">
  <advance width="1216"/>
  <unicode hex="00DF"/>
  <outline>
    <contour>
      <point x="187.0" y="0.0" type="line" smooth="yes"/>
      <point x="142.0" y="0.0"/>
      <point x="142.0" y="45.0" type="qcurve" smooth="yes"/>
      <point x="142.0" y="1139.0" type="line" smooth="yes"/>
      <point x="142.0" y="1341.0"/>
      <point x="402.0" y="1493.0"/>
      <point x="586.0" y="1493.0" type="qcurve" smooth="yes"/>
      <point x="783.0" y="1493.0"/>
      <point x="996.0" y="1305.0"/>
      <point x="996.0" y="1180.0" type="qcurve" smooth="yes"/>
      <point x="996.0" y="1056.0"/>
      <point x="878.0" y="886.0"/>
      <point x="741.0" y="801.0" type="qcurve"/>
      <point x="741.0" y="798.0" type="line"/>
      <point x="915.0" y="773.0"/>
      <point x="1116.0" y="537.0"/>
      <point x="1116.0" y="376.0" type="qcurve" smooth="yes"/>
      <point x="1116.0" y="198.0"/>
      <point x="930.0" y="-17.0"/>
      <point x="740.0" y="-17.0" type="qcurve" smooth="yes"/>
      <point x="644.0" y="-17.0"/>
      <point x="524.0" y="10.0"/>
      <point x="472.0" y="48.0" type="qcurve" smooth="yes"/>
      <point x="439.0" y="72.0"/>
      <point x="460.0" y="102.0" type="qcurve" smooth="yes"/>
      <point x="501.0" y="160.0" type="line" smooth="yes"/>
      <point x="522.0" y="189.0"/>
      <point x="566.0" y="158.0" type="qcurve" smooth="yes"/>
      <point x="586.0" y="144.0"/>
      <point x="678.0" y="113.0"/>
      <point x="731.0" y="113.0" type="qcurve" smooth="yes"/>
      <point x="822.0" y="113.0"/>
      <point x="930.0" y="252.0"/>
      <point x="930.0" y="382.0" type="qcurve" smooth="yes"/>
      <point x="930.0" y="537.0"/>
      <point x="752.0" y="673.0"/>
      <point x="587.0" y="673.0" type="qcurve" smooth="yes"/>
      <point x="575.0" y="673.0"/>
      <point x="567.0" y="698.0" type="qcurve" smooth="yes"/>
      <point x="532.0" y="806.0" type="line" smooth="yes"/>
      <point x="526.0" y="825.0"/>
      <point x="546.0" y="839.0" type="qcurve" smooth="yes"/>
      <point x="626.0" y="894.0" type="line" smooth="yes"/>
      <point x="706.0" y="949.0"/>
      <point x="820.0" y="1074.0"/>
      <point x="820.0" y="1173.0" type="qcurve" smooth="yes"/>
      <point x="820.0" y="1264.0"/>
      <point x="708.0" y="1363.0"/>
      <point x="596.0" y="1363.0" type="qcurve" smooth="yes"/>
      <point x="483.0" y="1363.0"/>
      <point x="318.0" y="1254.0"/>
      <point x="318.0" y="1110.0" type="qcurve" smooth="yes"/>
      <point x="318.0" y="45.0" type="line" smooth="yes"/>
      <point x="318.0" y="0.0"/>
      <point x="273.0" y="0.0" type="qcurve" smooth="yes"/>
    </contour>
  </outline>
</glyph>
<glyph name="Eogonek" format="2">
  <advance width="1270"/>
  <unicode hex="0118"/>
  <outline>
    <contour>
      <point x="220.0" y="0.0" type="line" smooth="yes"/>
      <point x="170.0" y="0.0"/>
      <point x="170.0" y="55.0" type="qcurve" smooth="yes"/>
      <point x="170.0" y="1379.0" type="line" smooth="yes"/>
      <point x="170.0" y="1434.0"/>
      <point x="220.0" y="1434.0" type="qcurve" smooth="yes"/>
      <point x="1095.0" y="1434.0" type="line" smooth="yes"/>
      <point x="1150.0" y="1434.0"/>
      <point x="1150.0" y="1389.0" type="qcurve" smooth="yes"/>
      <point x="1150.0" y="1315.0" type="line" smooth="yes"/>
      <point x="1150.0" y="1270.0"/>
      <point x="1095.0" y="1270.0" type="qcurve" smooth="yes"/>
      <point x="362.0" y="1270.0" type="line"/>
      <point x="362.0" y="826.0" type="line"/>
      <point x="1035.0" y="826.0" type="line" smooth="yes"/>
      <point x="1090.0" y="826.0"/>
      <point x="1090.0" y="781.0" type="qcurve" smooth="yes"/>
      <point x="1090.0" y="707.0" type="line" smooth="yes"/>
      <point x="1090.0" y="662.0"/>
      <point x="1035.0" y="662.0" type="qcurve" smooth="yes"/>
      <point x="362.0" y="662.0" type="line"/>
      <point x="362.0" y="164.0" type="line"/>
      <point x="1125.0" y="164.0" type="line" smooth="yes"/>
      <point x="1180.0" y="164.0"/>
      <point x="1180.0" y="119.0" type="qcurve" smooth="yes"/>
      <point x="1180.0" y="45.0" type="line" smooth="yes"/>
      <point x="1180.0" y="0.0"/>
      <point x="1125.0" y="0.0" type="qcurve" smooth="yes"/>
      <point x="1118.0" y="0.0" type="line"/>
      <point x="1088.0" y="-10.0"/>
      <point x="924.0" y="-148.0"/>
      <point x="924.0" y="-211.0" type="qcurve" smooth="yes"/>
      <point x="924.0" y="-251.0"/>
      <point x="971.0" y="-287.0"/>
      <point x="1005.0" y="-287.0" type="qcurve" smooth="yes"/>
      <point x="1055.0" y="-287.0"/>
      <point x="1085.0" y="-280.0" type="qcurve" smooth="yes"/>
      <point x="1106.0" y="-275.0"/>
      <point x="1110.0" y="-299.0" type="qcurve" smooth="yes"/>
      <point x="1123.0" y="-378.0" type="line" smooth="yes"/>
      <point x="1127.0" y="-402.0"/>
      <point x="1105.0" y="-406.0" type="qcurve" smooth="yes"/>
      <point x="1040.0" y="-417.0"/>
      <point x="982.0" y="-417.0" type="qcurve" smooth="yes"/>
      <point x="866.0" y="-417.0"/>
      <point x="764.0" y="-316.0"/>
      <point x="764.0" y="-255.0" type="qcurve" smooth="yes"/>
      <point x="764.0" y="-202.0"/>
      <point x="807.0" y="-113.0"/>
      <point x="884.0" y="-41.0"/>
      <point x="938.0" y="-2.0" type="qcurve"/>
      <point x="938.0" y="2.0" type="line"/>
      <point x="898.0" y="0.0"/>
      <point x="858.0" y="0.0" type="qcurve" smooth="yes"/>
    </contour>
  </outline>
</glyph>
<glyph name="eng" format="2">
  <advance width="1128"/>
  <unicode hex="014B"/>
  <outline>
    <contour>
      <point x="187.0" y="0.0" type="line" smooth="yes"/>
      <point x="142.0" y="0.0"/>
      <point x="142.0" y="45.0" type="qcurve" smooth="yes"/>
      <point x="142.0" y="1005.0" type="line" smooth="yes"/>
      <point x="142.0" y="1050.0"/>
      <point x="187.0" y="1050.0" type="qcurve" smooth="yes"/>
      <point x="271.0" y="1050.0" type="line" smooth="yes"/>
      <point x="316.0" y="1050.0"/>
      <point x="316.0" y="1005.0" type="qcurve" smooth="yes"/>
      <point x="316.0" y="925.0" type="line"/>
      <point x="320.0" y="925.0" type="line"/>
      <point x="385.0" y="997.0"/>
      <point x="535.0" y="1067.0"/>
      <point x="647.0" y="1067.0" type="qcurve" smooth="yes"/>
      <point x="829.0" y="1067.0"/>
      <point x="988.0" y="862.0"/>
      <point x="988.0" y="684.0" type="qcurve" smooth="yes"/>
      <point x="988.0" y="-93.0" type="line" smooth="yes"/>
      <point x="988.0" y="-287.0"/>
      <point x="841.0" y="-417.0"/>
      <point x="732.0" y="-417.0" type="qcurve" smooth="yes"/>
      <point x="626.0" y="-417.0"/>
      <point x="580.0" y="-397.0" type="qcurve" smooth="yes"/>
      <point x="558.0" y="-387.0"/>
      <point x="562.0" y="-365.0" type="qcurve" smooth="yes"/>
      <point x="579.0" y="-284.0" type="line" smooth="yes"/>
      <point x="584.0" y="-260.0"/>
      <point x="604.0" y="-269.0" type="qcurve" smooth="yes"/>
      <point x="643.0" y="-287.0"/>
      <point x="700.0" y="-287.0" type="qcurve" smooth="yes"/>
      <point x="759.0" y="-287.0"/>
      <point x="812.0" y="-171.0"/>
      <point x="812.0" y="6.0" type="qcurve" smooth="yes"/>
      <point x="812.0" y="636.0" type="line" smooth="yes"/>
      <point x="812.0" y="832.0"/>
      <point x="682.0" y="937.0"/>
      <point x="582.0" y="937.0" type="qcurve" smooth="yes"/>
      <point x="452.0" y="937.0"/>
      <point x="318.0" y="782.0"/>
      <point x="318.0" y="594.0" type="qcurve" smooth="yes"/>
      <point x="318.0" y="45.0" type="line" smooth="yes"/>
      <point x="318.0" y="0.0"/>
      <point x="273.0" y="0.0" type="qcurve" smooth="yes"/>
    </contour>
  </outline>
</glyph>
<glyph name="uni0194" format="2">
  <advance width="1282"/>
  <unicode hex="0194"/>
  <outline>
    <contour>
      <point x="54.0" y="1368.0" type="line" smooth="yes"/>
      <point x="16.0" y="1434.0"/>
      <point x="81.0" y="1434.0" type="qcurve" smooth="yes"/>
      <point x="193.0" y="1434.0" type="line" smooth="yes"/>
      <point x="239.0" y="1434.0"/>
      <point x="265.0" y="1385.0" type="qcurve" smooth="yes"/>
      <point x="519.0" y="898.0" type="line" smooth="yes"/>
      <point x="557.0" y="824.0"/>
      <point x="611.0" y="716.0"/>
      <point x="639.0" y="656.0" type="qcurve"/>
      <point x="643.0" y="656.0" type="line"/>
      <point x="671.0" y="716.0"/>
      <point x="725.0" y="824.0"/>
      <point x="763.0" y="898.0" type="qcurve" smooth="yes"/>
      <point x="1017.0" y="1385.0" type="line" smooth="yes"/>
      <point x="1043.0" y="1434.0"/>
      <point x="1089.0" y="1434.0" type="qcurve" smooth="yes"/>
      <point x="1201.0" y="1434.0" type="line" smooth="yes"/>
      <point x="1266.0" y="1434.0"/>
      <point x="1228.0" y="1368.0" type="qcurve" smooth="yes"/>
      <point x="746.0" y="540.0" type="line"/>
      <point x="832.0" y="440.0"/>
      <point x="920.0" y="278.0"/>
      <point x="920.0" y="223.0" type="qcurve" smooth="yes"/>
      <point x="920.0" y="98.0"/>
      <point x="772.0" y="-30.0"/>
      <point x="639.0" y="-30.0" type="qcurve" smooth="yes"/>
      <point x="506.0" y="-30.0"/>
      <point x="358.0" y="98.0"/>
      <point x="358.0" y="223.0" type="qcurve" smooth="yes"/>
      <point x="358.0" y="278.0"/>
      <point x="450.0" y="440.0"/>
      <point x="536.0" y="540.0" type="qcurve"/>
    </contour>
    <contour>
      <point x="550.0" y="223.0" type="qcurve" smooth="yes"/>
      <point x="550.0" y="178.0"/>
      <point x="594.0" y="126.0"/>
      <point x="639.0" y="126.0" type="qcurve" smooth="yes"/>
      <point x="684.0" y="126.0"/>
      <point x="728.0" y="178.0"/>
      <point x="728.0" y="223.0" type="qcurve" smooth="yes"/>
      <point x="728.0" y="243.0"/>
      <point x="715.0" y="314.0"/>
      <point x="641.0" y="424.0" type="qcurve"/>
      <point x="637.0" y="424.0" type="line"/>
      <point x="563.0" y="314.0"/>
      <point x="550.0" y="243.0"/>
    </contour>
  </outline>
</glyph>
<glyph name="uni019D" format="2">
  <advance width="1462"/>
  <unicode hex="019D"/>
  <outline>
    <contour>
      <point x="-137.0" y="-382.0" type="qcurve" smooth="yes"/>
      <point x="-177.0" y="-366.0"/>
      <point x="-165.0" y="-324.0" type="qcurve" smooth="yes"/>
      <point x="-144.0" y="-253.0" type="line" smooth="yes"/>
      <point x="-130.0" y="-207.0"/>
      <point x="-76.0" y="-232.0" type="qcurve" smooth="yes"/>
      <point x="-14.0" y="-261.0"/>
      <point x="40.0" y="-261.0" type="qcurve" smooth="yes"/>
      <point x="118.0" y="-261.0"/>
      <point x="194.0" y="-158.0"/>
      <point x="194.0" y="39.0" type="qcurve" smooth="yes"/>
      <point x="194.0" y="1379.0" type="line" smooth="yes"/>
      <point x="194.0" y="1434.0"/>
      <point x="244.0" y="1434.0" type="qcurve" smooth="yes"/>
      <point x="372.0" y="1434.0" type="line" smooth="yes"/>
      <point x="442.0" y="1434.0"/>
      <point x="472.0" y="1384.0" type="qcurve" smooth="yes"/>
      <point x="1098.0" y="335.0" type="line"/>
      <point x="1102.0" y="335.0" type="line"/>
      <point x="1100.0" y="375.0"/>
      <point x="1100.0" y="415.0" type="qcurve" smooth="yes"/>
      <point x="1100.0" y="1379.0" type="line" smooth="yes"/>
      <point x="1100.0" y="1434.0"/>
      <point x="1150.0" y="1434.0" type="qcurve" smooth="yes"/>
      <point x="1242.0" y="1434.0" type="line" smooth="yes"/>
      <point x="1292.0" y="1434.0"/>
      <point x="1292.0" y="1379.0" type="qcurve" smooth="yes"/>
      <point x="1292.0" y="55.0" type="line" smooth="yes"/>
      <point x="1292.0" y="0.0"/>
      <point x="1242.0" y="0.0" type="qcurve" smooth="yes"/>
      <point x="1154.0" y="0.0" type="line" smooth="yes"/>
      <point x="1084.0" y="0.0"/>
      <point x="1054.0" y="50.0" type="qcurve" smooth="yes"/>
      <point x="388.0" y="1163.0" type="line"/>
      <point x="384.0" y="1163.0" type="line"/>
      <point x="386.0" y="1123.0"/>
      <point x="386.0" y="1083.0" type="qcurve" smooth="yes"/>
      <point x="386.0" y="-8.0" type="line" smooth="yes"/>
      <point x="386.0" y="-236.0"/>
      <point x="214.0" y="-417.0"/>
      <point x="46.0" y="-417.0" type="qcurve" smooth="yes"/>
      <point x="-47.0" y="-417.0"/>
    </contour>
  </outline>
</glyph>
<glyph name="uni0220" format="2">
  <advance width="1422"/>
  <unicode hex="0220"/>
  <outline>
    <contour>
      <point x="220.0" y="0.0" type="line" smooth="yes"/>
      <point x="170.0" y="0.0"/>
      <point x="170.0" y="55.0" type="qcurve" smooth="yes"/>
      <point x="170.0" y="1379.0" type="line" smooth="yes"/>
      <point x="170.0" y="1434.0"/>
      <point x="220.0" y="1434.0" type="qcurve" smooth="yes"/>
      <point x="302.0" y="1434.0" type="line" smooth="yes"/>
      <point x="349.0" y="1434.0"/>
      <point x="352.0" y="1379.0" type="qcurve" smooth="yes"/>
      <point x="360.0" y="1249.0" type="line"/>
      <point x="364.0" y="1249.0" type="line"/>
      <point x="440.0" y="1360.0"/>
      <point x="688.0" y="1464.0"/>
      <point x="813.0" y="1464.0" type="qcurve" smooth="yes"/>
      <point x="1028.0" y="1464.0"/>
      <point x="1252.0" y="1240.0"/>
      <point x="1252.0" y="1032.0" type="qcurve" smooth="yes"/>
      <point x="1252.0" y="-345.0" type="line" smooth="yes"/>
      <point x="1252.0" y="-400.0"/>
      <point x="1202.0" y="-400.0" type="qcurve" smooth="yes"/>
      <point x="1110.0" y="-400.0" type="line" smooth="yes"/>
      <point x="1060.0" y="-400.0"/>
      <point x="1060.0" y="-345.0" type="qcurve" smooth="yes"/>
      <point x="1060.0" y="944.0" type="line" smooth="yes"/>
      <point x="1060.0" y="1140.0"/>
      <point x="922.0" y="1308.0"/>
      <point x="728.0" y="1308.0" type="qcurve" smooth="yes"/>
      <point x="604.0" y="1308.0"/>
      <point x="362.0" y="1122.0"/>
      <point x="362.0" y="875.0" type="qcurve" smooth="yes"/>
      <point x="362.0" y="55.0" type="line" smooth="yes"/>
      <point x="362.0" y="0.0"/>
      <point x="312.0" y="0.0" type="qcurve" smooth="yes"/>
    </contour>
  </outline>
</glyph>
<glyph name="uni0248" format="2">
  <advance width="890"/>
  <unicode hex="0248"/>
  <outline>
    <contour>
      <point x="67.0" y="29.0" type="qcurve" smooth="yes"/>
      <point x="21.0" y="54.0"/>
      <point x="39.0" y="94.0" type="qcurve" smooth="yes"/>
      <point x="72.0" y="165.0" type="line" smooth="yes"/>
      <point x="94.0" y="213.0"/>
      <point x="145.0" y="179.0" type="qcurve" smooth="yes"/>
      <point x="226.0" y="126.0"/>
      <point x="315.0" y="126.0" type="qcurve" smooth="yes"/>
      <point x="404.0" y="126.0"/>
      <point x="462.0" y="257.0"/>
      <point x="462.0" y="378.0" type="qcurve" smooth="yes"/>
      <point x="462.0" y="644.0" type="line"/>
      <point x="282.0" y="644.0" type="line" smooth="yes"/>
      <point x="227.0" y="644.0"/>
      <point x="227.0" y="689.0" type="qcurve" smooth="yes"/>
      <point x="227.0" y="763.0" type="line" smooth="yes"/>
      <point x="227.0" y="808.0"/>
      <point x="282.0" y="808.0" type="qcurve" smooth="yes"/>
      <point x="462.0" y="808.0" type="line"/>
      <point x="462.0" y="1379.0" type="line" smooth="yes"/>
      <point x="462.0" y="1434.0"/>
      <point x="512.0" y="1434.0" type="qcurve" smooth="yes"/>
      <point x="604.0" y="1434.0" type="line" smooth="yes"/>
      <point x="654.0" y="1434.0"/>
      <point x="654.0" y="1379.0" type="qcurve" smooth="yes"/>
      <point x="654.0" y="808.0" type="line"/>
      <point x="785.0" y="808.0" type="line" smooth="yes"/>
      <point x="840.0" y="808.0"/>
      <point x="840.0" y="763.0" type="qcurve" smooth="yes"/>
      <point x="840.0" y="689.0" type="line" smooth="yes"/>
      <point x="840.0" y="644.0"/>
      <point x="785.0" y="644.0" type="qcurve" smooth="yes"/>
      <point x="654.0" y="644.0" type="line"/>
      <point x="654.0" y="401.0" type="line" smooth="yes"/>
      <point x="654.0" y="203.0"/>
      <point x="530.0" y="-30.0"/>
      <point x="302.0" y="-30.0" type="qcurve" smooth="yes"/>
      <point x="177.0" y="-30.0"/>
    </contour>
  </outline>
</glyph>
<glyph name="uni0251" format="2">
  <advance width="1103"/>
  <unicode hex="0251"/>
  <outline>
    <contour>
      <point x="85.0" y="525.0" type="qcurve" smooth="yes"/>
      <point x="85.0" y="740.0"/>
      <point x="293.0" y="1067.0"/>
      <point x="485.0" y="1067.0" type="qcurve" smooth="yes"/>
      <point x="592.0" y="1067.0"/>
      <point x="730.0" y="991.0"/>
      <point x="785.0" y="925.0" type="qcurve"/>
      <point x="787.0" y="925.0" type="line"/>
      <point x="793.0" y="1005.0" type="line" smooth="yes"/>
      <point x="796.0" y="1050.0"/>
      <point x="832.0" y="1050.0" type="qcurve" smooth="yes"/>
      <point x="916.0" y="1050.0" type="line" smooth="yes"/>
      <point x="961.0" y="1050.0"/>
      <point x="961.0" y="1005.0" type="qcurve" smooth="yes"/>
      <point x="961.0" y="45.0" type="line" smooth="yes"/>
      <point x="961.0" y="0.0"/>
      <point x="916.0" y="0.0" type="qcurve" smooth="yes"/>
      <point x="832.0" y="0.0" type="line" smooth="yes"/>
      <point x="796.0" y="-0.0"/>
      <point x="793.0" y="45.0" type="qcurve" smooth="yes"/>
      <point x="787.0" y="125.0" type="line"/>
      <point x="785.0" y="125.0" type="line"/>
      <point x="730.0" y="59.0"/>
      <point x="592.0" y="-17.0"/>
      <point x="485.0" y="-17.0" type="qcurve" smooth="yes"/>
      <point x="293.0" y="-17.0"/>
      <point x="85.0" y="310.0"/>
    </contour>
    <contour>
      <point x="271.0" y="525.0" type="qcurve" smooth="yes"/>
      <point x="271.0" y="341.0"/>
      <point x="397.0" y="113.0"/>
      <point x="542.0" y="113.0" type="qcurve" smooth="yes"/>
      <point x="642.0" y="113.0"/>
      <point x="785.0" y="260.0"/>
      <point x="785.0" y="410.0" type="qcurve" smooth="yes"/>
      <point x="785.0" y="640.0" type="line" smooth="yes"/>
      <point x="785.0" y="790.0"/>
      <point x="642.0" y="937.0"/>
      <point x="542.0" y="937.0" type="qcurve" smooth="yes"/>
      <point x="397.0" y="937.0"/>
      <point x="271.0" y="709.0"/>
    </contour>
  </outline>
</glyph>
<glyph name="uni0253" format="2">
  <advance width="1119"/>
  <unicode hex="0253"/>
  <outline>
    <contour>
      <point x="187.0" y="0.0" type="line" smooth="yes"/>
      <point x="142.0" y="0.0"/>
      <point x="142.0" y="45.0" type="qcurve" smooth="yes"/>
      <point x="142.0" y="1051.0" type="line" smooth="yes"/>
      <point x="142.0" y="1260.0"/>
      <point x="345.0" y="1493.0"/>
      <point x="560.0" y="1493.0" type="qcurve" smooth="yes"/>
      <point x="714.0" y="1493.0"/>
      <point x="889.0" y="1414.0"/>
      <point x="926.0" y="1370.0" type="qcurve" smooth="yes"/>
      <point x="953.0" y="1337.0"/>
      <point x="929.0" y="1314.0" type="qcurve" smooth="yes"/>
      <point x="874.0" y="1260.0" type="line" smooth="yes"/>
      <point x="853.0" y="1239.0"/>
      <point x="824.0" y="1264.0" type="qcurve" smooth="yes"/>
      <point x="765.0" y="1314.0"/>
      <point x="656.0" y="1363.0"/>
      <point x="559.0" y="1363.0" type="qcurve" smooth="yes"/>
      <point x="441.0" y="1363.0"/>
      <point x="318.0" y="1227.0"/>
      <point x="318.0" y="1025.0" type="qcurve" smooth="yes"/>
      <point x="318.0" y="986.0" type="line" smooth="yes"/>
      <point x="318.0" y="955.0"/>
      <point x="316.0" y="925.0" type="qcurve"/>
      <point x="318.0" y="925.0" type="line"/>
      <point x="373.0" y="991.0"/>
      <point x="511.0" y="1067.0"/>
      <point x="626.0" y="1067.0" type="qcurve" smooth="yes"/>
      <point x="826.0" y="1067.0"/>
      <point x="1034.0" y="740.0"/>
      <point x="1034.0" y="525.0" type="qcurve" smooth="yes"/>
      <point x="1034.0" y="310.0"/>
      <point x="826.0" y="-17.0"/>
      <point x="626.0" y="-17.0" type="qcurve" smooth="yes"/>
      <point x="511.0" y="-17.0"/>
      <point x="373.0" y="59.0"/>
      <point x="318.0" y="125.0" type="qcurve"/>
      <point x="316.0" y="125.0" type="line"/>
      <point x="310.0" y="45.0" type="line" smooth="yes"/>
      <point x="307.0" y="0.0"/>
      <point x="271.0" y="0.0" type="qcurve" smooth="yes"/>
    </contour>
    <contour>
      <point x="318.0" y="410.0" type="line" smooth="yes"/>
      <point x="318.0" y="260.0"/>
      <point x="461.0" y="113.0"/>
      <point x="569.0" y="113.0" type="qcurve" smooth="yes"/>
      <point x="721.0" y="113.0"/>
      <point x="848.0" y="341.0"/>
      <point x="848.0" y="525.0" type="qcurve" smooth="yes"/>
      <point x="848.0" y="709.0"/>
      <point x="721.0" y="937.0"/>
      <point x="569.0" y="937.0" type="qcurve" smooth="yes"/>
      <point x="461.0" y="937.0"/>
      <point x="318.0" y="790.0"/>
      <point x="318.0" y="640.0" type="qcurve" smooth="yes"/>
    </contour>
  </outline>
</glyph>
<glyph name="uni0256" format="2">
  <advance width="1127"/>
  <unicode hex="0256"/>
  <outline>
    <contour>
      <point x="85.0" y="525.0" type="qcurve" smooth="yes"/>
      <point x="85.0" y="740.0"/>
      <point x="293.0" y="1067.0"/>
      <point x="493.0" y="1067.0" type="qcurve" smooth="yes"/>
      <point x="608.0" y="1067.0"/>
      <point x="746.0" y="991.0"/>
      <point x="801.0" y="925.0" type="qcurve"/>
      <point x="803.0" y="925.0" type="line"/>
      <point x="801.0" y="955.0"/>
      <point x="801.0" y="986.0" type="qcurve" smooth="yes"/>
      <point x="801.0" y="1431.0" type="line" smooth="yes"/>
      <point x="801.0" y="1476.0"/>
      <point x="846.0" y="1476.0" type="qcurve" smooth="yes"/>
      <point x="932.0" y="1476.0" type="line" smooth="yes"/>
      <point x="977.0" y="1476.0"/>
      <point x="977.0" y="1431.0" type="qcurve" smooth="yes"/>
      <point x="977.0" y="6.0" type="line" smooth="yes"/>
      <point x="977.0" y="-171.0"/>
      <point x="1030.0" y="-287.0"/>
      <point x="1089.0" y="-287.0" type="qcurve" smooth="yes"/>
      <point x="1146.0" y="-287.0"/>
      <point x="1185.0" y="-269.0" type="qcurve" smooth="yes"/>
      <point x="1205.0" y="-260.0"/>
      <point x="1210.0" y="-284.0" type="qcurve" smooth="yes"/>
      <point x="1227.0" y="-365.0" type="line" smooth="yes"/>
      <point x="1231.0" y="-387.0"/>
      <point x="1209.0" y="-397.0" type="qcurve" smooth="yes"/>
      <point x="1163.0" y="-417.0"/>
      <point x="1057.0" y="-417.0" type="qcurve" smooth="yes"/>
      <point x="948.0" y="-417.0"/>
      <point x="801.0" y="-287.0"/>
      <point x="801.0" y="-93.0" type="qcurve" smooth="yes"/>
      <point x="801.0" y="64.0" type="line" smooth="yes"/>
      <point x="801.0" y="95.0"/>
      <point x="803.0" y="125.0" type="qcurve"/>
      <point x="801.0" y="125.0" type="line"/>
      <point x="746.0" y="59.0"/>
      <point x="608.0" y="-17.0"/>
      <point x="493.0" y="-17.0" type="qcurve" smooth="yes"/>
      <point x="293.0" y="-17.0"/>
      <point x="85.0" y="310.0"/>
    </contour>
    <contour>
      <point x="271.0" y="525.0" type="qcurve" smooth="yes"/>
      <point x="271.0" y="341.0"/>
      <point x="398.0" y="113.0"/>
      <point x="550.0" y="113.0" type="qcurve" smooth="yes"/>
      <point x="658.0" y="113.0"/>
      <point x="801.0" y="260.0"/>
      <point x="801.0" y="410.0" type="qcurve" smooth="yes"/>
      <point x="801.0" y="640.0" type="line" smooth="yes"/>
      <point x="801.0" y="790.0"/>
      <point x="658.0" y="937.0"/>
      <point x="550.0" y="937.0" type="qcurve" smooth="yes"/>
      <point x="398.0" y="937.0"/>
      <point x="271.0" y="709.0"/>
    </contour>
  </outline>
</glyph>
<glyph name="uni025A" format="2">
  <advance width="1545"/>
  <unicode hex="025A"/>
  <outline>
    <contour>
      <point x="283.0" y="343.0" type="line"/>
      <point x="320.0" y="208.0"/>
      <point x="450.0" y="111.0"/>
      <point x="538.0" y="111.0" type="qcurve" smooth="yes"/>
      <point x="654.0" y="111.0"/>
      <point x="831.0" y="280.0"/>
      <point x="831.0" y="555.0" type="qcurve"/>
    </contour>
    <contour>
      <point x="102.0" y="395.0" type="qcurve" smooth="yes"/>
      <point x="102.0" y="424.0"/>
      <point x="143.0" y="440.0" type="qcurve" smooth="yes"/>
      <point x="812.0" y="697.0" type="line"/>
      <point x="764.0" y="831.0"/>
      <point x="624.0" y="936.0"/>
      <point x="410.0" y="936.0"/>
      <point x="286.0" y="858.0"/>
      <point x="257.0" y="820.0" type="qcurve" smooth="yes"/>
      <point x="225.0" y="778.0"/>
      <point x="195.0" y="804.0" type="qcurve" smooth="yes"/>
      <point x="136.0" y="855.0" type="line" smooth="yes"/>
      <point x="113.0" y="875.0"/>
      <point x="136.0" y="910.0" type="qcurve" smooth="yes"/>
      <point x="155.0" y="939.0"/>
      <point x="334.0" y="1067.0"/>
      <point x="526.0" y="1067.0" type="qcurve" smooth="yes"/>
      <point x="776.0" y="1067.0"/>
      <point x="949.0" y="853.0"/>
      <point x="978.0" y="764.0" type="qcurve"/>
      <point x="1316.0" y="917.0" type="line" smooth="yes"/>
      <point x="1345.0" y="930.0"/>
      <point x="1357.0" y="910.0" type="qcurve" smooth="yes"/>
      <point x="1376.0" y="879.0" type="line" smooth="yes"/>
      <point x="1394.0" y="850.0"/>
      <point x="1374.0" y="830.0" type="qcurve" smooth="yes"/>
      <point x="1336.0" y="791.0"/>
      <point x="1297.0" y="699.0"/>
      <point x="1297.0" y="668.0" type="qcurve" smooth="yes"/>
      <point x="1297.0" y="612.0"/>
      <point x="1342.0" y="557.0"/>
      <point x="1394.0" y="557.0" type="qcurve" smooth="yes"/>
      <point x="1449.0" y="557.0"/>
      <point x="1508.0" y="583.0" type="qcurve" smooth="yes"/>
      <point x="1533.0" y="594.0"/>
      <point x="1544.0" y="570.0" type="qcurve" smooth="yes"/>
      <point x="1565.0" y="524.0" type="line" smooth="yes"/>
      <point x="1575.0" y="501.0"/>
      <point x="1560.0" y="490.0" type="qcurve" smooth="yes"/>
      <point x="1524.0" y="463.0"/>
      <point x="1431.0" y="432.0"/>
      <point x="1370.0" y="432.0" type="qcurve" smooth="yes"/>
      <point x="1276.0" y="432.0"/>
      <point x="1167.0" y="543.0"/>
      <point x="1167.0" y="619.0" type="qcurve" smooth="yes"/>
      <point x="1167.0" y="646.0"/>
      <point x="1184.0" y="700.0"/>
      <point x="1200.0" y="725.0" type="qcurve"/>
      <point x="1200.0" y="729.0" type="line"/>
      <point x="1006.0" y="636.0" type="line"/>
      <point x="1013.0" y="583.0"/>
      <point x="1013.0" y="525.0" type="qcurve" smooth="yes"/>
      <point x="1013.0" y="277.0"/>
      <point x="765.0" y="-17.0"/>
      <point x="534.0" y="-17.0" type="qcurve" smooth="yes"/>
      <point x="334.0" y="-17.0"/>
      <point x="102.0" y="240.0"/>
    </contour>
  </outline>
</glyph>
<glyph name="uni0266" format="2">
  <advance width="1128"/>
  <unicode hex="0266"/>
  <outline>
    <contour>
      <point x="187.0" y="0.0" type="line" smooth="yes"/>
      <point x="142.0" y="0.0"/>
      <point x="142.0" y="45.0" type="qcurve" smooth="yes"/>
      <point x="142.0" y="1051.0" type="line" smooth="yes"/>
      <point x="142.0" y="1260.0"/>
      <point x="345.0" y="1493.0"/>
      <point x="560.0" y="1493.0" type="qcurve" smooth="yes"/>
      <point x="714.0" y="1493.0"/>
      <point x="889.0" y="1414.0"/>
      <point x="926.0" y="1370.0" type="qcurve" smooth="yes"/>
      <point x="953.0" y="1337.0"/>
      <point x="929.0" y="1314.0" type="qcurve" smooth="yes"/>
      <point x="874.0" y="1260.0" type="line" smooth="yes"/>
      <point x="853.0" y="1239.0"/>
      <point x="824.0" y="1264.0" type="qcurve" smooth="yes"/>
      <point x="765.0" y="1314.0"/>
      <point x="656.0" y="1363.0"/>
      <point x="559.0" y="1363.0" type="qcurve" smooth="yes"/>
      <point x="441.0" y="1363.0"/>
      <point x="318.0" y="1227.0"/>
      <point x="318.0" y="1025.0" type="qcurve" smooth="yes"/>
      <point x="318.0" y="968.0" type="line" smooth="yes"/>
      <point x="318.0" y="938.0"/>
      <point x="316.0" y="908.0" type="qcurve"/>
      <point x="320.0" y="908.0" type="line"/>
      <point x="385.0" y="980.0"/>
      <point x="535.0" y="1050.0"/>
      <point x="647.0" y="1050.0" type="qcurve" smooth="yes"/>
      <point x="829.0" y="1050.0"/>
      <point x="988.0" y="845.0"/>
      <point x="988.0" y="667.0" type="qcurve" smooth="yes"/>
      <point x="988.0" y="45.0" type="line" smooth="yes"/>
      <point x="988.0" y="0.0"/>
      <point x="943.0" y="0.0" type="qcurve" smooth="yes"/>
      <point x="857.0" y="0.0" type="line" smooth="yes"/>
      <point x="812.0" y="0.0"/>
      <point x="812.0" y="45.0" type="qcurve" smooth="yes"/>
      <point x="812.0" y="619.0" type="line" smooth="yes"/>
      <point x="812.0" y="815.0"/>
      <point x="682.0" y="920.0"/>
      <point x="582.0" y="920.0" type="qcurve" smooth="yes"/>
      <point x="452.0" y="920.0"/>
      <point x="318.0" y="765.0"/>
      <point x="318.0" y="577.0" type="qcurve" smooth="yes"/>
      <point x="318.0" y="45.0" type="line" smooth="yes"/>
      <point x="318.0" y="0.0"/>
      <point x="273.0" y="0.0" type="qcurve" smooth="yes"/>
    </contour>
  </outline>
</glyph>
<glyph name="uni0267" format="2">
  <advance width="1128"/>
  <unicode hex="0267"/>
  <outline>
    <contour>
      <point x="187.0" y="0.0" type="line" smooth="yes"/>
      <point x="142.0" y="0.0"/>
      <point x="142.0" y="45.0" type="qcurve" smooth="yes"/>
      <point x="142.0" y="1051.0" type="line" smooth="yes"/>
      <point x="142.0" y="1260.0"/>
      <point x="345.0" y="1493.0"/>
      <point x="560.0" y="1493.0" type="qcurve" smooth="yes"/>
      <point x="714.0" y="1493.0"/>
      <point x="889.0" y="1414.0"/>
      <point x="926.0" y="1370.0" type="qcurve" smooth="yes"/>
      <point x="953.0" y="1337.0"/>
      <point x="929.0" y="1314.0" type="qcurve" smooth="yes"/>
      <point x="874.0" y="1260.0" type="line" smooth="yes"/>
      <point x="853.0" y="1239.0"/>
      <point x="824.0" y="1264.0" type="qcurve" smooth="yes"/>
      <point x="765.0" y="1314.0"/>
      <point x="656.0" y="1363.0"/>
      <point x="559.0" y="1363.0" type="qcurve" smooth="yes"/>
      <point x="441.0" y="1363.0"/>
      <point x="318.0" y="1227.0"/>
      <point x="318.0" y="1025.0" type="qcurve" smooth="yes"/>
      <point x="318.0" y="968.0" type="line" smooth="yes"/>
      <point x="318.0" y="938.0"/>
      <point x="316.0" y="908.0" type="qcurve"/>
      <point x="320.0" y="908.0" type="line"/>
      <point x="385.0" y="980.0"/>
      <point x="535.0" y="1050.0"/>
      <point x="647.0" y="1050.0" type="qcurve" smooth="yes"/>
      <point x="829.0" y="1050.0"/>
      <point x="988.0" y="845.0"/>
      <point x="988.0" y="667.0" type="qcurve" smooth="yes"/>
      <point x="988.0" y="-93.0" type="line" smooth="yes"/>
      <point x="988.0" y="-287.0"/>
      <point x="841.0" y="-417.0"/>
      <point x="732.0" y="-417.0" type="qcurve" smooth="yes"/>
      <point x="626.0" y="-417.0"/>
      <point x="580.0" y="-397.0" type="qcurve" smooth="yes"/>
      <point x="558.0" y="-387.0"/>
      <point x="562.0" y="-365.0" type="qcurve" smooth="yes"/>
      <point x="579.0" y="-284.0" type="line" smooth="yes"/>
      <point x="584.0" y="-260.0"/>
      <point x="604.0" y="-269.0" type="qcurve" smooth="yes"/>
      <point x="643.0" y="-287.0"/>
      <point x="700.0" y="-287.0" type="qcurve" smooth="yes"/>
      <point x="759.0" y="-287.0"/>
      <point x="812.0" y="-171.0"/>
      <point x="812.0" y="6.0" type="qcurve" smooth="yes"/>
      <point x="812.0" y="619.0" type="line" smooth="yes"/>
      <point x="812.0" y="815.0"/>
      <point x="682.0" y="920.0"/>
      <point x="582.0" y="920.0" type="qcurve" smooth="yes"/>
      <point x="452.0" y="920.0"/>
      <point x="318.0" y="765.0"/>
      <point x="318.0" y="577.0" type="qcurve" smooth="yes"/>
      <point x="318.0" y="45.0" type="line" smooth="yes"/>
      <point x="318.0" y="0.0"/>
      <point x="273.0" y="0.0" type="qcurve" smooth="yes"/>
    </contour>
  </outline>
</glyph>
<glyph name="uni026C" format="2">
  <advance width="834"/>
  <unicode hex="026C"/>
  <outline>
    <contour>
      <point x="40.0" y="757.0" type="qcurve" smooth="yes"/>
      <point x="40.0" y="884.0"/>
      <point x="212.0" y="1016.0"/>
      <point x="318.0" y="1016.0" type="qcurve"/>
      <point x="318.0" y="1293.0" type="line" smooth="yes"/>
      <point x="318.0" y="1313.0"/>
      <point x="328.0" y="1331.0" type="qcurve" smooth="yes"/>
      <point x="398.0" y="1458.0" type="line" smooth="yes"/>
      <point x="417.0" y="1493.0"/>
      <point x="429.0" y="1493.0" type="qcurve" smooth="yes"/>
      <point x="464.0" y="1493.0" type="line" smooth="yes"/>
      <point x="494.0" y="1493.0"/>
      <point x="494.0" y="1458.0" type="qcurve" smooth="yes"/>
      <point x="494.0" y="620.0" type="line"/>
      <point x="566.0" y="624.0"/>
      <point x="672.0" y="664.0"/>
      <point x="713.0" y="694.0" type="qcurve" smooth="yes"/>
      <point x="742.0" y="716.0"/>
      <point x="764.0" y="683.0" type="qcurve" smooth="yes"/>
      <point x="798.0" y="632.0" type="line" smooth="yes"/>
      <point x="817.0" y="603.0"/>
      <point x="778.0" y="579.0" type="qcurve" smooth="yes"/>
      <point x="722.0" y="544.0"/>
      <point x="592.0" y="500.0"/>
      <point x="494.0" y="490.0" type="qcurve"/>
      <point x="494.0" y="45.0" type="line" smooth="yes"/>
      <point x="494.0" y="0.0"/>
      <point x="449.0" y="0.0" type="qcurve" smooth="yes"/>
      <point x="363.0" y="0.0" type="line" smooth="yes"/>
      <point x="318.0" y="0.0"/>
      <point x="318.0" y="45.0" type="qcurve" smooth="yes"/>
      <point x="318.0" y="490.0" type="line"/>
      <point x="194.0" y="500.0"/>
      <point x="40.0" y="636.0"/>
    </contour>
    <contour>
      <point x="193.0" y="756.0" type="qcurve" smooth="yes"/>
      <point x="193.0" y="680.0"/>
      <point x="270.0" y="628.0"/>
      <point x="318.0" y="620.0" type="qcurve"/>
      <point x="318.0" y="886.0" type="line"/>
      <point x="254.0" y="886.0"/>
      <point x="193.0" y="812.0"/>
    </contour>
  </outline>
</glyph>
<glyph name="uni0273" format="2">
  <advance width="1138"/>
  <unicode hex="0273"/>
  <outline>
    <contour>
      <point x="187.0" y="0.0" type="line" smooth="yes"/>
      <point x="142.0" y="0.0"/>
      <point x="142.0" y="45.0" type="qcurve" smooth="yes"/>
      <point x="142.0" y="1005.0" type="line" smooth="yes"/>
      <point x="142.0" y="1050.0"/>
      <point x="187.0" y="1050.0" type="qcurve" smooth="yes"/>
      <point x="271.0" y="1050.0" type="line" smooth="yes"/>
      <point x="316.0" y="1050.0"/>
      <point x="316.0" y="1005.0" type="qcurve" smooth="yes"/>
      <point x="316.0" y="925.0" type="line"/>
      <point x="320.0" y="925.0" type="line"/>
      <point x="385.0" y="997.0"/>
      <point x="535.0" y="1067.0"/>
      <point x="647.0" y="1067.0" type="qcurve" smooth="yes"/>
      <point x="829.0" y="1067.0"/>
      <point x="988.0" y="862.0"/>
      <point x="988.0" y="684.0" type="qcurve" smooth="yes"/>
      <point x="988.0" y="6.0" type="line" smooth="yes"/>
      <point x="988.0" y="-171.0"/>
      <point x="1041.0" y="-287.0"/>
      <point x="1100.0" y="-287.0" type="qcurve" smooth="yes"/>
      <point x="1157.0" y="-287.0"/>
      <point x="1196.0" y="-269.0" type="qcurve" smooth="yes"/>
      <point x="1216.0" y="-260.0"/>
      <point x="1221.0" y="-284.0" type="qcurve" smooth="yes"/>
      <point x="1238.0" y="-365.0" type="line" smooth="yes"/>
      <point x="1242.0" y="-387.0"/>
      <point x="1220.0" y="-397.0" type="qcurve" smooth="yes"/>
      <point x="1174.0" y="-417.0"/>
      <point x="1068.0" y="-417.0" type="qcurve" smooth="yes"/>
      <point x="959.0" y="-417.0"/>
      <point x="812.0" y="-287.0"/>
      <point x="812.0" y="-93.0" type="qcurve" smooth="yes"/>
      <point x="812.0" y="636.0" type="line" smooth="yes"/>
      <point x="812.0" y="832.0"/>
      <point x="682.0" y="937.0"/>
      <point x="582.0" y="937.0" type="qcurve" smooth="yes"/>
      <point x="452.0" y="937.0"/>
      <point x="318.0" y="782.0"/>
      <point x="318.0" y="594.0" type="qcurve" smooth="yes"/>
      <point x="318.0" y="45.0" type="line" smooth="yes"/>
      <point x="318.0" y="0.0"/>
      <point x="273.0" y="0.0" type="qcurve" smooth="yes"/>
    </contour>
  </outline>
</glyph>
<glyph name="uni0274" format="2">
  <advance width="1190"/>
  <unicode hex="0274"/>
  <outline>
    <contour>
      <point x="187.0" y="0.0" type="line" smooth="yes"/>
      <point x="142.0" y="0.0"/>
      <point x="142.0" y="45.0" type="qcurve" smooth="yes"/>
      <point x="142.0" y="1005.0" type="line" smooth="yes"/>
      <point x="142.0" y="1050.0"/>
      <point x="187.0" y="1050.0" type="qcurve" smooth="yes"/>
      <point x="312.0" y="1050.0" type="line" smooth="yes"/>
      <point x="366.0" y="1050.0"/>
      <point x="398.0" y="1001.0" type="qcurve" smooth="yes"/>
      <point x="872.0" y="286.0" type="line"/>
      <point x="874.0" y="286.0" type="line"/>
      <point x="872.0" y="316.0"/>
      <point x="872.0" y="346.0" type="qcurve" smooth="yes"/>
      <point x="872.0" y="1005.0" type="line" smooth="yes"/>
      <point x="872.0" y="1050.0"/>
      <point x="917.0" y="1050.0" type="qcurve" smooth="yes"/>
      <point x="1003.0" y="1050.0" type="line" smooth="yes"/>
      <point x="1048.0" y="1050.0"/>
      <point x="1048.0" y="1005.0" type="qcurve" smooth="yes"/>
      <point x="1048.0" y="45.0" type="line" smooth="yes"/>
      <point x="1048.0" y="0.0"/>
      <point x="1003.0" y="0.0" type="qcurve" smooth="yes"/>
      <point x="912.0" y="0.0" type="line" smooth="yes"/>
      <point x="859.0" y="0.0"/>
      <point x="826.0" y="49.0" type="qcurve" smooth="yes"/>
      <point x="318.0" y="812.0" type="line"/>
      <point x="316.0" y="812.0" type="line"/>
      <point x="318.0" y="782.0"/>
      <point x="318.0" y="752.0" type="qcurve" smooth="yes"/>
      <point x="318.0" y="45.0" type="line" smooth="yes"/>
      <point x="318.0" y="0.0"/>
      <point x="273.0" y="0.0" type="qcurve" smooth="yes"/>
    </contour>
  </outline>
</glyph>
<glyph name="uni0278" format="2">
  <advance width="1286"/>
  <unicode hex="0278"/>
  <outline>
    <contour>
      <point x="85.0" y="525.0" type="qcurve" smooth="yes"/>
      <point x="85.0" y="750.0"/>
      <point x="315.0" y="1063.0"/>
      <point x="555.0" y="1063.0" type="qcurve"/>
      <point x="555.0" y="1395.0" type="line" smooth="yes"/>
      <point x="555.0" y="1440.0"/>
      <point x="600.0" y="1440.0" type="qcurve" smooth="yes"/>
      <point x="686.0" y="1440.0" type="line" smooth="yes"/>
      <point x="731.0" y="1440.0"/>
      <point x="731.0" y="1395.0" type="qcurve" smooth="yes"/>
      <point x="731.0" y="1063.0" type="line"/>
      <point x="971.0" y="1063.0"/>
      <point x="1201.0" y="750.0"/>
      <point x="1201.0" y="525.0" type="qcurve" smooth="yes"/>
      <point x="1201.0" y="300.0"/>
      <point x="971.0" y="-13.0"/>
      <point x="731.0" y="-13.0" type="qcurve"/>
      <point x="731.0" y="-355.0" type="line" smooth="yes"/>
      <point x="731.0" y="-400.0"/>
      <point x="686.0" y="-400.0" type="qcurve" smooth="yes"/>
      <point x="600.0" y="-400.0" type="line" smooth="yes"/>
      <point x="555.0" y="-400.0"/>
      <point x="555.0" y="-355.0" type="qcurve" smooth="yes"/>
      <point x="555.0" y="-13.0" type="line"/>
      <point x="315.0" y="-13.0"/>
      <point x="85.0" y="300.0"/>
    </contour>
    <contour>
      <point x="271.0" y="525.0" type="qcurve" smooth="yes"/>
      <point x="271.0" y="310.0"/>
      <point x="410.0" y="117.0"/>
      <point x="555.0" y="117.0" type="qcurve"/>
      <point x="555.0" y="933.0" type="line"/>
      <point x="410.0" y="933.0"/>
      <point x="271.0" y="740.0"/>
    </contour>
    <contour>
      <point x="731.0" y="117.0" type="line"/>
      <point x="876.0" y="117.0"/>
      <point x="1015.0" y="310.0"/>
      <point x="1015.0" y="525.0" type="qcurve" smooth="yes"/>
      <point x="1015.0" y="740.0"/>
      <point x="876.0" y="933.0"/>
      <point x="731.0" y="933.0" type="qcurve"/>
    </contour>
  </outline>
</glyph>
<glyph name="uni027D" format="2">
  <advance width="722"/>
  <unicode hex="027D"/>
  <outline>
    <contour>
      <point x="142.0" y="-93.0" type="qcurve" smooth="yes"/>
      <point x="142.0" y="1005.0" type="line" smooth="yes"/>
      <point x="142.0" y="1050.0"/>
      <point x="187.0" y="1050.0" type="qcurve" smooth="yes"/>
      <point x="271.0" y="1050.0" type="line" smooth="yes"/>
      <point x="316.0" y="1050.0"/>
      <point x="316.0" y="1005.0" type="qcurve" smooth="yes"/>
      <point x="316.0" y="885.0" type="line"/>
      <point x="320.0" y="885.0" type="line"/>
      <point x="368.0" y="975.0"/>
      <point x="498.0" y="1067.0"/>
      <point x="595.0" y="1067.0" type="qcurve" smooth="yes"/>
      <point x="659.0" y="1067.0"/>
      <point x="685.0" y="1056.0" type="qcurve" smooth="yes"/>
      <point x="708.0" y="1047.0"/>
      <point x="702.0" y="1026.0" type="qcurve" smooth="yes"/>
      <point x="679.0" y="944.0" type="line" smooth="yes"/>
      <point x="674.0" y="926.0"/>
      <point x="653.0" y="930.0" type="qcurve" smooth="yes"/>
      <point x="618.0" y="937.0"/>
      <point x="587.0" y="937.0" type="qcurve" smooth="yes"/>
      <point x="470.0" y="937.0"/>
      <point x="318.0" y="726.0"/>
      <point x="318.0" y="544.0" type="qcurve" smooth="yes"/>
      <point x="318.0" y="6.0" type="line" smooth="yes"/>
      <point x="318.0" y="-171.0"/>
      <point x="371.0" y="-287.0"/>
      <point x="430.0" y="-287.0" type="qcurve" smooth="yes"/>
      <point x="487.0" y="-287.0"/>
      <point x="526.0" y="-269.0" type="qcurve" smooth="yes"/>
      <point x="546.0" y="-260.0"/>
      <point x="551.0" y="-284.0" type="qcurve" smooth="yes"/>
      <point x="568.0" y="-365.0" type="line" smooth="yes"/>
      <point x="572.0" y="-387.0"/>
      <point x="550.0" y="-397.0" type="qcurve" smooth="yes"/>
      <point x="504.0" y="-417.0"/>
      <point x="398.0" y="-417.0" type="qcurve" smooth="yes"/>
      <point x="289.0" y="-417.0"/>
      <point x="142.0" y="-287.0"/>
    </contour>
  </outline>
</glyph>
<glyph name="uni027F" format="2">
  <advance width="722"/>
  <unicode hex="027F"/>
  <outline>
    <contour>
      <point x="20.0" y="1026.0" type="line" smooth="yes"/>
      <point x="14.0" y="1047.0"/>
      <point x="37.0" y="1056.0" type="qcurve" smooth="yes"/>
      <point x="63.0" y="1067.0"/>
      <point x="127.0" y="1067.0" type="qcurve" smooth="yes"/>
      <point x="356.0" y="1067.0"/>
      <point x="580.0" y="765.0"/>
      <point x="580.0" y="545.0" type="qcurve" smooth="yes"/>
      <point x="580.0" y="-355.0" type="line" smooth="yes"/>
      <point x="580.0" y="-400.0"/>
      <point x="535.0" y="-400.0" type="qcurve" smooth="yes"/>
      <point x="449.0" y="-400.0" type="line" smooth="yes"/>
      <point x="404.0" y="-400.0"/>
      <point x="404.0" y="-355.0" type="qcurve" smooth="yes"/>
      <point x="404.0" y="519.0" type="line" smooth="yes"/>
      <point x="404.0" y="723.0"/>
      <point x="252.0" y="937.0"/>
      <point x="135.0" y="937.0" type="qcurve" smooth="yes"/>
      <point x="104.0" y="937.0"/>
      <point x="69.0" y="930.0" type="qcurve" smooth="yes"/>
      <point x="48.0" y="926.0"/>
      <point x="43.0" y="944.0" type="qcurve" smooth="yes"/>
    </contour>
  </outline>
</glyph>
<glyph name="uni0280" format="2">
  <advance width="1114"/>
  <unicode hex="0280"/>
  <outline>
    <contour>
      <point x="187.0" y="0.0" type="line" smooth="yes"/>
      <point x="142.0" y="0.0"/>
      <point x="142.0" y="45.0" type="qcurve" smooth="yes"/>
      <point x="142.0" y="1005.0" type="line" smooth="yes"/>
      <point x="142.0" y="1050.0"/>
      <point x="187.0" y="1050.0" type="qcurve" smooth="yes"/>
      <point x="564.0" y="1050.0" type="line" smooth="yes"/>
      <point x="793.0" y="1050.0"/>
      <point x="986.0" y="910.0"/>
      <point x="986.0" y="761.0" type="qcurve" smooth="yes"/>
      <point x="986.0" y="634.0"/>
      <point x="837.0" y="482.0"/>
      <point x="664.0" y="462.0" type="qcurve"/>
      <point x="664.0" y="460.0" type="line"/>
      <point x="735.0" y="420.0"/>
      <point x="804.0" y="349.0"/>
      <point x="830.0" y="314.0" type="qcurve" smooth="yes"/>
      <point x="1019.0" y="59.0" type="line" smooth="yes"/>
      <point x="1063.0" y="0.0"/>
      <point x="993.0" y="0.0" type="qcurve" smooth="yes"/>
      <point x="883.0" y="0.0" type="line" smooth="yes"/>
      <point x="852.0" y="0.0"/>
      <point x="826.0" y="37.0" type="qcurve" smooth="yes"/>
      <point x="650.0" y="288.0" type="line" smooth="yes"/>
      <point x="596.0" y="365.0"/>
      <point x="510.0" y="432.0"/>
      <point x="442.0" y="432.0" type="qcurve" smooth="yes"/>
      <point x="318.0" y="432.0" type="line"/>
      <point x="318.0" y="45.0" type="line" smooth="yes"/>
      <point x="318.0" y="0.0"/>
      <point x="273.0" y="0.0" type="qcurve" smooth="yes"/>
    </contour>
    <contour>
      <point x="318.0" y="562.0" type="line"/>
      <point x="539.0" y="562.0" type="line" smooth="yes"/>
      <point x="645.0" y="562.0"/>
      <point x="800.0" y="640.0"/>
      <point x="800.0" y="761.0" type="qcurve" smooth="yes"/>
      <point x="800.0" y="852.0"/>
      <point x="676.0" y="919.0"/>
      <point x="538.0" y="919.0" type="qcurve" smooth="yes"/>
      <point x="318.0" y="919.0" type="line"/>
    </contour>
  </outline>
</glyph>
<glyph name="uni0288" format="2">
  <advance width="715"/>
  <unicode hex="0288"/>
  <outline>
    <contour>
      <point x="91.0" y="918.0" type="line" smooth="yes"/>
      <point x="46.0" y="918.0"/>
      <point x="46.0" y="953.0" type="qcurve" smooth="yes"/>
      <point x="46.0" y="1015.0" type="line" smooth="yes"/>
      <point x="46.0" y="1050.0"/>
      <point x="91.0" y="1050.0" type="qcurve" smooth="yes"/>
      <point x="209.0" y="1050.0" type="line"/>
      <point x="209.0" y="1140.0" type="line" smooth="yes"/>
      <point x="209.0" y="1160.0"/>
      <point x="219.0" y="1178.0" type="qcurve" smooth="yes"/>
      <point x="289.0" y="1305.0" type="line" smooth="yes"/>
      <point x="308.0" y="1340.0"/>
      <point x="320.0" y="1340.0" type="qcurve" smooth="yes"/>
      <point x="355.0" y="1340.0" type="line" smooth="yes"/>
      <point x="385.0" y="1340.0"/>
      <point x="385.0" y="1305.0" type="qcurve" smooth="yes"/>
      <point x="385.0" y="1050.0" type="line"/>
      <point x="598.0" y="1050.0" type="line" smooth="yes"/>
      <point x="643.0" y="1050.0"/>
      <point x="643.0" y="1015.0" type="qcurve" smooth="yes"/>
      <point x="643.0" y="953.0" type="line" smooth="yes"/>
      <point x="643.0" y="918.0"/>
      <point x="598.0" y="918.0" type="qcurve" smooth="yes"/>
      <point x="385.0" y="918.0" type="line"/>
      <point x="385.0" y="6.0" type="line" smooth="yes"/>
      <point x="385.0" y="-171.0"/>
      <point x="438.0" y="-287.0"/>
      <point x="497.0" y="-287.0" type="qcurve" smooth="yes"/>
      <point x="554.0" y="-287.0"/>
      <point x="593.0" y="-269.0" type="qcurve" smooth="yes"/>
      <point x="613.0" y="-260.0"/>
      <point x="618.0" y="-284.0" type="qcurve" smooth="yes"/>
      <point x="635.0" y="-365.0" type="line" smooth="yes"/>
      <point x="640.0" y="-387.0"/>
      <point x="617.0" y="-397.0" type="qcurve" smooth="yes"/>
      <point x="571.0" y="-417.0"/>
      <point x="465.0" y="-417.0" type="qcurve" smooth="yes"/>
      <point x="356.0" y="-417.0"/>
      <point x="209.0" y="-287.0"/>
      <point x="209.0" y="-93.0" type="qcurve" smooth="yes"/>
      <point x="209.0" y="918.0" type="line"/>
    </contour>
  </outline>
</glyph>
<glyph name="uni028A" format="2">
  <advance width="1196"/>
  <unicode hex="028A"/>
  <outline>
    <contour>
      <point x="125.0" y="920.0" type="line" smooth="yes"/>
      <point x="80.0" y="920.0"/>
      <point x="80.0" y="955.0" type="qcurve" smooth="yes"/>
      <point x="80.0" y="1015.0" type="line" smooth="yes"/>
      <point x="80.0" y="1050.0"/>
      <point x="125.0" y="1050.0" type="qcurve" smooth="yes"/>
      <point x="415.0" y="1050.0" type="line" smooth="yes"/>
      <point x="460.0" y="1050.0"/>
      <point x="460.0" y="1005.0" type="qcurve" smooth="yes"/>
      <point x="460.0" y="930.0" type="line"/>
      <point x="335.0" y="795.0"/>
      <point x="285.0" y="585.0"/>
      <point x="285.0" y="475.0" type="qcurve" smooth="yes"/>
      <point x="285.0" y="315.0"/>
      <point x="443.0" y="113.0"/>
      <point x="598.0" y="113.0" type="qcurve" smooth="yes"/>
      <point x="753.0" y="113.0"/>
      <point x="911.0" y="315.0"/>
      <point x="911.0" y="475.0" type="qcurve" smooth="yes"/>
      <point x="911.0" y="585.0"/>
      <point x="871.0" y="805.0"/>
      <point x="736.0" y="930.0" type="qcurve"/>
      <point x="736.0" y="1005.0" type="line" smooth="yes"/>
      <point x="736.0" y="1050.0"/>
      <point x="781.0" y="1050.0" type="qcurve" smooth="yes"/>
      <point x="1071.0" y="1050.0" type="line" smooth="yes"/>
      <point x="1116.0" y="1050.0"/>
      <point x="1116.0" y="1015.0" type="qcurve" smooth="yes"/>
      <point x="1116.0" y="955.0" type="line" smooth="yes"/>
      <point x="1116.0" y="920.0"/>
      <point x="1071.0" y="920.0" type="qcurve" smooth="yes"/>
      <point x="927.0" y="920.0" type="line"/>
      <point x="927.0" y="913.0" type="line"/>
      <point x="992.0" y="861.0"/>
      <point x="1097.0" y="621.0"/>
      <point x="1097.0" y="458.0" type="qcurve" smooth="yes"/>
      <point x="1097.0" y="294.0"/>
      <point x="863.0" y="-17.0"/>
      <point x="598.0" y="-17.0" type="qcurve" smooth="yes"/>
      <point x="333.0" y="-17.0"/>
      <point x="99.0" y="294.0"/>
      <point x="99.0" y="458.0" type="qcurve" smooth="yes"/>
      <point x="99.0" y="621.0"/>
      <point x="204.0" y="861.0"/>
      <point x="269.0" y="913.0" type="qcurve"/>
      <point x="269.0" y="920.0" type="line"/>
    </contour>
  </outline>
</glyph>
<glyph name="uni028C" format="2">
  <advance width="986"/>
  <unicode hex="028C"/>
  <outline>
    <contour>
      <point x="72.0" y="0.0" type="line" smooth="yes"/>
      <point x="28.0" y="0.0"/>
      <point x="45.0" y="49.0" type="qcurve" smooth="yes"/>
      <point x="373.0" y="989.0" type="line" smooth="yes"/>
      <point x="394.0" y="1050.0"/>
      <point x="427.0" y="1050.0" type="qcurve" smooth="yes"/>
      <point x="559.0" y="1050.0" type="line" smooth="yes"/>
      <point x="592.0" y="1050.0"/>
      <point x="613.0" y="989.0" type="qcurve" smooth="yes"/>
      <point x="941.0" y="49.0" type="line" smooth="yes"/>
      <point x="958.0" y="0.0"/>
      <point x="914.0" y="0.0" type="qcurve" smooth="yes"/>
      <point x="805.0" y="0.0" type="line" smooth="yes"/>
      <point x="773.0" y="0.0"/>
      <point x="760.0" y="39.0" type="qcurve" smooth="yes"/>
      <point x="548.0" y="699.0" type="line" smooth="yes"/>
      <point x="522.0" y="780.0"/>
      <point x="503.0" y="841.0"/>
      <point x="495.0" y="886.0" type="qcurve"/>
      <point x="491.0" y="886.0" type="line"/>
      <point x="483.0" y="841.0"/>
      <point x="464.0" y="780.0"/>
      <point x="438.0" y="699.0" type="qcurve" smooth="yes"/>
      <point x="226.0" y="39.0" type="line" smooth="yes"/>
      <point x="213.0" y="0.0"/>
      <point x="181.0" y="0.0" type="qcurve" smooth="yes"/>
    </contour>
  </outline>
</glyph>
<glyph name="uni0291" format="2">
  <advance width="1080"/>
  <unicode hex="0291"/>
  <outline>
    <contour>
      <point x="626.0" y="132.0" type="qcurve"/>
      <point x="729.0" y="132.0" type="line" smooth="yes"/>
      <point x="820.0" y="132.0"/>
      <point x="872.0" y="194.0"/>
      <point x="872.0" y="237.0" type="qcurve" smooth="yes"/>
      <point x="872.0" y="260.0"/>
      <point x="840.0" y="304.0"/>
      <point x="791.0" y="304.0" type="qcurve" smooth="yes"/>
      <point x="737.0" y="304.0"/>
      <point x="650.0" y="196.0"/>
    </contour>
    <contour>
      <point x="100.0" y="0.0" type="line" smooth="yes"/>
      <point x="55.0" y="0.0"/>
      <point x="55.0" y="35.0" type="qcurve" smooth="yes"/>
      <point x="55.0" y="86.0" type="line" smooth="yes"/>
      <point x="55.0" y="120.0"/>
      <point x="90.0" y="166.0" type="qcurve" smooth="yes"/>
      <point x="668.0" y="918.0" type="line"/>
      <point x="668.0" y="920.0" type="line"/>
      <point x="638.0" y="918.0"/>
      <point x="608.0" y="918.0" type="qcurve" smooth="yes"/>
      <point x="124.0" y="918.0" type="line" smooth="yes"/>
      <point x="79.0" y="918.0"/>
      <point x="79.0" y="953.0" type="qcurve" smooth="yes"/>
      <point x="79.0" y="1015.0" type="line" smooth="yes"/>
      <point x="79.0" y="1050.0"/>
      <point x="124.0" y="1050.0" type="qcurve" smooth="yes"/>
      <point x="826.0" y="1050.0" type="line" smooth="yes"/>
      <point x="871.0" y="1050.0"/>
      <point x="871.0" y="1015.0" type="qcurve" smooth="yes"/>
      <point x="871.0" y="968.0" type="line" smooth="yes"/>
      <point x="871.0" y="938.0"/>
      <point x="834.0" y="890.0" type="qcurve" smooth="yes"/>
      <point x="252.0" y="132.0" type="line"/>
      <point x="252.0" y="130.0" type="line"/>
      <point x="282.0" y="132.0"/>
      <point x="312.0" y="132.0" type="qcurve" smooth="yes"/>
      <point x="475.0" y="132.0" type="line"/>
      <point x="536.0" y="292.0"/>
      <point x="700.0" y="434.0"/>
      <point x="805.0" y="434.0" type="qcurve" smooth="yes"/>
      <point x="908.0" y="434.0"/>
      <point x="1026.0" y="324.0"/>
      <point x="1026.0" y="221.0" type="qcurve" smooth="yes"/>
      <point x="1026.0" y="130.0"/>
      <point x="914.0" y="0.0"/>
      <point x="688.0" y="0.0" type="qcurve" smooth="yes"/>
      <point x="587.0" y="0.0" type="line"/>
      <point x="552.0" y="-84.0"/>
      <point x="516.0" y="-226.0" type="qcurve" smooth="yes"/>
      <point x="506.0" y="-266.0"/>
      <point x="468.0" y="-257.0" type="qcurve" smooth="yes"/>
      <point x="392.0" y="-238.0" type="line" smooth="yes"/>
      <point x="362.0" y="-230.0"/>
      <point x="371.0" y="-183.0" type="qcurve" smooth="yes"/>
      <point x="390.0" y="-90.0"/>
      <point x="428.0" y="0.0" type="qcurve"/>
    </contour>
  </outline>
</glyph>
<glyph name="uni0293" format="2">
  <advance width="1010"/>
  <unicode hex="0293"/>
  <outline>
    <contour>
      <point x="67.0" y="-174.0" type="qcurve" smooth="yes"/>
      <point x="67.0" y="-69.0"/>
      <point x="267.0" y="66.0"/>
      <point x="441.0" y="66.0" type="qcurve" smooth="yes"/>
      <point x="518.0" y="66.0"/>
      <point x="650.0" y="40.0"/>
      <point x="696.0" y="22.0" type="qcurve"/>
      <point x="694.0" y="158.0"/>
      <point x="570.0" y="306.0"/>
      <point x="395.0" y="306.0" type="qcurve" smooth="yes"/>
      <point x="320.0" y="306.0" type="line" smooth="yes"/>
      <point x="275.0" y="306.0"/>
      <point x="275.0" y="341.0" type="qcurve" smooth="yes"/>
      <point x="275.0" y="392.0" type="line" smooth="yes"/>
      <point x="275.0" y="428.0"/>
      <point x="310.0" y="472.0" type="qcurve" smooth="yes"/>
      <point x="668.0" y="918.0" type="line"/>
      <point x="668.0" y="920.0" type="line"/>
      <point x="638.0" y="918.0"/>
      <point x="608.0" y="918.0" type="qcurve" smooth="yes"/>
      <point x="124.0" y="918.0" type="line" smooth="yes"/>
      <point x="79.0" y="918.0"/>
      <point x="79.0" y="953.0" type="qcurve" smooth="yes"/>
      <point x="79.0" y="1015.0" type="line" smooth="yes"/>
      <point x="79.0" y="1050.0"/>
      <point x="124.0" y="1050.0" type="qcurve" smooth="yes"/>
      <point x="826.0" y="1050.0" type="line" smooth="yes"/>
      <point x="871.0" y="1050.0"/>
      <point x="871.0" y="1015.0" type="qcurve" smooth="yes"/>
      <point x="871.0" y="968.0" type="line" smooth="yes"/>
      <point x="871.0" y="936.0"/>
      <point x="834.0" y="890.0" type="qcurve" smooth="yes"/>
      <point x="472.0" y="438.0" type="line"/>
      <point x="472.0" y="434.0" type="line"/>
      <point x="657.0" y="434.0"/>
      <point x="882.0" y="219.0"/>
      <point x="882.0" y="22.0" type="qcurve" smooth="yes"/>
      <point x="882.0" y="-30.0"/>
      <point x="876.0" y="-76.0" type="qcurve"/>
      <point x="921.0" y="-113.0"/>
      <point x="1016.0" y="-246.0"/>
      <point x="1039.0" y="-302.0" type="qcurve" smooth="yes"/>
      <point x="1058.0" y="-347.0"/>
      <point x="1034.0" y="-358.0" type="qcurve" smooth="yes"/>
      <point x="969.0" y="-387.0" type="line" smooth="yes"/>
      <point x="928.0" y="-405.0"/>
      <point x="915.0" y="-369.0" type="qcurve" smooth="yes"/>
      <point x="901.0" y="-329.0"/>
      <point x="853.0" y="-258.0"/>
      <point x="832.0" y="-232.0" type="qcurve"/>
      <point x="805.0" y="-297.0"/>
      <point x="610.0" y="-417.0"/>
      <point x="436.0" y="-417.0" type="qcurve" smooth="yes"/>
      <point x="339.0" y="-417.0"/>
      <point x="67.0" y="-339.0"/>
    </contour>
    <contour>
      <point x="224.0" y="-190.0" type="qcurve" smooth="yes"/>
      <point x="224.0" y="-244.0"/>
      <point x="372.0" y="-287.0"/>
      <point x="428.0" y="-287.0" type="qcurve" smooth="yes"/>
      <point x="562.0" y="-287.0"/>
      <point x="674.0" y="-182.0"/>
      <point x="681.0" y="-123.0" type="qcurve"/>
      <point x="653.0" y="-110.0"/>
      <point x="526.0" y="-75.0"/>
      <point x="435.0" y="-75.0" type="qcurve" smooth="yes"/>
      <point x="357.0" y="-75.0"/>
      <point x="224.0" y="-120.0"/>
    </contour>
  </outline>
</glyph>
<glyph name="uni0294" format="2">
  <advance width="995"/>
  <unicode hex="0294"/>
  <outline>
    <contour>
      <point x="108.0" y="1193.0" type="line" smooth="yes"/>
      <point x="77.0" y="1207.0"/>
      <point x="105.0" y="1279.0" type="qcurve" smooth="yes"/>
      <point x="132.0" y="1346.0"/>
      <point x="321.0" y="1493.0"/>
      <point x="485.0" y="1493.0" type="qcurve" smooth="yes"/>
      <point x="697.0" y="1493.0"/>
      <point x="897.0" y="1272.0"/>
      <point x="897.0" y="1098.0" type="qcurve" smooth="yes"/>
      <point x="897.0" y="948.0"/>
      <point x="569.0" y="549.0"/>
      <point x="569.0" y="398.0" type="qcurve" smooth="yes"/>
      <point x="569.0" y="45.0" type="line" smooth="yes"/>
      <point x="569.0" y="0.0"/>
      <point x="524.0" y="0.0" type="qcurve" smooth="yes"/>
      <point x="438.0" y="0.0" type="line" smooth="yes"/>
      <point x="393.0" y="0.0"/>
      <point x="393.0" y="45.0" type="qcurve" smooth="yes"/>
      <point x="393.0" y="432.0" type="line" smooth="yes"/>
      <point x="393.0" y="624.0"/>
      <point x="701.0" y="984.0"/>
      <point x="701.0" y="1104.0" type="qcurve" smooth="yes"/>
      <point x="701.0" y="1244.0"/>
      <point x="589.0" y="1343.0"/>
      <point x="492.0" y="1343.0" type="qcurve" smooth="yes"/>
      <point x="385.0" y="1343.0"/>
      <point x="276.0" y="1263.0"/>
      <point x="247.0" y="1194.0" type="qcurve" smooth="yes"/>
      <point x="224.0" y="1140.0"/>
      <point x="182.0" y="1159.0" type="qcurve" smooth="yes"/>
    </contour>
  </outline>
</glyph>
<glyph name="uni029B" format="2">
  <advance width="1226"/>
  <unicode hex="029B"/>
  <outline>
    <contour>
      <point x="85.0" y="525.0" type="qcurve" smooth="yes"/>
      <point x="85.0" y="760.0"/>
      <point x="318.0" y="1067.0"/>
      <point x="568.0" y="1067.0" type="qcurve" smooth="yes"/>
      <point x="715.0" y="1067.0"/>
      <point x="796.0" y="1017.0" type="qcurve"/>
      <point x="798.0" y="1017.0" type="line"/>
      <point x="796.0" y="1049.0"/>
      <point x="796.0" y="1078.0" type="qcurve" smooth="yes"/>
      <point x="796.0" y="1199.0" type="line" smooth="yes"/>
      <point x="796.0" y="1366.0"/>
      <point x="983.0" y="1493.0"/>
      <point x="1101.0" y="1493.0" type="qcurve" smooth="yes"/>
      <point x="1156.0" y="1493.0"/>
      <point x="1231.0" y="1476.0"/>
      <point x="1279.0" y="1452.0" type="qcurve" smooth="yes"/>
      <point x="1302.0" y="1441.0"/>
      <point x="1292.0" y="1420.0" type="qcurve" smooth="yes"/>
      <point x="1257.0" y="1346.0" type="line" smooth="yes"/>
      <point x="1243.0" y="1317.0"/>
      <point x="1222.0" y="1332.0" type="qcurve" smooth="yes"/>
      <point x="1204.0" y="1345.0"/>
      <point x="1153.0" y="1363.0"/>
      <point x="1118.0" y="1363.0" type="qcurve" smooth="yes"/>
      <point x="1061.0" y="1363.0"/>
      <point x="972.0" y="1283.0"/>
      <point x="972.0" y="1170.0" type="qcurve" smooth="yes"/>
      <point x="972.0" y="919.0" type="line" smooth="yes"/>
      <point x="972.0" y="881.0"/>
      <point x="952.0" y="865.0" type="qcurve" smooth="yes"/>
      <point x="889.0" y="815.0" type="line" smooth="yes"/>
      <point x="852.0" y="785.0"/>
      <point x="819.0" y="829.0" type="qcurve" smooth="yes"/>
      <point x="786.0" y="873.0"/>
      <point x="673.0" y="937.0"/>
      <point x="568.0" y="937.0" type="qcurve" smooth="yes"/>
      <point x="418.0" y="937.0"/>
      <point x="271.0" y="735.0"/>
      <point x="271.0" y="525.0" type="qcurve" smooth="yes"/>
      <point x="271.0" y="315.0"/>
      <point x="418.0" y="113.0"/>
      <point x="568.0" y="113.0" type="qcurve" smooth="yes"/>
      <point x="670.0" y="113.0"/>
      <point x="784.0" y="160.0"/>
      <point x="825.0" y="201.0" type="qcurve"/>
      <point x="825.0" y="372.0" type="line"/>
      <point x="613.0" y="372.0" type="line" smooth="yes"/>
      <point x="568.0" y="372.0"/>
      <point x="568.0" y="407.0" type="qcurve" smooth="yes"/>
      <point x="568.0" y="469.0" type="line" smooth="yes"/>
      <point x="568.0" y="504.0"/>
      <point x="613.0" y="504.0" type="qcurve" smooth="yes"/>
      <point x="956.0" y="504.0" type="line" smooth="yes"/>
      <point x="1001.0" y="504.0"/>
      <point x="1001.0" y="469.0" type="qcurve" smooth="yes"/>
      <point x="1001.0" y="144.0" type="line"/>
      <point x="900.0" y="62.0"/>
      <point x="730.0" y="-17.0"/>
      <point x="568.0" y="-17.0" type="qcurve" smooth="yes"/>
      <point x="318.0" y="-17.0"/>
      <point x="85.0" y="290.0"/>
    </contour>
  </outline>
</glyph>
<glyph name="uni02A3" format="2">
  <advance width="1862"/>
  <unicode hex="02A3"/>
  <outline>
    <contour>
      <point x="85.0" y="525.0" type="qcurve" smooth="yes"/>
      <point x="85.0" y="740.0"/>
      <point x="293.0" y="1067.0"/>
      <point x="493.0" y="1067.0" type="qcurve" smooth="yes"/>
      <point x="608.0" y="1067.0"/>
      <point x="746.0" y="991.0"/>
      <point x="801.0" y="925.0" type="qcurve"/>
      <point x="803.0" y="925.0" type="line"/>
      <point x="801.0" y="955.0"/>
      <point x="801.0" y="986.0" type="qcurve" smooth="yes"/>
      <point x="801.0" y="1431.0" type="line" smooth="yes"/>
      <point x="801.0" y="1476.0"/>
      <point x="846.0" y="1476.0" type="qcurve" smooth="yes"/>
      <point x="932.0" y="1476.0" type="line" smooth="yes"/>
      <point x="977.0" y="1476.0"/>
      <point x="977.0" y="1431.0" type="qcurve" smooth="yes"/>
      <point x="977.0" y="1050.0" type="line"/>
      <point x="1738.0" y="1050.0" type="line" smooth="yes"/>
      <point x="1783.0" y="1050.0"/>
      <point x="1783.0" y="1015.0" type="qcurve" smooth="yes"/>
      <point x="1783.0" y="968.0" type="line" smooth="yes"/>
      <point x="1783.0" y="938.0"/>
      <point x="1746.0" y="890.0" type="qcurve" smooth="yes"/>
      <point x="1164.0" y="132.0" type="line"/>
      <point x="1164.0" y="130.0" type="line"/>
      <point x="1194.0" y="132.0"/>
      <point x="1224.0" y="132.0" type="qcurve" smooth="yes"/>
      <point x="1762.0" y="132.0" type="line" smooth="yes"/>
      <point x="1807.0" y="132.0"/>
      <point x="1807.0" y="97.0" type="qcurve" smooth="yes"/>
      <point x="1807.0" y="35.0" type="line" smooth="yes"/>
      <point x="1807.0" y="0.0"/>
      <point x="1762.0" y="0.0" type="qcurve" smooth="yes"/>
      <point x="848.0" y="0.0" type="line" smooth="yes"/>
      <point x="812.0" y="0.0"/>
      <point x="809.0" y="45.0" type="qcurve" smooth="yes"/>
      <point x="803.0" y="125.0" type="line"/>
      <point x="801.0" y="125.0" type="line"/>
      <point x="746.0" y="59.0"/>
      <point x="608.0" y="-17.0"/>
      <point x="493.0" y="-17.0" type="qcurve" smooth="yes"/>
      <point x="293.0" y="-17.0"/>
      <point x="85.0" y="310.0"/>
    </contour>
    <contour>
      <point x="271.0" y="525.0" type="qcurve" smooth="yes"/>
      <point x="271.0" y="341.0"/>
      <point x="398.0" y="113.0"/>
      <point x="550.0" y="113.0" type="qcurve" smooth="yes"/>
      <point x="658.0" y="113.0"/>
      <point x="801.0" y="260.0"/>
      <point x="801.0" y="410.0" type="qcurve" smooth="yes"/>
      <point x="801.0" y="640.0" type="line" smooth="yes"/>
      <point x="801.0" y="790.0"/>
      <point x="658.0" y="937.0"/>
      <point x="550.0" y="937.0" type="qcurve" smooth="yes"/>
      <point x="398.0" y="937.0"/>
      <point x="271.0" y="709.0"/>
    </contour>
    <contour>
      <point x="977.0" y="136.0" type="line"/>
      <point x="979.0" y="136.0" type="line"/>
      <point x="1580.0" y="918.0" type="line"/>
      <point x="1580.0" y="920.0" type="line"/>
      <point x="1550.0" y="918.0"/>
      <point x="1520.0" y="918.0" type="qcurve" smooth="yes"/>
      <point x="977.0" y="918.0" type="line"/>
    </contour>
  </outline>
</glyph>
<glyph name="uni02A5" format="2">
  <advance width="1992"/>
  <unicode hex="02A5"/>
  <outline>
    <contour>
      <point x="977.0" y="136.0" type="line"/>
      <point x="979.0" y="136.0" type="line"/>
      <point x="1580.0" y="918.0" type="line"/>
      <point x="1580.0" y="920.0" type="line"/>
      <point x="1550.0" y="918.0"/>
      <point x="1520.0" y="918.0" type="qcurve" smooth="yes"/>
      <point x="977.0" y="918.0" type="line"/>
    </contour>
    <contour>
      <point x="271.0" y="525.0" type="qcurve" smooth="yes"/>
      <point x="271.0" y="341.0"/>
      <point x="398.0" y="113.0"/>
      <point x="550.0" y="113.0" type="qcurve" smooth="yes"/>
      <point x="658.0" y="113.0"/>
      <point x="801.0" y="260.0"/>
      <point x="801.0" y="410.0" type="qcurve" smooth="yes"/>
      <point x="801.0" y="640.0" type="line" smooth="yes"/>
      <point x="801.0" y="790.0"/>
      <point x="658.0" y="937.0"/>
      <point x="550.0" y="937.0" type="qcurve" smooth="yes"/>
      <point x="398.0" y="937.0"/>
      <point x="271.0" y="709.0"/>
    </contour>
    <contour>
      <point x="85.0" y="525.0" type="qcurve" smooth="yes"/>
      <point x="85.0" y="740.0"/>
      <point x="293.0" y="1067.0"/>
      <point x="493.0" y="1067.0" type="qcurve" smooth="yes"/>
      <point x="608.0" y="1067.0"/>
      <point x="746.0" y="991.0"/>
      <point x="801.0" y="925.0" type="qcurve"/>
      <point x="803.0" y="925.0" type="line"/>
      <point x="801.0" y="955.0"/>
      <point x="801.0" y="986.0" type="qcurve" smooth="yes"/>
      <point x="801.0" y="1431.0" type="line" smooth="yes"/>
      <point x="801.0" y="1476.0"/>
      <point x="846.0" y="1476.0" type="qcurve" smooth="yes"/>
      <point x="932.0" y="1476.0" type="line" smooth="yes"/>
      <point x="977.0" y="1476.0"/>
      <point x="977.0" y="1431.0" type="qcurve" smooth="yes"/>
      <point x="977.0" y="1050.0" type="line"/>
      <point x="1738.0" y="1050.0" type="line" smooth="yes"/>
      <point x="1783.0" y="1050.0"/>
      <point x="1783.0" y="1015.0" type="qcurve" smooth="yes"/>
      <point x="1783.0" y="968.0" type="line" smooth="yes"/>
      <point x="1783.0" y="938.0"/>
      <point x="1746.0" y="890.0" type="qcurve" smooth="yes"/>
      <point x="1164.0" y="132.0" type="line"/>
      <point x="1164.0" y="130.0" type="line"/>
      <point x="1194.0" y="132.0"/>
      <point x="1224.0" y="132.0" type="qcurve" smooth="yes"/>
      <point x="1387.0" y="132.0" type="line"/>
      <point x="1448.0" y="292.0"/>
      <point x="1612.0" y="434.0"/>
      <point x="1717.0" y="434.0" type="qcurve" smooth="yes"/>
      <point x="1820.0" y="434.0"/>
      <point x="1938.0" y="324.0"/>
      <point x="1938.0" y="221.0" type="qcurve" smooth="yes"/>
      <point x="1938.0" y="130.0"/>
      <point x="1826.0" y="0.0"/>
      <point x="1600.0" y="0.0" type="qcurve" smooth="yes"/>
      <point x="1499.0" y="0.0" type="line"/>
      <point x="1464.0" y="-84.0"/>
      <point x="1428.0" y="-226.0" type="qcurve" smooth="yes"/>
      <point x="1418.0" y="-266.0"/>
      <point x="1380.0" y="-257.0" type="qcurve" smooth="yes"/>
      <point x="1304.0" y="-238.0" type="line" smooth="yes"/>
      <point x="1274.0" y="-230.0"/>
      <point x="1283.0" y="-183.0" type="qcurve" smooth="yes"/>
      <point x="1302.0" y="-90.0"/>
      <point x="1340.0" y="0.0" type="qcurve"/>
      <point x="848.0" y="0.0" type="line" smooth="yes"/>
      <point x="812.0" y="0.0"/>
      <point x="809.0" y="45.0" type="qcurve" smooth="yes"/>
      <point x="803.0" y="125.0" type="line"/>
      <point x="801.0" y="125.0" type="line"/>
      <point x="746.0" y="59.0"/>
      <point x="608.0" y="-17.0"/>
      <point x="493.0" y="-17.0" type="qcurve" smooth="yes"/>
      <point x="293.0" y="-17.0"/>
      <point x="85.0" y="310.0"/>
    </contour>
    <contour>
      <point x="1538.0" y="132.0" type="qcurve"/>
      <point x="1641.0" y="132.0" type="line" smooth="yes"/>
      <point x="1732.0" y="132.0"/>
      <point x="1784.0" y="194.0"/>
      <point x="1784.0" y="237.0" type="qcurve" smooth="yes"/>
      <point x="1784.0" y="260.0"/>
      <point x="1752.0" y="304.0"/>
      <point x="1703.0" y="304.0" type="qcurve" smooth="yes"/>
      <point x="1649.0" y="304.0"/>
      <point x="1562.0" y="196.0"/>
    </contour>
  </outline>
</glyph>
<glyph name="uni02A8" format="2">
  <advance width="1526"/>
  <unicode hex="02A8"/>
  <outline>
    <contour>
      <point x="91.0" y="918.0" type="line" smooth="yes"/>
      <point x="46.0" y="918.0"/>
      <point x="46.0" y="953.0" type="qcurve" smooth="yes"/>
      <point x="46.0" y="1015.0" type="line" smooth="yes"/>
      <point x="46.0" y="1050.0"/>
      <point x="91.0" y="1050.0" type="qcurve" smooth="yes"/>
      <point x="209.0" y="1050.0" type="line"/>
      <point x="209.0" y="1140.0" type="line" smooth="yes"/>
      <point x="209.0" y="1160.0"/>
      <point x="219.0" y="1178.0" type="qcurve" smooth="yes"/>
      <point x="289.0" y="1305.0" type="line" smooth="yes"/>
      <point x="308.0" y="1340.0"/>
      <point x="320.0" y="1340.0" type="qcurve" smooth="yes"/>
      <point x="355.0" y="1340.0" type="line" smooth="yes"/>
      <point x="385.0" y="1340.0"/>
      <point x="385.0" y="1305.0" type="qcurve" smooth="yes"/>
      <point x="385.0" y="1050.0" type="line"/>
      <point x="598.0" y="1050.0" type="line" smooth="yes"/>
      <point x="643.0" y="1050.0"/>
      <point x="643.0" y="1015.0" type="qcurve" smooth="yes"/>
      <point x="643.0" y="953.0" type="line" smooth="yes"/>
      <point x="643.0" y="918.0"/>
      <point x="598.0" y="918.0" type="qcurve" smooth="yes"/>
      <point x="385.0" y="918.0" type="line"/>
      <point x="385.0" y="281.0" type="line" smooth="yes"/>
      <point x="385.0" y="176.0"/>
      <point x="448.0" y="113.0"/>
      <point x="492.0" y="113.0" type="qcurve" smooth="yes"/>
      <point x="537.0" y="113.0"/>
      <point x="646.0" y="161.0"/>
      <point x="676.0" y="181.0" type="qcurve"/>
      <point x="634.0" y="240.0"/>
      <point x="586.0" y="411.0"/>
      <point x="586.0" y="525.0" type="qcurve" smooth="yes"/>
      <point x="586.0" y="760.0"/>
      <point x="818.0" y="1067.0"/>
      <point x="1058.0" y="1067.0" type="qcurve" smooth="yes"/>
      <point x="1220.0" y="1067.0"/>
      <point x="1390.0" y="953.0"/>
      <point x="1429.0" y="892.0" type="qcurve" smooth="yes"/>
      <point x="1450.0" y="859.0"/>
      <point x="1420.0" y="839.0" type="qcurve" smooth="yes"/>
      <point x="1357.0" y="798.0" type="line" smooth="yes"/>
      <point x="1327.0" y="778.0"/>
      <point x="1297.0" y="825.0" type="qcurve" smooth="yes"/>
      <point x="1268.0" y="871.0"/>
      <point x="1163.0" y="937.0"/>
      <point x="1058.0" y="937.0" type="qcurve" smooth="yes"/>
      <point x="921.0" y="937.0"/>
      <point x="771.0" y="735.0"/>
      <point x="771.0" y="525.0" type="qcurve" smooth="yes"/>
      <point x="771.0" y="386.0"/>
      <point x="794.0" y="299.0"/>
      <point x="811.0" y="268.0" type="qcurve"/>
      <point x="858.0" y="308.0"/>
      <point x="1060.0" y="434.0"/>
      <point x="1172.0" y="434.0" type="qcurve" smooth="yes"/>
      <point x="1302.0" y="434.0"/>
      <point x="1450.0" y="332.0"/>
      <point x="1450.0" y="233.0" type="qcurve" smooth="yes"/>
      <point x="1450.0" y="140.0"/>
      <point x="1256.0" y="-17.0"/>
      <point x="1058.0" y="-17.0" type="qcurve" smooth="yes"/>
      <point x="953.0" y="-17.0"/>
      <point x="816.0" y="31.0"/>
      <point x="764.0" y="73.0" type="qcurve"/>
      <point x="704.0" y="37.0"/>
      <point x="561.0" y="-17.0"/>
      <point x="455.0" y="-17.0" type="qcurve" smooth="yes"/>
      <point x="327.0" y="-17.0"/>
      <point x="209.0" y="133.0"/>
      <point x="209.0" y="270.0" type="qcurve" smooth="yes"/>
      <point x="209.0" y="918.0" type="line"/>
    </contour>
    <contour>
      <point x="895.0" y="162.0" type="qcurve"/>
      <point x="956.0" y="113.0"/>
      <point x="1058.0" y="113.0" type="qcurve" smooth="yes"/>
      <point x="1186.0" y="113.0"/>
      <point x="1296.0" y="202.0"/>
      <point x="1296.0" y="236.0" type="qcurve" smooth="yes"/>
      <point x="1296.0" y="274.0"/>
      <point x="1230.0" y="304.0"/>
      <point x="1163.0" y="304.0" type="qcurve" smooth="yes"/>
      <point x="1096.0" y="304.0"/>
      <point x="956.0" y="219.0"/>
    </contour>
  </outline>
</glyph>
<glyph name="uni02AD" format="2">
  <advance width="1032"/>
  <unicode hex="02AD"/>
  <outline>
    <contour>
      <point x="161.0" y="0.0" type="line" smooth="yes"/>
      <point x="116.0" y="0.0"/>
      <point x="116.0" y="45.0" type="qcurve" smooth="yes"/>
      <point x="116.0" y="455.0" type="line" smooth="yes"/>
      <point x="116.0" y="500.0"/>
      <point x="161.0" y="500.0" type="qcurve" smooth="yes"/>
      <point x="871.0" y="500.0" type="line" smooth="yes"/>
      <point x="916.0" y="500.0"/>
      <point x="916.0" y="455.0" type="qcurve" smooth="yes"/>
      <point x="916.0" y="45.0" type="line" smooth="yes"/>
      <point x="916.0" y="0.0"/>
      <point x="871.0" y="0.0" type="qcurve" smooth="yes"/>
      <point x="795.0" y="0.0" type="line" smooth="yes"/>
      <point x="750.0" y="0.0"/>
      <point x="750.0" y="45.0" type="qcurve" smooth="yes"/>
      <point x="750.0" y="351.0" type="line"/>
      <point x="282.0" y="351.0" type="line"/>
      <point x="282.0" y="45.0" type="line" smooth="yes"/>
      <point x="282.0" y="0.0"/>
      <point x="237.0" y="0.0" type="qcurve" smooth="yes"/>
    </contour>
    <contour>
      <point x="161.0" y="934.0" type="line" smooth="yes"/>
      <point x="116.0" y="934.0"/>
      <point x="116.0" y="979.0" type="qcurve" smooth="yes"/>
      <point x="116.0" y="1389.0" type="line" smooth="yes"/>
      <point x="116.0" y="1434.0"/>
      <point x="161.0" y="1434.0" type="qcurve" smooth="yes"/>
      <point x="871.0" y="1434.0" type="line" smooth="yes"/>
      <point x="916.0" y="1434.0"/>
      <point x="916.0" y="1389.0" type="qcurve" smooth="yes"/>
      <point x="916.0" y="979.0" type="line" smooth="yes"/>
      <point x="916.0" y="934.0"/>
      <point x="871.0" y="934.0" type="qcurve" smooth="yes"/>
      <point x="795.0" y="934.0" type="line" smooth="yes"/>
      <point x="750.0" y="934.0"/>
      <point x="750.0" y="979.0" type="qcurve" smooth="yes"/>
      <point x="750.0" y="1285.0" type="line"/>
      <point x="282.0" y="1285.0" type="line"/>
      <point x="282.0" y="979.0" type="line" smooth="yes"/>
      <point x="282.0" y="934.0"/>
      <point x="237.0" y="934.0" type="qcurve" smooth="yes"/>
    </contour>
  </outline>
</glyph>
<glyph name="uni02AE" format="2">
  <advance width="1259"/>
  <unicode hex="02AE"/>
  <outline>
    <contour>
      <point x="-83.0" y="1019.0" type="line" smooth="yes"/>
      <point x="-90.0" y="1040.0"/>
      <point x="-66.0" y="1049.0" type="qcurve" smooth="yes"/>
      <point x="-17.0" y="1067.0"/>
      <point x="40.0" y="1067.0" type="qcurve" smooth="yes"/>
      <point x="261.0" y="1067.0"/>
      <point x="447.0" y="824.0"/>
      <point x="447.0" y="559.0" type="qcurve" smooth="yes"/>
      <point x="447.0" y="414.0" type="line" smooth="yes"/>
      <point x="447.0" y="218.0"/>
      <point x="577.0" y="113.0"/>
      <point x="692.0" y="113.0" type="qcurve" smooth="yes"/>
      <point x="807.0" y="113.0"/>
      <point x="941.0" y="268.0"/>
      <point x="941.0" y="456.0" type="qcurve" smooth="yes"/>
      <point x="941.0" y="1005.0" type="line" smooth="yes"/>
      <point x="941.0" y="1050.0"/>
      <point x="986.0" y="1050.0" type="qcurve" smooth="yes"/>
      <point x="1072.0" y="1050.0" type="line" smooth="yes"/>
      <point x="1117.0" y="1050.0"/>
      <point x="1117.0" y="1005.0" type="qcurve" smooth="yes"/>
      <point x="1117.0" y="-355.0" type="line" smooth="yes"/>
      <point x="1117.0" y="-400.0"/>
      <point x="1072.0" y="-400.0" type="qcurve" smooth="yes"/>
      <point x="986.0" y="-400.0" type="line" smooth="yes"/>
      <point x="941.0" y="-400.0"/>
      <point x="941.0" y="-355.0" type="qcurve" smooth="yes"/>
      <point x="941.0" y="65.0" type="line" smooth="yes"/>
      <point x="941.0" y="95.0"/>
      <point x="943.0" y="125.0" type="qcurve"/>
      <point x="939.0" y="125.0" type="line"/>
      <point x="874.0" y="53.0"/>
      <point x="724.0" y="-17.0"/>
      <point x="612.0" y="-17.0" type="qcurve" smooth="yes"/>
      <point x="430.0" y="-17.0"/>
      <point x="271.0" y="188.0"/>
      <point x="271.0" y="366.0" type="qcurve" smooth="yes"/>
      <point x="271.0" y="539.0" type="line" smooth="yes"/>
      <point x="271.0" y="768.0"/>
      <point x="163.0" y="937.0"/>
      <point x="44.0" y="937.0" type="qcurve" smooth="yes"/>
      <point x="9.0" y="937.0"/>
      <point x="-31.0" y="925.0" type="qcurve" smooth="yes"/>
      <point x="-51.0" y="919.0"/>
      <point x="-57.0" y="939.0" type="qcurve" smooth="yes"/>
    </contour>
  </outline>
</glyph>
<glyph name="caron" format="2">
  <advance width="614"/>
  <unicode hex="02C7"/>
  <outline>
    <contour>
      <point x="20.0" y="1335.0" type="line" smooth="yes"/>
      <point x="-15.0" y="1364.0"/>
      <point x="8.0" y="1390.0" type="qcurve" smooth="yes"/>
      <point x="35.0" y="1421.0" type="line" smooth="yes"/>
      <point x="58.0" y="1447.0"/>
      <point x="92.0" y="1419.0" type="qcurve" smooth="yes"/>
      <point x="306.0" y="1240.0" type="line"/>
      <point x="308.0" y="1240.0" type="line"/>
      <point x="522.0" y="1419.0" type="line" smooth="yes"/>
      <point x="556.0" y="1447.0"/>
      <point x="579.0" y="1421.0" type="qcurve" smooth="yes"/>
      <point x="606.0" y="1390.0" type="line" smooth="yes"/>
      <point x="629.0" y="1364.0"/>
      <point x="594.0" y="1335.0" type="qcurve" smooth="yes"/>
      <point x="388.0" y="1164.0" type="line" smooth="yes"/>
      <point x="357.0" y="1138.0"/>
      <point x="332.0" y="1138.0" type="qcurve" smooth="yes"/>
      <point x="282.0" y="1138.0" type="line" smooth="yes"/>
      <point x="257.0" y="1138.0"/>
      <point x="226.0" y="1164.0" type="qcurve" smooth="yes"/>
    </contour>
  </outline>
</glyph>
<glyph name="uni02D2" format="2">
  <advance width="614"/>
  <unicode hex="02D2"/>
  <outline>
    <contour>
      <point x="220.0" y="279.0" type="qcurve" smooth="yes"/>
      <point x="190.0" y="279.0"/>
      <point x="190.0" y="309.0" type="qcurve" smooth="yes"/>
      <point x="190.0" y="347.0" type="line" smooth="yes"/>
      <point x="190.0" y="377.0"/>
      <point x="220.0" y="377.0" type="qcurve" smooth="yes"/>
      <point x="292.0" y="377.0"/>
      <point x="390.0" y="477.0"/>
      <point x="390.0" y="549.0" type="qcurve" smooth="yes"/>
      <point x="390.0" y="621.0"/>
      <point x="292.0" y="721.0"/>
      <point x="220.0" y="721.0" type="qcurve" smooth="yes"/>
      <point x="190.0" y="721.0"/>
      <point x="190.0" y="751.0" type="qcurve" smooth="yes"/>
      <point x="190.0" y="789.0" type="line" smooth="yes"/>
      <point x="190.0" y="819.0"/>
      <point x="220.0" y="819.0" type="qcurve" smooth="yes"/>
      <point x="332.0" y="819.0"/>
      <point x="490.0" y="658.0"/>
      <point x="490.0" y="549.0" type="qcurve" smooth="yes"/>
      <point x="490.0" y="440.0"/>
      <point x="332.0" y="279.0"/>
    </contour>
  </outline>
</glyph>
<glyph name="breve" format="2">
  <advance width="614"/>
  <unicode hex="02D8"/>
  <outline>
    <contour>
      <point x="-4.0" y="1362.0" type="qcurve" smooth="yes"/>
      <point x="-23.0" y="1403.0"/>
      <point x="9.0" y="1417.0" type="qcurve" smooth="yes"/>
      <point x="56.0" y="1439.0" type="line" smooth="yes"/>
      <point x="85.0" y="1453.0"/>
      <point x="101.0" y="1421.0" type="qcurve" smooth="yes"/>
      <point x="134.0" y="1356.0"/>
      <point x="220.0" y="1276.0"/>
      <point x="307.0" y="1276.0" type="qcurve" smooth="yes"/>
      <point x="394.0" y="1276.0"/>
      <point x="480.0" y="1356.0"/>
      <point x="513.0" y="1421.0" type="qcurve" smooth="yes"/>
      <point x="529.0" y="1453.0"/>
      <point x="558.0" y="1439.0" type="qcurve" smooth="yes"/>
      <point x="605.0" y="1417.0" type="line" smooth="yes"/>
      <point x="637.0" y="1403.0"/>
      <point x="618.0" y="1362.0" type="qcurve" smooth="yes"/>
      <point x="565.0" y="1246.0"/>
      <point x="410.0" y="1146.0"/>
      <point x="307.0" y="1146.0" type="qcurve" smooth="yes"/>
      <point x="204.0" y="1146.0"/>
      <point x="49.0" y="1246.0"/>
    </contour>
  </outline>
</glyph>
<glyph name="ogonek" format="2">
  <advance width="614"/>
  <unicode hex="02DB"/>
  <outline>
    <contour>
      <point x="111.0" y="-255.0" type="qcurve" smooth="yes"/>
      <point x="111.0" y="-202.0"/>
      <point x="154.0" y="-113.0"/>
      <point x="228.0" y="-45.0"/>
      <point x="282.0" y="-6.0" type="qcurve"/>
      <point x="298.0" y="7.0"/>
      <point x="298.0" y="45.0" type="qcurve"/>
      <point x="472.0" y="45.0" type="line"/>
      <point x="472.0" y="15.0"/>
      <point x="455.0" y="0.0" type="qcurve"/>
      <point x="360.0" y="-69.0"/>
      <point x="271.0" y="-161.0"/>
      <point x="271.0" y="-211.0" type="qcurve" smooth="yes"/>
      <point x="271.0" y="-251.0"/>
      <point x="318.0" y="-287.0"/>
      <point x="352.0" y="-287.0" type="qcurve" smooth="yes"/>
      <point x="402.0" y="-287.0"/>
      <point x="432.0" y="-280.0" type="qcurve" smooth="yes"/>
      <point x="453.0" y="-275.0"/>
      <point x="457.0" y="-299.0" type="qcurve" smooth="yes"/>
      <point x="470.0" y="-378.0" type="line" smooth="yes"/>
      <point x="474.0" y="-402.0"/>
      <point x="452.0" y="-406.0" type="qcurve" smooth="yes"/>
      <point x="387.0" y="-417.0"/>
      <point x="329.0" y="-417.0" type="qcurve" smooth="yes"/>
      <point x="213.0" y="-417.0"/>
      <point x="111.0" y="-316.0"/>
    </contour>
  </outline>
</glyph>
<glyph name="tilde" format="2">
  <advance width="614"/>
  <unicode hex="02DC"/>
  <outline>
    <contour>
      <point x="0.0" y="1175.0" type="line" smooth="yes"/>
      <point x="-22.0" y="1185.0"/>
      <point x="-12.0" y="1219.0" type="qcurve" smooth="yes"/>
      <point x="9.0" y="1290.0"/>
      <point x="110.0" y="1380.0"/>
      <point x="190.0" y="1380.0" type="qcurve" smooth="yes"/>
      <point x="258.0" y="1380.0"/>
      <point x="398.0" y="1270.0"/>
      <point x="437.0" y="1270.0" type="qcurve" smooth="yes"/>
      <point x="480.0" y="1270.0"/>
      <point x="522.0" y="1314.0"/>
      <point x="538.0" y="1352.0" type="qcurve" smooth="yes"/>
      <point x="551.0" y="1382.0"/>
      <point x="575.0" y="1372.0" type="qcurve" smooth="yes"/>
      <point x="614.0" y="1355.0" type="line" smooth="yes"/>
      <point x="636.0" y="1345.0"/>
      <point x="626.0" y="1311.0" type="qcurve" smooth="yes"/>
      <point x="605.0" y="1240.0"/>
      <point x="504.0" y="1150.0"/>
      <point x="424.0" y="1150.0" type="qcurve" smooth="yes"/>
      <point x="356.0" y="1150.0"/>
      <point x="216.0" y="1260.0"/>
      <point x="177.0" y="1260.0" type="qcurve" smooth="yes"/>
      <point x="134.0" y="1260.0"/>
      <point x="92.0" y="1216.0"/>
      <point x="76.0" y="1178.0" type="qcurve" smooth="yes"/>
      <point x="63.0" y="1148.0"/>
      <point x="39.0" y="1158.0" type="qcurve" smooth="yes"/>
    </contour>
  </outline>
</glyph>
<glyph name="hungarumlaut" format="2">
  <advance width="614"/>
  <unicode hex="02DD"/>
  <outline>
    <contour>
      <point x="44.0" y="1150.0" type="line" smooth="yes"/>
      <point x="5.0" y="1150.0"/>
      <point x="32.0" y="1203.0" type="qcurve" smooth="yes"/>
      <point x="131.0" y="1398.0" type="line" smooth="yes"/>
      <point x="150.0" y="1435.0"/>
      <point x="212.0" y="1435.0" type="qcurve" smooth="yes"/>
      <point x="309.0" y="1435.0" type="line" smooth="yes"/>
      <point x="364.0" y="1435.0"/>
      <point x="323.0" y="1383.0" type="qcurve" smooth="yes"/>
      <point x="163.0" y="1179.0" type="line" smooth="yes"/>
      <point x="140.0" y="1150.0"/>
      <point x="86.0" y="1150.0" type="qcurve" smooth="yes"/>
    </contour>
    <contour>
      <point x="344.0" y="1150.0" type="line" smooth="yes"/>
      <point x="305.0" y="1150.0"/>
      <point x="332.0" y="1203.0" type="qcurve" smooth="yes"/>
      <point x="431.0" y="1398.0" type="line" smooth="yes"/>
      <point x="450.0" y="1435.0"/>
      <point x="512.0" y="1435.0" type="qcurve" smooth="yes"/>
      <point x="609.0" y="1435.0" type="line" smooth="yes"/>
      <point x="664.0" y="1435.0"/>
      <point x="623.0" y="1383.0" type="qcurve" smooth="yes"/>
      <point x="463.0" y="1179.0" type="line" smooth="yes"/>
      <point x="440.0" y="1150.0"/>
      <point x="386.0" y="1150.0" type="qcurve" smooth="yes"/>
    </contour>
  </outline>
</glyph>
<glyph name="uni02E7" format="2">
  <advance width="820"/>
  <unicode hex="02E7"/>
  <outline>
    <contour>
      <point x="125.0" y="678.0" type="line" smooth="yes"/>
      <point x="80.0" y="678.0"/>
      <point x="80.0" y="713.0" type="qcurve" smooth="yes"/>
      <point x="80.0" y="763.0" type="line" smooth="yes"/>
      <point x="80.0" y="798.0"/>
      <point x="125.0" y="798.0" type="qcurve" smooth="yes"/>
      <point x="530.0" y="798.0" type="line"/>
      <point x="530.0" y="1431.0" type="line" smooth="yes"/>
      <point x="530.0" y="1476.0"/>
      <point x="565.0" y="1476.0" type="qcurve" smooth="yes"/>
      <point x="625.0" y="1476.0" type="line" smooth="yes"/>
      <point x="660.0" y="1476.0"/>
      <point x="660.0" y="1431.0" type="qcurve" smooth="yes"/>
      <point x="660.0" y="45.0" type="line" smooth="yes"/>
      <point x="660.0" y="0.0"/>
      <point x="625.0" y="0.0" type="qcurve" smooth="yes"/>
      <point x="565.0" y="0.0" type="line" smooth="yes"/>
      <point x="530.0" y="0.0"/>
      <point x="530.0" y="45.0" type="qcurve" smooth="yes"/>
      <point x="530.0" y="678.0" type="line"/>
    </contour>
  </outline>
</glyph>
<glyph name="uni032A" format="2">
  <unicode hex="032A"/>
  <outline>
    <contour>
      <point x="-588.0" y="-439.0" type="line" smooth="yes"/>
      <point x="-623.0" y="-439.0"/>
      <point x="-623.0" y="-394.0" type="qcurve" smooth="yes"/>
      <point x="-623.0" y="-140.0" type="line" smooth="yes"/>
      <point x="-623.0" y="-95.0"/>
      <point x="-588.0" y="-95.0" type="qcurve" smooth="yes"/>
      <point x="-26.0" y="-95.0" type="line" smooth="yes"/>
      <point x="9.0" y="-95.0"/>
      <point x="9.0" y="-140.0" type="qcurve" smooth="yes"/>
      <point x="9.0" y="-394.0" type="line" smooth="yes"/>
      <point x="9.0" y="-439.0"/>
      <point x="-26.0" y="-439.0" type="qcurve" smooth="yes"/>
      <point x="-66.0" y="-439.0" type="line" smooth="yes"/>
      <point x="-101.0" y="-439.0"/>
      <point x="-101.0" y="-394.0" type="qcurve" smooth="yes"/>
      <point x="-101.0" y="-205.0" type="line"/>
      <point x="-513.0" y="-205.0" type="line"/>
      <point x="-513.0" y="-394.0" type="line" smooth="yes"/>
      <point x="-513.0" y="-439.0"/>
      <point x="-548.0" y="-439.0" type="qcurve" smooth="yes"/>
    </contour>
  </outline>
</glyph>
<glyph name="uni033B" format="2">
  <unicode hex="033B"/>
  <outline>
    <contour>
      <point x="-497.0" y="-439.0" type="line" smooth="yes"/>
      <point x="-532.0" y="-439.0"/>
      <point x="-532.0" y="-394.0" type="qcurve" smooth="yes"/>
      <point x="-532.0" y="-140.0" type="line" smooth="yes"/>
      <point x="-532.0" y="-95.0"/>
      <point x="-497.0" y="-95.0" type="qcurve" smooth="yes"/>
      <point x="-127.0" y="-95.0" type="line" smooth="yes"/>
      <point x="-92.0" y="-95.0"/>
      <point x="-92.0" y="-140.0" type="qcurve" smooth="yes"/>
      <point x="-92.0" y="-394.0" type="line" smooth="yes"/>
      <point x="-92.0" y="-439.0"/>
      <point x="-127.0" y="-439.0" type="qcurve" smooth="yes"/>
    </contour>
    <contour>
      <point x="-422.0" y="-329.0" type="line"/>
      <point x="-202.0" y="-329.0" type="line"/>
      <point x="-202.0" y="-205.0" type="line"/>
      <point x="-422.0" y="-205.0" type="line"/>
    </contour>
  </outline>
</glyph>
<glyph name="uni0361" format="2">
  <unicode hex="0361"/>
  <outline>
    <contour>
      <point x="0.0" y="1399.0" type="qcurve" smooth="yes"/>
      <point x="-268.0" y="1399.0"/>
      <point x="-628.0" y="1264.0"/>
      <point x="-739.0" y="1166.0" type="qcurve" smooth="yes"/>
      <point x="-775.0" y="1134.0"/>
      <point x="-798.0" y="1164.0" type="qcurve" smooth="yes"/>
      <point x="-825.0" y="1199.0" type="line" smooth="yes"/>
      <point x="-848.0" y="1229.0"/>
      <point x="-805.0" y="1267.0" type="qcurve" smooth="yes"/>
      <point x="-620.0" y="1433.0"/>
      <point x="-304.0" y="1567.0"/>
      <point x="0.0" y="1567.0" type="qcurve" smooth="yes"/>
      <point x="304.0" y="1567.0"/>
      <point x="615.0" y="1435.0"/>
      <point x="805.0" y="1267.0" type="qcurve" smooth="yes"/>
      <point x="848.0" y="1229.0"/>
      <point x="825.0" y="1199.0" type="qcurve" smooth="yes"/>
      <point x="798.0" y="1164.0" type="line" smooth="yes"/>
      <point x="775.0" y="1134.0"/>
      <point x="739.0" y="1166.0" type="qcurve" smooth="yes"/>
      <point x="632.0" y="1263.0"/>
      <point x="268.0" y="1399.0"/>
    </contour>
  </outline>
</glyph>
<glyph name="theta.ipa" format="2">
  <advance width="1088"/>
  <unicode hex="03B8"/>
  <outline>
    <contour>
      <point x="85.0" y="738.0" type="qcurve" smooth="yes"/>
      <point x="85.0" y="1038.0"/>
      <point x="314.0" y="1493.0"/>
      <point x="544.0" y="1493.0" type="qcurve" smooth="yes"/>
      <point x="774.0" y="1493.0"/>
      <point x="1003.0" y="1038.0"/>
      <point x="1003.0" y="738.0" type="qcurve" smooth="yes"/>
      <point x="1003.0" y="438.0"/>
      <point x="774.0" y="-17.0"/>
      <point x="544.0" y="-17.0" type="qcurve" smooth="yes"/>
      <point x="314.0" y="-17.0"/>
      <point x="85.0" y="438.0"/>
    </contour>
    <contour>
      <point x="271.0" y="697.0" type="line"/>
      <point x="276.0" y="454.0"/>
      <point x="414.0" y="113.0"/>
      <point x="544.0" y="113.0" type="qcurve" smooth="yes"/>
      <point x="674.0" y="113.0"/>
      <point x="812.0" y="454.0"/>
      <point x="817.0" y="697.0" type="qcurve"/>
    </contour>
    <contour>
      <point x="273.0" y="829.0" type="qcurve"/>
      <point x="815.0" y="829.0" type="line"/>
      <point x="806.0" y="1040.0"/>
      <point x="674.0" y="1363.0"/>
      <point x="544.0" y="1363.0" type="qcurve" smooth="yes"/>
      <point x="414.0" y="1363.0"/>
      <point x="282.0" y="1040.0"/>
    </contour>
  </outline>
</glyph>
<glyph name="afii10058" format="2">
  <advance width="2270"/>
  <unicode hex="0409"/>
  <outline>
    <contour>
      <point x="72.0" y="-17.0" type="qcurve" smooth="yes"/>
      <point x="33.0" y="-4.0"/>
      <point x="40.0" y="29.0" type="qcurve" smooth="yes"/>
      <point x="57.0" y="112.0" type="line" smooth="yes"/>
      <point x="64.0" y="148.0"/>
      <point x="100.0" y="138.0" type="qcurve" smooth="yes"/>
      <point x="137.0" y="127.0"/>
      <point x="183.0" y="127.0" type="qcurve" smooth="yes"/>
      <point x="344.0" y="127.0"/>
      <point x="434.0" y="648.0"/>
      <point x="434.0" y="1077.0" type="qcurve" smooth="yes"/>
      <point x="434.0" y="1379.0" type="line" smooth="yes"/>
      <point x="434.0" y="1434.0"/>
      <point x="484.0" y="1434.0" type="qcurve" smooth="yes"/>
      <point x="1254.0" y="1434.0" type="line" smooth="yes"/>
      <point x="1304.0" y="1434.0"/>
      <point x="1304.0" y="1379.0" type="qcurve" smooth="yes"/>
      <point x="1304.0" y="828.0" type="line"/>
      <point x="1592.0" y="828.0" type="line" smooth="yes"/>
      <point x="1929.0" y="828.0"/>
      <point x="2180.0" y="604.0"/>
      <point x="2180.0" y="414.0" type="qcurve" smooth="yes"/>
      <point x="2180.0" y="224.0"/>
      <point x="1929.0" y="0.0"/>
      <point x="1592.0" y="0.0" type="qcurve" smooth="yes"/>
      <point x="1162.0" y="0.0" type="line" smooth="yes"/>
      <point x="1112.0" y="0.0"/>
      <point x="1112.0" y="55.0" type="qcurve" smooth="yes"/>
      <point x="1112.0" y="1270.0" type="line"/>
      <point x="596.0" y="1270.0" type="line"/>
      <point x="596.0" y="1021.0" type="line" smooth="yes"/>
      <point x="596.0" y="390.0"/>
      <point x="413.0" y="-30.0"/>
      <point x="206.0" y="-30.0" type="qcurve" smooth="yes"/>
      <point x="112.0" y="-30.0"/>
    </contour>
    <contour>
      <point x="1304.0" y="164.0" type="line"/>
      <point x="1560.0" y="164.0" type="line" smooth="yes"/>
      <point x="1775.0" y="164.0"/>
      <point x="1975.0" y="279.0"/>
      <point x="1975.0" y="414.0" type="qcurve" smooth="yes"/>
      <point x="1975.0" y="549.0"/>
      <point x="1775.0" y="664.0"/>
      <point x="1560.0" y="664.0" type="qcurve" smooth="yes"/>
      <point x="1304.0" y="664.0" type="line"/>
    </contour>
  </outline>
</glyph>
<glyph name="afii10018" format="2">
  <advance width="1348"/>
  <unicode hex="0411"/>
  <outline>
    <contour>
      <point x="220.0" y="0.0" type="line" smooth="yes"/>
      <point x="170.0" y="0.0"/>
      <point x="170.0" y="55.0" type="qcurve" smooth="yes"/>
      <point x="170.0" y="1379.0" type="line" smooth="yes"/>
      <point x="170.0" y="1434.0"/>
      <point x="220.0" y="1434.0" type="qcurve" smooth="yes"/>
      <point x="1075.0" y="1434.0" type="line" smooth="yes"/>
      <point x="1130.0" y="1434.0"/>
      <point x="1130.0" y="1389.0" type="qcurve" smooth="yes"/>
      <point x="1130.0" y="1315.0" type="line" smooth="yes"/>
      <point x="1130.0" y="1270.0"/>
      <point x="1075.0" y="1270.0" type="qcurve" smooth="yes"/>
      <point x="362.0" y="1270.0" type="line"/>
      <point x="362.0" y="832.0" type="line"/>
      <point x="660.0" y="832.0" type="line" smooth="yes"/>
      <point x="997.0" y="832.0"/>
      <point x="1248.0" y="607.0"/>
      <point x="1248.0" y="416.0" type="qcurve" smooth="yes"/>
      <point x="1248.0" y="225.0"/>
      <point x="997.0" y="0.0"/>
      <point x="660.0" y="0.0" type="qcurve" smooth="yes"/>
    </contour>
    <contour>
      <point x="362.0" y="164.0" type="line"/>
      <point x="628.0" y="164.0" type="line" smooth="yes"/>
      <point x="843.0" y="164.0"/>
      <point x="1043.0" y="281.0"/>
      <point x="1043.0" y="416.0" type="qcurve" smooth="yes"/>
      <point x="1043.0" y="551.0"/>
      <point x="843.0" y="668.0"/>
      <point x="628.0" y="668.0" type="qcurve" smooth="yes"/>
      <point x="362.0" y="668.0" type="line"/>
    </contour>
  </outline>
</glyph>
<glyph name="afii10029" format="2">
  <advance width="1474"/>
  <unicode hex="041B"/>
  <outline>
    <contour>
      <point x="72.0" y="-17.0" type="qcurve" smooth="yes"/>
      <point x="33.0" y="-4.0"/>
      <point x="40.0" y="29.0" type="qcurve" smooth="yes"/>
      <point x="57.0" y="112.0" type="line" smooth="yes"/>
      <point x="64.0" y="148.0"/>
      <point x="109.0" y="135.0" type="qcurve" smooth="yes"/>
      <point x="137.0" y="127.0"/>
      <point x="183.0" y="127.0" type="qcurve" smooth="yes"/>
      <point x="344.0" y="127.0"/>
      <point x="434.0" y="648.0"/>
      <point x="434.0" y="1077.0" type="qcurve" smooth="yes"/>
      <point x="434.0" y="1379.0" type="line" smooth="yes"/>
      <point x="434.0" y="1434.0"/>
      <point x="484.0" y="1434.0" type="qcurve" smooth="yes"/>
      <point x="1254.0" y="1434.0" type="line" smooth="yes"/>
      <point x="1304.0" y="1434.0"/>
      <point x="1304.0" y="1379.0" type="qcurve" smooth="yes"/>
      <point x="1304.0" y="55.0" type="line" smooth="yes"/>
      <point x="1304.0" y="0.0"/>
      <point x="1254.0" y="0.0" type="qcurve" smooth="yes"/>
      <point x="1162.0" y="0.0" type="line" smooth="yes"/>
      <point x="1112.0" y="0.0"/>
      <point x="1112.0" y="55.0" type="qcurve" smooth="yes"/>
      <point x="1112.0" y="1270.0" type="line"/>
      <point x="600.0" y="1270.0" type="line"/>
      <point x="600.0" y="1021.0" type="line" smooth="yes"/>
      <point x="600.0" y="390.0"/>
      <point x="413.0" y="-30.0"/>
      <point x="206.0" y="-30.0" type="qcurve" smooth="yes"/>
      <point x="112.0" y="-30.0"/>
    </contour>
  </outline>
</glyph>
<glyph name="afii10033" format="2">
  <advance width="1416"/>
  <unicode hex="041F"/>
  <outline>
    <contour>
      <point x="220.0" y="0.0" type="line" smooth="yes"/>
      <point x="170.0" y="0.0"/>
      <point x="170.0" y="55.0" type="qcurve" smooth="yes"/>
      <point x="170.0" y="1379.0" type="line" smooth="yes"/>
      <point x="170.0" y="1434.0"/>
      <point x="220.0" y="1434.0" type="qcurve" smooth="yes"/>
      <point x="1196.0" y="1434.0" type="line" smooth="yes"/>
      <point x="1246.0" y="1434.0"/>
      <point x="1246.0" y="1379.0" type="qcurve" smooth="yes"/>
      <point x="1246.0" y="55.0" type="line" smooth="yes"/>
      <point x="1246.0" y="0.0"/>
      <point x="1196.0" y="0.0" type="qcurve" smooth="yes"/>
      <point x="1104.0" y="0.0" type="line" smooth="yes"/>
      <point x="1054.0" y="0.0"/>
      <point x="1054.0" y="55.0" type="qcurve" smooth="yes"/>
      <point x="1054.0" y="1270.0" type="line"/>
      <point x="362.0" y="1270.0" type="line"/>
      <point x="362.0" y="55.0" type="line" smooth="yes"/>
      <point x="362.0" y="0.0"/>
      <point x="312.0" y="0.0" type="qcurve" smooth="yes"/>
    </contour>
  </outline>
</glyph>
<glyph name="afii10038" format="2">
  <advance width="1752"/>
  <unicode hex="0424"/>
  <outline>
    <contour>
      <point x="92.0" y="730.0" type="qcurve" smooth="yes"/>
      <point x="92.0" y="1010.0"/>
      <point x="427.0" y="1260.0"/>
      <point x="707.0" y="1260.0" type="qcurve" smooth="yes"/>
      <point x="780.0" y="1260.0" type="line"/>
      <point x="780.0" y="1384.0" type="line" smooth="yes"/>
      <point x="780.0" y="1439.0"/>
      <point x="830.0" y="1439.0" type="qcurve" smooth="yes"/>
      <point x="922.0" y="1439.0" type="line" smooth="yes"/>
      <point x="972.0" y="1439.0"/>
      <point x="972.0" y="1384.0" type="qcurve" smooth="yes"/>
      <point x="972.0" y="1260.0" type="line"/>
      <point x="1045.0" y="1260.0" type="line" smooth="yes"/>
      <point x="1325.0" y="1260.0"/>
      <point x="1660.0" y="1010.0"/>
      <point x="1660.0" y="730.0" type="qcurve" smooth="yes"/>
      <point x="1660.0" y="450.0"/>
      <point x="1325.0" y="200.0"/>
      <point x="1045.0" y="200.0" type="qcurve" smooth="yes"/>
      <point x="972.0" y="200.0" type="line"/>
      <point x="972.0" y="43.0" type="line" smooth="yes"/>
      <point x="972.0" y="-12.0"/>
      <point x="922.0" y="-12.0" type="qcurve" smooth="yes"/>
      <point x="830.0" y="-12.0" type="line" smooth="yes"/>
      <point x="780.0" y="-12.0"/>
      <point x="780.0" y="43.0" type="qcurve" smooth="yes"/>
      <point x="780.0" y="200.0" type="line"/>
      <point x="707.0" y="200.0" type="line" smooth="yes"/>
      <point x="427.0" y="200.0"/>
      <point x="92.0" y="450.0"/>
    </contour>
    <contour>
      <point x="297.0" y="730.0" type="qcurve" smooth="yes"/>
      <point x="297.0" y="530.0"/>
      <point x="500.0" y="350.0"/>
      <point x="730.0" y="350.0" type="qcurve" smooth="yes"/>
      <point x="780.0" y="350.0" type="line"/>
      <point x="780.0" y="1110.0" type="line"/>
      <point x="730.0" y="1110.0" type="line" smooth="yes"/>
      <point x="500.0" y="1110.0"/>
      <point x="297.0" y="930.0"/>
    </contour>
    <contour>
      <point x="972.0" y="350.0" type="line"/>
      <point x="1022.0" y="350.0" type="line" smooth="yes"/>
      <point x="1252.0" y="350.0"/>
      <point x="1455.0" y="530.0"/>
      <point x="1455.0" y="730.0" type="qcurve" smooth="yes"/>
      <point x="1455.0" y="930.0"/>
      <point x="1252.0" y="1110.0"/>
      <point x="1022.0" y="1110.0" type="qcurve" smooth="yes"/>
      <point x="972.0" y="1110.0" type="line"/>
    </contour>
  </outline>
</glyph>
<glyph name="afii10041" format="2">
  <advance width="1286"/>
  <unicode hex="0427"/>
  <outline>
    <contour>
      <point x="120.0" y="912.0" type="qcurve" smooth="yes"/>
      <point x="120.0" y="1379.0" type="line" smooth="yes"/>
      <point x="120.0" y="1434.0"/>
      <point x="170.0" y="1434.0" type="qcurve" smooth="yes"/>
      <point x="262.0" y="1434.0" type="line" smooth="yes"/>
      <point x="312.0" y="1434.0"/>
      <point x="312.0" y="1379.0" type="qcurve" smooth="yes"/>
      <point x="312.0" y="960.0" type="line" smooth="yes"/>
      <point x="312.0" y="820.0"/>
      <point x="422.0" y="720.0"/>
      <point x="518.0" y="720.0" type="qcurve" smooth="yes"/>
      <point x="596.0" y="720.0"/>
      <point x="812.0" y="740.0"/>
      <point x="924.0" y="787.0" type="qcurve"/>
      <point x="924.0" y="1379.0" type="line" smooth="yes"/>
      <point x="924.0" y="1434.0"/>
      <point x="974.0" y="1434.0" type="qcurve" smooth="yes"/>
      <point x="1066.0" y="1434.0" type="line" smooth="yes"/>
      <point x="1116.0" y="1434.0"/>
      <point x="1116.0" y="1379.0" type="qcurve" smooth="yes"/>
      <point x="1116.0" y="55.0" type="line" smooth="yes"/>
      <point x="1116.0" y="0.0"/>
      <point x="1066.0" y="0.0" type="qcurve" smooth="yes"/>
      <point x="974.0" y="0.0" type="line" smooth="yes"/>
      <point x="924.0" y="0.0"/>
      <point x="924.0" y="55.0" type="qcurve" smooth="yes"/>
      <point x="924.0" y="573.0" type="line" smooth="yes"/>
      <point x="924.0" y="613.0"/>
      <point x="926.0" y="653.0" type="qcurve"/>
      <point x="922.0" y="653.0" type="line"/>
      <point x="828.0" y="612.0"/>
      <point x="636.0" y="566.0"/>
      <point x="493.0" y="566.0" type="qcurve" smooth="yes"/>
      <point x="304.0" y="566.0"/>
      <point x="120.0" y="771.0"/>
    </contour>
  </outline>
</glyph>
<glyph name="afii10043" format="2">
  <advance width="2116"/>
  <unicode hex="0429"/>
  <outline>
    <contour>
      <point x="220.0" y="0.0" type="line" smooth="yes"/>
      <point x="170.0" y="0.0"/>
      <point x="170.0" y="55.0" type="qcurve" smooth="yes"/>
      <point x="170.0" y="1379.0" type="line" smooth="yes"/>
      <point x="170.0" y="1434.0"/>
      <point x="220.0" y="1434.0" type="qcurve" smooth="yes"/>
      <point x="312.0" y="1434.0" type="line" smooth="yes"/>
      <point x="362.0" y="1434.0"/>
      <point x="362.0" y="1379.0" type="qcurve" smooth="yes"/>
      <point x="362.0" y="164.0" type="line"/>
      <point x="924.0" y="164.0" type="line"/>
      <point x="924.0" y="1379.0" type="line" smooth="yes"/>
      <point x="924.0" y="1434.0"/>
      <point x="974.0" y="1434.0" type="qcurve" smooth="yes"/>
      <point x="1066.0" y="1434.0" type="line" smooth="yes"/>
      <point x="1116.0" y="1434.0"/>
      <point x="1116.0" y="1379.0" type="qcurve" smooth="yes"/>
      <point x="1116.0" y="164.0" type="line"/>
      <point x="1678.0" y="164.0" type="line"/>
      <point x="1678.0" y="1379.0" type="line" smooth="yes"/>
      <point x="1678.0" y="1434.0"/>
      <point x="1728.0" y="1434.0" type="qcurve" smooth="yes"/>
      <point x="1820.0" y="1434.0" type="line" smooth="yes"/>
      <point x="1870.0" y="1434.0"/>
      <point x="1870.0" y="1379.0" type="qcurve" smooth="yes"/>
      <point x="1870.0" y="164.0" type="line"/>
      <point x="2002.0" y="164.0" type="line" smooth="yes"/>
      <point x="2052.0" y="164.0"/>
      <point x="2052.0" y="109.0" type="qcurve" smooth="yes"/>
      <point x="2052.0" y="-320.0" type="line" smooth="yes"/>
      <point x="2052.0" y="-370.0"/>
      <point x="2012.0" y="-370.0" type="qcurve" smooth="yes"/>
      <point x="1926.0" y="-370.0" type="line" smooth="yes"/>
      <point x="1886.0" y="-370.0"/>
      <point x="1886.0" y="-320.0" type="qcurve" smooth="yes"/>
      <point x="1886.0" y="0.0" type="line"/>
    </contour>
  </outline>
</glyph>
<glyph name="afii10046" format="2">
  <advance width="1328"/>
  <unicode hex="042C"/>
  <outline>
    <contour>
      <point x="220.0" y="0.0" type="line" smooth="yes"/>
      <point x="170.0" y="0.0"/>
      <point x="170.0" y="55.0" type="qcurve" smooth="yes"/>
      <point x="170.0" y="1379.0" type="line" smooth="yes"/>
      <point x="170.0" y="1434.0"/>
      <point x="220.0" y="1434.0" type="qcurve" smooth="yes"/>
      <point x="312.0" y="1434.0" type="line" smooth="yes"/>
      <point x="362.0" y="1434.0"/>
      <point x="362.0" y="1379.0" type="qcurve" smooth="yes"/>
      <point x="362.0" y="828.0" type="line"/>
      <point x="650.0" y="828.0" type="line" smooth="yes"/>
      <point x="987.0" y="828.0"/>
      <point x="1238.0" y="604.0"/>
      <point x="1238.0" y="414.0" type="qcurve" smooth="yes"/>
      <point x="1238.0" y="224.0"/>
      <point x="987.0" y="0.0"/>
      <point x="650.0" y="0.0" type="qcurve" smooth="yes"/>
    </contour>
    <contour>
      <point x="362.0" y="164.0" type="line"/>
      <point x="618.0" y="164.0" type="line" smooth="yes"/>
      <point x="833.0" y="164.0"/>
      <point x="1033.0" y="279.0"/>
      <point x="1033.0" y="414.0" type="qcurve" smooth="yes"/>
      <point x="1033.0" y="549.0"/>
      <point x="833.0" y="664.0"/>
      <point x="618.0" y="664.0" type="qcurve" smooth="yes"/>
      <point x="362.0" y="664.0" type="line"/>
    </contour>
  </outline>
</glyph>
<glyph name="afii10048" format="2">
  <advance width="2020"/>
  <unicode hex="042E"/>
  <outline>
    <contour>
      <point x="220.0" y="0.0" type="line" smooth="yes"/>
      <point x="170.0" y="0.0"/>
      <point x="170.0" y="55.0" type="qcurve" smooth="yes"/>
      <point x="170.0" y="1379.0" type="line" smooth="yes"/>
      <point x="170.0" y="1434.0"/>
      <point x="220.0" y="1434.0" type="qcurve" smooth="yes"/>
      <point x="312.0" y="1434.0" type="line" smooth="yes"/>
      <point x="362.0" y="1434.0"/>
      <point x="362.0" y="1379.0" type="qcurve" smooth="yes"/>
      <point x="362.0" y="828.0" type="line"/>
      <point x="591.0" y="828.0" type="line"/>
      <point x="612.0" y="1096.0"/>
      <point x="933.0" y="1464.0"/>
      <point x="1258.0" y="1464.0" type="qcurve" smooth="yes"/>
      <point x="1583.0" y="1464.0"/>
      <point x="1928.0" y="1067.0"/>
      <point x="1928.0" y="717.0" type="qcurve" smooth="yes"/>
      <point x="1928.0" y="367.0"/>
      <point x="1583.0" y="-30.0"/>
      <point x="1258.0" y="-30.0" type="qcurve" smooth="yes"/>
      <point x="933.0" y="-30.0"/>
      <point x="602.0" y="353.0"/>
      <point x="589.0" y="664.0" type="qcurve"/>
      <point x="362.0" y="664.0" type="line"/>
      <point x="362.0" y="55.0" type="line" smooth="yes"/>
      <point x="362.0" y="0.0"/>
      <point x="312.0" y="0.0" type="qcurve" smooth="yes"/>
    </contour>
    <contour>
      <point x="793.0" y="717.0" type="qcurve" smooth="yes"/>
      <point x="793.0" y="437.0"/>
      <point x="1023.0" y="126.0"/>
      <point x="1258.0" y="126.0" type="qcurve" smooth="yes"/>
      <point x="1493.0" y="126.0"/>
      <point x="1723.0" y="437.0"/>
      <point x="1723.0" y="717.0" type="qcurve" smooth="yes"/>
      <point x="1723.0" y="997.0"/>
      <point x="1493.0" y="1308.0"/>
      <point x="1258.0" y="1308.0" type="qcurve" smooth="yes"/>
      <point x="1023.0" y="1308.0"/>
      <point x="793.0" y="997.0"/>
    </contour>
  </outline>
</glyph>
<glyph name="afii10072" format="2">
  <advance width="1458"/>
  <unicode hex="0436"/>
  <outline>
    <contour>
      <point x="91.0" y="0.0" type="line" smooth="yes"/>
      <point x="29.0" y="0.0"/>
      <point x="65.0" y="59.0" type="qcurve" smooth="yes"/>
      <point x="261.0" y="384.0" type="line" smooth="yes"/>
      <point x="313.0" y="469.0"/>
      <point x="389.0" y="532.0"/>
      <point x="439.0" y="552.0" type="qcurve"/>
      <point x="439.0" y="554.0" type="line"/>
      <point x="395.0" y="566.0"/>
      <point x="319.0" y="650.0"/>
      <point x="281.0" y="706.0" type="qcurve" smooth="yes"/>
      <point x="88.0" y="991.0" type="line" smooth="yes"/>
      <point x="48.0" y="1050.0"/>
      <point x="114.0" y="1050.0" type="qcurve" smooth="yes"/>
      <point x="205.0" y="1050.0" type="line" smooth="yes"/>
      <point x="242.0" y="1050.0"/>
      <point x="258.0" y="1024.0" type="qcurve" smooth="yes"/>
      <point x="423.0" y="760.0" type="line" smooth="yes"/>
      <point x="446.0" y="723.0"/>
      <point x="548.0" y="614.0"/>
      <point x="616.0" y="614.0" type="qcurve" smooth="yes"/>
      <point x="641.0" y="614.0" type="line"/>
      <point x="641.0" y="1005.0" type="line" smooth="yes"/>
      <point x="641.0" y="1050.0"/>
      <point x="686.0" y="1050.0" type="qcurve" smooth="yes"/>
      <point x="772.0" y="1050.0" type="line" smooth="yes"/>
      <point x="817.0" y="1050.0"/>
      <point x="817.0" y="1005.0" type="qcurve" smooth="yes"/>
      <point x="817.0" y="614.0" type="line"/>
      <point x="842.0" y="614.0" type="line" smooth="yes"/>
      <point x="910.0" y="614.0"/>
      <point x="1012.0" y="723.0"/>
      <point x="1035.0" y="760.0" type="qcurve" smooth="yes"/>
      <point x="1200.0" y="1024.0" type="line" smooth="yes"/>
      <point x="1216.0" y="1050.0"/>
      <point x="1253.0" y="1050.0" type="qcurve" smooth="yes"/>
      <point x="1344.0" y="1050.0" type="line" smooth="yes"/>
      <point x="1410.0" y="1050.0"/>
      <point x="1370.0" y="991.0" type="qcurve" smooth="yes"/>
      <point x="1177.0" y="706.0" type="line" smooth="yes"/>
      <point x="1139.0" y="650.0"/>
      <point x="1063.0" y="566.0"/>
      <point x="1019.0" y="554.0" type="qcurve"/>
      <point x="1019.0" y="552.0" type="line"/>
      <point x="1069.0" y="532.0"/>
      <point x="1145.0" y="469.0"/>
      <point x="1197.0" y="384.0" type="qcurve" smooth="yes"/>
      <point x="1393.0" y="59.0" type="line" smooth="yes"/>
      <point x="1429.0" y="0.0"/>
      <point x="1367.0" y="0.0" type="qcurve" smooth="yes"/>
      <point x="1270.0" y="0.0" type="line" smooth="yes"/>
      <point x="1234.0" y="-0.0"/>
      <point x="1213.0" y="37.0" type="qcurve" smooth="yes"/>
      <point x="1029.0" y="358.0" type="line" smooth="yes"/>
      <point x="996.0" y="415.0"/>
      <point x="898.0" y="482.0"/>
      <point x="843.0" y="482.0" type="qcurve" smooth="yes"/>
      <point x="817.0" y="482.0" type="line"/>
      <point x="817.0" y="45.0" type="line" smooth="yes"/>
      <point x="817.0" y="0.0"/>
      <point x="772.0" y="0.0" type="qcurve" smooth="yes"/>
      <point x="686.0" y="0.0" type="line" smooth="yes"/>
      <point x="641.0" y="0.0"/>
      <point x="641.0" y="45.0" type="qcurve" smooth="yes"/>
      <point x="641.0" y="482.0" type="line"/>
      <point x="615.0" y="482.0" type="line" smooth="yes"/>
      <point x="560.0" y="482.0"/>
      <point x="462.0" y="415.0"/>
      <point x="429.0" y="358.0" type="qcurve" smooth="yes"/>
      <point x="245.0" y="37.0" type="line" smooth="yes"/>
      <point x="224.0" y="0.0"/>
      <point x="188.0" y="0.0" type="qcurve" smooth="yes"/>
    </contour>
  </outline>
</glyph>
<glyph name="afii10078" format="2">
  <advance width="1422"/>
  <unicode hex="043C"/>
  <outline>
    <contour>
      <point x="187.0" y="0.0" type="line" smooth="yes"/>
      <point x="142.0" y="0.0"/>
      <point x="142.0" y="45.0" type="qcurve" smooth="yes"/>
      <point x="142.0" y="1005.0" type="line" smooth="yes"/>
      <point x="142.0" y="1050.0"/>
      <point x="187.0" y="1050.0" type="qcurve" smooth="yes"/>
      <point x="377.0" y="1050.0" type="line" smooth="yes"/>
      <point x="408.0" y="1050.0"/>
      <point x="422.0" y="1011.0" type="qcurve" smooth="yes"/>
      <point x="651.0" y="351.0" type="line" smooth="yes"/>
      <point x="658.0" y="330.0"/>
      <point x="696.0" y="218.0"/>
      <point x="709.0" y="168.0" type="qcurve"/>
      <point x="713.0" y="168.0" type="line"/>
      <point x="726.0" y="218.0"/>
      <point x="764.0" y="330.0"/>
      <point x="771.0" y="351.0" type="qcurve" smooth="yes"/>
      <point x="1000.0" y="1011.0" type="line" smooth="yes"/>
      <point x="1014.0" y="1050.0"/>
      <point x="1045.0" y="1050.0" type="qcurve" smooth="yes"/>
      <point x="1235.0" y="1050.0" type="line" smooth="yes"/>
      <point x="1280.0" y="1050.0"/>
      <point x="1280.0" y="1005.0" type="qcurve" smooth="yes"/>
      <point x="1280.0" y="45.0" type="line" smooth="yes"/>
      <point x="1280.0" y="0.0"/>
      <point x="1235.0" y="0.0" type="qcurve" smooth="yes"/>
      <point x="1149.0" y="0.0" type="line" smooth="yes"/>
      <point x="1104.0" y="0.0"/>
      <point x="1104.0" y="45.0" type="qcurve" smooth="yes"/>
      <point x="1104.0" y="800.0" type="line" smooth="yes"/>
      <point x="1104.0" y="830.0"/>
      <point x="1106.0" y="860.0" type="qcurve"/>
      <point x="1104.0" y="860.0" type="line"/>
      <point x="804.0" y="61.0" type="line" smooth="yes"/>
      <point x="781.0" y="0.0"/>
      <point x="750.0" y="0.0" type="qcurve" smooth="yes"/>
      <point x="672.0" y="0.0" type="line" smooth="yes"/>
      <point x="641.0" y="0.0"/>
      <point x="618.0" y="61.0" type="qcurve" smooth="yes"/>
      <point x="318.0" y="860.0" type="line"/>
      <point x="316.0" y="860.0" type="line"/>
      <point x="318.0" y="830.0"/>
      <point x="318.0" y="800.0" type="qcurve" smooth="yes"/>
      <point x="318.0" y="45.0" type="line" smooth="yes"/>
      <point x="318.0" y="0.0"/>
      <point x="273.0" y="0.0" type="qcurve" smooth="yes"/>
    </contour>
  </outline>
</glyph>
<glyph name="afii10081" format="2">
  <advance width="1114"/>
  <unicode hex="043F"/>
  <outline>
    <contour>
      <point x="187.0" y="0.0" type="line" smooth="yes"/>
      <point x="142.0" y="0.0"/>
      <point x="142.0" y="45.0" type="qcurve" smooth="yes"/>
      <point x="142.0" y="1005.0" type="line" smooth="yes"/>
      <point x="142.0" y="1050.0"/>
      <point x="187.0" y="1050.0" type="qcurve" smooth="yes"/>
      <point x="927.0" y="1050.0" type="line" smooth="yes"/>
      <point x="972.0" y="1050.0"/>
      <point x="972.0" y="1005.0" type="qcurve" smooth="yes"/>
      <point x="972.0" y="45.0" type="line" smooth="yes"/>
      <point x="972.0" y="0.0"/>
      <point x="927.0" y="0.0" type="qcurve" smooth="yes"/>
      <point x="841.0" y="0.0" type="line" smooth="yes"/>
      <point x="796.0" y="0.0"/>
      <point x="796.0" y="45.0" type="qcurve" smooth="yes"/>
      <point x="796.0" y="918.0" type="line"/>
      <point x="318.0" y="918.0" type="line"/>
      <point x="318.0" y="45.0" type="line" smooth="yes"/>
      <point x="318.0" y="0.0"/>
      <point x="273.0" y="0.0" type="qcurve" smooth="yes"/>
    </contour>
  </outline>
</glyph>
<glyph name="afii10088" format="2">
  <advance width="1188"/>
  <unicode hex="0446"/>
  <outline>
    <contour>
      <point x="187.0" y="0.0" type="line" smooth="yes"/>
      <point x="142.0" y="0.0"/>
      <point x="142.0" y="45.0" type="qcurve" smooth="yes"/>
      <point x="142.0" y="1005.0" type="line" smooth="yes"/>
      <point x="142.0" y="1050.0"/>
      <point x="187.0" y="1050.0" type="qcurve" smooth="yes"/>
      <point x="273.0" y="1050.0" type="line" smooth="yes"/>
      <point x="318.0" y="1050.0"/>
      <point x="318.0" y="1005.0" type="qcurve" smooth="yes"/>
      <point x="318.0" y="132.0" type="line"/>
      <point x="790.0" y="132.0" type="line"/>
      <point x="790.0" y="1005.0" type="line" smooth="yes"/>
      <point x="790.0" y="1050.0"/>
      <point x="835.0" y="1050.0" type="qcurve" smooth="yes"/>
      <point x="921.0" y="1050.0" type="line" smooth="yes"/>
      <point x="966.0" y="1050.0"/>
      <point x="966.0" y="1005.0" type="qcurve" smooth="yes"/>
      <point x="966.0" y="132.0" type="line"/>
      <point x="1087.0" y="132.0" type="line" smooth="yes"/>
      <point x="1132.0" y="132.0"/>
      <point x="1132.0" y="87.0" type="qcurve" smooth="yes"/>
      <point x="1132.0" y="-265.0" type="line" smooth="yes"/>
      <point x="1132.0" y="-310.0"/>
      <point x="1092.0" y="-310.0" type="qcurve" smooth="yes"/>
      <point x="1018.0" y="-310.0" type="line" smooth="yes"/>
      <point x="978.0" y="-310.0"/>
      <point x="978.0" y="-265.0" type="qcurve" smooth="yes"/>
      <point x="978.0" y="0.0" type="line"/>
    </contour>
  </outline>
</glyph>
<glyph name="afii10092" format="2">
  <advance width="1285"/>
  <unicode hex="044A"/>
  <outline>
    <contour>
      <point x="95.0" y="920.0" type="line" smooth="yes"/>
      <point x="50.0" y="920.0"/>
      <point x="50.0" y="955.0" type="qcurve" smooth="yes"/>
      <point x="50.0" y="1015.0" type="line" smooth="yes"/>
      <point x="50.0" y="1050.0"/>
      <point x="95.0" y="1050.0" type="qcurve" smooth="yes"/>
      <point x="541.0" y="1050.0" type="line" smooth="yes"/>
      <point x="586.0" y="1050.0"/>
      <point x="586.0" y="1005.0" type="qcurve" smooth="yes"/>
      <point x="586.0" y="618.0" type="line"/>
      <point x="808.0" y="618.0" type="line" smooth="yes"/>
      <point x="1038.0" y="618.0"/>
      <point x="1210.0" y="449.0"/>
      <point x="1210.0" y="309.0" type="qcurve" smooth="yes"/>
      <point x="1210.0" y="169.0"/>
      <point x="1038.0" y="0.0"/>
      <point x="808.0" y="0.0" type="qcurve" smooth="yes"/>
      <point x="455.0" y="0.0" type="line" smooth="yes"/>
      <point x="410.0" y="0.0"/>
      <point x="410.0" y="45.0" type="qcurve" smooth="yes"/>
      <point x="410.0" y="920.0" type="line"/>
    </contour>
    <contour>
      <point x="586.0" y="131.0" type="line"/>
      <point x="762.0" y="131.0" type="line" smooth="yes"/>
      <point x="902.0" y="131.0"/>
      <point x="1024.0" y="199.0"/>
      <point x="1024.0" y="309.0" type="qcurve" smooth="yes"/>
      <point x="1024.0" y="419.0"/>
      <point x="902.0" y="488.0"/>
      <point x="762.0" y="488.0" type="qcurve" smooth="yes"/>
      <point x="586.0" y="488.0" type="line"/>
    </contour>
  </outline>
</glyph>
<glyph name="afii10094" format="2">
  <advance width="1017"/>
  <unicode hex="044C"/>
  <outline>
    <contour>
      <point x="187.0" y="0.0" type="line" smooth="yes"/>
      <point x="142.0" y="0.0"/>
      <point x="142.0" y="45.0" type="qcurve" smooth="yes"/>
      <point x="142.0" y="1005.0" type="line" smooth="yes"/>
      <point x="142.0" y="1050.0"/>
      <point x="187.0" y="1050.0" type="qcurve" smooth="yes"/>
      <point x="273.0" y="1050.0" type="line" smooth="yes"/>
      <point x="318.0" y="1050.0"/>
      <point x="318.0" y="1005.0" type="qcurve" smooth="yes"/>
      <point x="318.0" y="618.0" type="line"/>
      <point x="540.0" y="618.0" type="line" smooth="yes"/>
      <point x="770.0" y="618.0"/>
      <point x="942.0" y="449.0"/>
      <point x="942.0" y="309.0" type="qcurve" smooth="yes"/>
      <point x="942.0" y="169.0"/>
      <point x="770.0" y="0.0"/>
      <point x="540.0" y="0.0" type="qcurve" smooth="yes"/>
    </contour>
    <contour>
      <point x="318.0" y="131.0" type="line"/>
      <point x="494.0" y="131.0" type="line" smooth="yes"/>
      <point x="634.0" y="131.0"/>
      <point x="756.0" y="199.0"/>
      <point x="756.0" y="309.0" type="qcurve" smooth="yes"/>
      <point x="756.0" y="419.0"/>
      <point x="634.0" y="488.0"/>
      <point x="494.0" y="488.0" type="qcurve" smooth="yes"/>
      <point x="318.0" y="488.0" type="line"/>
    </contour>
  </outline>
</glyph>
<glyph name="afii10096" format="2">
  <advance width="1559"/>
  <unicode hex="044E"/>
  <outline>
    <contour>
      <point x="187.0" y="0.0" type="line" smooth="yes"/>
      <point x="142.0" y="0.0"/>
      <point x="142.0" y="45.0" type="qcurve" smooth="yes"/>
      <point x="142.0" y="1005.0" type="line" smooth="yes"/>
      <point x="142.0" y="1050.0"/>
      <point x="187.0" y="1050.0" type="qcurve" smooth="yes"/>
      <point x="273.0" y="1050.0" type="line" smooth="yes"/>
      <point x="318.0" y="1050.0"/>
      <point x="318.0" y="1005.0" type="qcurve" smooth="yes"/>
      <point x="318.0" y="614.0" type="line"/>
      <point x="502.0" y="614.0" type="line"/>
      <point x="510.0" y="774.0"/>
      <point x="745.0" y="1067.0"/>
      <point x="985.0" y="1067.0" type="qcurve" smooth="yes"/>
      <point x="1225.0" y="1067.0"/>
      <point x="1474.0" y="760.0"/>
      <point x="1474.0" y="525.0" type="qcurve" smooth="yes"/>
      <point x="1474.0" y="290.0"/>
      <point x="1225.0" y="-17.0"/>
      <point x="985.0" y="-17.0" type="qcurve" smooth="yes"/>
      <point x="745.0" y="-17.0"/>
      <point x="504.0" y="282.0"/>
      <point x="497.0" y="482.0" type="qcurve"/>
      <point x="318.0" y="482.0" type="line"/>
      <point x="318.0" y="45.0" type="line" smooth="yes"/>
      <point x="318.0" y="0.0"/>
      <point x="273.0" y="0.0" type="qcurve" smooth="yes"/>
    </contour>
    <contour>
      <point x="682.0" y="525.0" type="qcurve" smooth="yes"/>
      <point x="682.0" y="315.0"/>
      <point x="848.0" y="113.0"/>
      <point x="985.0" y="113.0" type="qcurve" smooth="yes"/>
      <point x="1122.0" y="113.0"/>
      <point x="1288.0" y="315.0"/>
      <point x="1288.0" y="525.0" type="qcurve" smooth="yes"/>
      <point x="1288.0" y="735.0"/>
      <point x="1122.0" y="937.0"/>
      <point x="985.0" y="937.0" type="qcurve" smooth="yes"/>
      <point x="848.0" y="937.0"/>
      <point x="682.0" y="735.0"/>
    </contour>
  </outline>
</glyph>
<glyph name="afii10097" format="2">
  <advance width="1084"/>
  <unicode hex="044F"/>
  <outline>
    <contour>
      <point x="121.0" y="0.0" type="line" smooth="yes"/>
      <point x="51.0" y="0.0"/>
      <point x="95.0" y="59.0" type="qcurve" smooth="yes"/>
      <point x="284.0" y="314.0" type="line" smooth="yes"/>
      <point x="311.0" y="350.0"/>
      <point x="412.0" y="441.0"/>
      <point x="450.0" y="460.0" type="qcurve"/>
      <point x="450.0" y="462.0" type="line"/>
      <point x="276.0" y="498.0"/>
      <point x="148.0" y="638.0"/>
      <point x="148.0" y="761.0" type="qcurve" smooth="yes"/>
      <point x="148.0" y="901.0"/>
      <point x="320.0" y="1050.0"/>
      <point x="550.0" y="1050.0" type="qcurve" smooth="yes"/>
      <point x="897.0" y="1050.0" type="line" smooth="yes"/>
      <point x="942.0" y="1050.0"/>
      <point x="942.0" y="1005.0" type="qcurve" smooth="yes"/>
      <point x="942.0" y="45.0" type="line" smooth="yes"/>
      <point x="942.0" y="0.0"/>
      <point x="897.0" y="0.0" type="qcurve" smooth="yes"/>
      <point x="811.0" y="0.0" type="line" smooth="yes"/>
      <point x="766.0" y="0.0"/>
      <point x="766.0" y="45.0" type="qcurve" smooth="yes"/>
      <point x="766.0" y="432.0" type="line"/>
      <point x="672.0" y="432.0" type="line" smooth="yes"/>
      <point x="604.0" y="432.0"/>
      <point x="518.0" y="365.0"/>
      <point x="464.0" y="288.0" type="qcurve" smooth="yes"/>
      <point x="288.0" y="37.0" type="line" smooth="yes"/>
      <point x="262.0" y="0.0"/>
      <point x="231.0" y="0.0" type="qcurve" smooth="yes"/>
    </contour>
    <contour>
      <point x="334.0" y="761.0" type="qcurve" smooth="yes"/>
      <point x="334.0" y="640.0"/>
      <point x="489.0" y="562.0"/>
      <point x="595.0" y="562.0" type="qcurve" smooth="yes"/>
      <point x="766.0" y="562.0" type="line"/>
      <point x="766.0" y="919.0" type="line"/>
      <point x="596.0" y="919.0" type="line" smooth="yes"/>
      <point x="458.0" y="919.0"/>
      <point x="334.0" y="852.0"/>
    </contour>
  </outline>
</glyph>
<glyph name="afii10193" format="2">
  <advance width="1108"/>
  <unicode hex="045F"/>
  <outline>
    <contour>
      <point x="187.0" y="0.0" type="line" smooth="yes"/>
      <point x="142.0" y="0.0"/>
      <point x="142.0" y="45.0" type="qcurve" smooth="yes"/>
      <point x="142.0" y="1005.0" type="line" smooth="yes"/>
      <point x="142.0" y="1050.0"/>
      <point x="187.0" y="1050.0" type="qcurve" smooth="yes"/>
      <point x="273.0" y="1050.0" type="line" smooth="yes"/>
      <point x="318.0" y="1050.0"/>
      <point x="318.0" y="1005.0" type="qcurve" smooth="yes"/>
      <point x="318.0" y="132.0" type="line"/>
      <point x="790.0" y="132.0" type="line"/>
      <point x="790.0" y="1005.0" type="line" smooth="yes"/>
      <point x="790.0" y="1050.0"/>
      <point x="835.0" y="1050.0" type="qcurve" smooth="yes"/>
      <point x="921.0" y="1050.0" type="line" smooth="yes"/>
      <point x="966.0" y="1050.0"/>
      <point x="966.0" y="1005.0" type="qcurve" smooth="yes"/>
      <point x="966.0" y="45.0" type="line" smooth="yes"/>
      <point x="966.0" y="0.0"/>
      <point x="921.0" y="0.0" type="qcurve" smooth="yes"/>
      <point x="631.0" y="0.0" type="line"/>
      <point x="631.0" y="-265.0" type="line" smooth="yes"/>
      <point x="631.0" y="-310.0"/>
      <point x="591.0" y="-310.0" type="qcurve" smooth="yes"/>
      <point x="517.0" y="-310.0" type="line" smooth="yes"/>
      <point x="477.0" y="-310.0"/>
      <point x="477.0" y="-265.0" type="qcurve" smooth="yes"/>
      <point x="477.0" y="0.0" type="line"/>
    </contour>
  </outline>
</glyph>
<glyph name="afii10194" format="2">
  <advance width="1275"/>
  <unicode hex="0463"/>
  <outline>
    <contour>
      <point x="95.0" y="918.0" type="line" smooth="yes"/>
      <point x="50.0" y="918.0"/>
      <point x="50.0" y="953.0" type="qcurve" smooth="yes"/>
      <point x="50.0" y="1015.0" type="line" smooth="yes"/>
      <point x="50.0" y="1050.0"/>
      <point x="95.0" y="1050.0" type="qcurve" smooth="yes"/>
      <point x="400.0" y="1050.0" type="line"/>
      <point x="400.0" y="1431.0" type="line" smooth="yes"/>
      <point x="400.0" y="1476.0"/>
      <point x="445.0" y="1476.0" type="qcurve" smooth="yes"/>
      <point x="531.0" y="1476.0" type="line" smooth="yes"/>
      <point x="576.0" y="1476.0"/>
      <point x="576.0" y="1431.0" type="qcurve" smooth="yes"/>
      <point x="576.0" y="1050.0" type="line"/>
      <point x="881.0" y="1050.0" type="line" smooth="yes"/>
      <point x="926.0" y="1050.0"/>
      <point x="926.0" y="1015.0" type="qcurve" smooth="yes"/>
      <point x="926.0" y="953.0" type="line" smooth="yes"/>
      <point x="926.0" y="918.0"/>
      <point x="881.0" y="918.0" type="qcurve" smooth="yes"/>
      <point x="576.0" y="918.0" type="line"/>
      <point x="576.0" y="618.0" type="line"/>
      <point x="798.0" y="618.0" type="line" smooth="yes"/>
      <point x="1028.0" y="618.0"/>
      <point x="1200.0" y="449.0"/>
      <point x="1200.0" y="309.0" type="qcurve" smooth="yes"/>
      <point x="1200.0" y="169.0"/>
      <point x="1028.0" y="0.0"/>
      <point x="798.0" y="0.0" type="qcurve" smooth="yes"/>
      <point x="445.0" y="0.0" type="line" smooth="yes"/>
      <point x="400.0" y="0.0"/>
      <point x="400.0" y="45.0" type="qcurve" smooth="yes"/>
      <point x="400.0" y="918.0" type="line"/>
    </contour>
    <contour>
      <point x="576.0" y="131.0" type="line"/>
      <point x="752.0" y="131.0" type="line" smooth="yes"/>
      <point x="892.0" y="131.0"/>
      <point x="1014.0" y="199.0"/>
      <point x="1014.0" y="309.0" type="qcurve" smooth="yes"/>
      <point x="1014.0" y="419.0"/>
      <point x="892.0" y="488.0"/>
      <point x="752.0" y="488.0" type="qcurve" smooth="yes"/>
      <point x="576.0" y="488.0" type="line"/>
    </contour>
  </outline>
</glyph>
<glyph name="uni046A" format="2">
  <advance width="1928"/>
  <unicode hex="046A"/>
  <outline>
    <contour>
      <point x="78.0" y="0.0" type="line" smooth="yes"/>
      <point x="18.0" y="0.0"/>
      <point x="60.0" y="66.0" type="qcurve" smooth="yes"/>
      <point x="340.0" y="506.0" type="line" smooth="yes"/>
      <point x="427.0" y="643.0"/>
      <point x="637.0" y="792.0"/>
      <point x="819.0" y="807.0" type="qcurve"/>
      <point x="819.0" y="808.0" type="line"/>
      <point x="321.0" y="1368.0" type="line"/>
      <point x="268.0" y="1434.0"/>
      <point x="346.0" y="1434.0" type="qcurve" smooth="yes"/>
      <point x="1582.0" y="1434.0" type="line" smooth="yes"/>
      <point x="1660.0" y="1434.0"/>
      <point x="1607.0" y="1368.0" type="qcurve"/>
      <point x="1109.0" y="808.0" type="line"/>
      <point x="1109.0" y="807.0" type="line"/>
      <point x="1291.0" y="792.0"/>
      <point x="1501.0" y="643.0"/>
      <point x="1588.0" y="506.0" type="qcurve" smooth="yes"/>
      <point x="1868.0" y="66.0" type="line" smooth="yes"/>
      <point x="1910.0" y="0.0"/>
      <point x="1850.0" y="0.0" type="qcurve" smooth="yes"/>
      <point x="1723.0" y="0.0" type="line" smooth="yes"/>
      <point x="1676.0" y="0.0"/>
      <point x="1653.0" y="39.0" type="qcurve" smooth="yes"/>
      <point x="1440.0" y="408.0" type="line" smooth="yes"/>
      <point x="1376.0" y="519.0"/>
      <point x="1197.0" y="653.0"/>
      <point x="1105.0" y="653.0" type="qcurve" smooth="yes"/>
      <point x="1060.0" y="653.0" type="line"/>
      <point x="1060.0" y="55.0" type="line" smooth="yes"/>
      <point x="1060.0" y="0.0"/>
      <point x="1010.0" y="0.0" type="qcurve" smooth="yes"/>
      <point x="918.0" y="0.0" type="line" smooth="yes"/>
      <point x="868.0" y="0.0"/>
      <point x="868.0" y="55.0" type="qcurve" smooth="yes"/>
      <point x="868.0" y="653.0" type="line"/>
      <point x="823.0" y="653.0" type="line" smooth="yes"/>
      <point x="731.0" y="653.0"/>
      <point x="552.0" y="519.0"/>
      <point x="488.0" y="408.0" type="qcurve" smooth="yes"/>
      <point x="275.0" y="39.0" type="line" smooth="yes"/>
      <point x="252.0" y="0.0"/>
      <point x="205.0" y="0.0" type="qcurve" smooth="yes"/>
    </contour>
    <contour>
      <point x="631.0" y="1270.0" type="line"/>
      <point x="963.0" y="881.0" type="line"/>
      <point x="965.0" y="881.0" type="line"/>
      <point x="1297.0" y="1270.0" type="line"/>
      <point x="1297.0" y="1274.0" type="line"/>
      <point x="1256.0" y="1270.0"/>
      <point x="1216.0" y="1270.0" type="qcurve" smooth="yes"/>
      <point x="712.0" y="1270.0" type="line" smooth="yes"/>
      <point x="672.0" y="1270.0"/>
      <point x="631.0" y="1274.0" type="qcurve"/>
    </contour>
  </outline>
</glyph>
<glyph name="afii10196" format="2">
  <advance width="1044"/>
  <unicode hex="0475"/>
  <outline>
    <contour>
      <point x="45.0" y="1001.0" type="line" smooth="yes"/>
      <point x="28.0" y="1050.0"/>
      <point x="72.0" y="1050.0" type="qcurve" smooth="yes"/>
      <point x="181.0" y="1050.0" type="line" smooth="yes"/>
      <point x="213.0" y="1050.0"/>
      <point x="226.0" y="1011.0" type="qcurve" smooth="yes"/>
      <point x="438.0" y="351.0" type="line" smooth="yes"/>
      <point x="459.0" y="286.0"/>
      <point x="483.0" y="209.0"/>
      <point x="491.0" y="164.0" type="qcurve"/>
      <point x="495.0" y="164.0" type="line"/>
      <point x="503.0" y="209.0"/>
      <point x="521.0" y="266.0"/>
      <point x="548.0" y="351.0" type="qcurve" smooth="yes"/>
      <point x="682.0" y="765.0" type="line" smooth="yes"/>
      <point x="735.0" y="929.0"/>
      <point x="860.0" y="1067.0"/>
      <point x="997.0" y="1067.0" type="qcurve" smooth="yes"/>
      <point x="1035.0" y="1067.0"/>
      <point x="1067.0" y="1055.0" type="qcurve" smooth="yes"/>
      <point x="1089.0" y="1047.0"/>
      <point x="1084.0" y="1025.0" type="qcurve" smooth="yes"/>
      <point x="1066.0" y="944.0" type="line" smooth="yes"/>
      <point x="1061.0" y="923.0"/>
      <point x="1040.0" y="930.0" type="qcurve" smooth="yes"/>
      <point x="1021.0" y="937.0"/>
      <point x="1000.0" y="937.0" type="qcurve" smooth="yes"/>
      <point x="922.0" y="937.0"/>
      <point x="846.0" y="734.0"/>
      <point x="828.0" y="682.0" type="qcurve" smooth="yes"/>
      <point x="613.0" y="61.0" type="line" smooth="yes"/>
      <point x="592.0" y="0.0"/>
      <point x="559.0" y="0.0" type="qcurve" smooth="yes"/>
      <point x="427.0" y="0.0" type="line" smooth="yes"/>
      <point x="394.0" y="0.0"/>
      <point x="373.0" y="61.0" type="qcurve" smooth="yes"/>
    </contour>
  </outline>
</glyph>
<glyph name="afii10050" format="2">
  <advance width="1084"/>
  <unicode hex="0490"/>
  <outline>
    <contour>
      <point x="220.0" y="0.0" type="line" smooth="yes"/>
      <point x="170.0" y="0.0"/>
      <point x="170.0" y="55.0" type="qcurve" smooth="yes"/>
      <point x="170.0" y="1379.0" type="line" smooth="yes"/>
      <point x="170.0" y="1434.0"/>
      <point x="220.0" y="1434.0" type="qcurve" smooth="yes"/>
      <point x="890.0" y="1434.0" type="line"/>
      <point x="890.0" y="1760.0" type="line" smooth="yes"/>
      <point x="890.0" y="1810.0"/>
      <point x="930.0" y="1810.0" type="qcurve" smooth="yes"/>
      <point x="1016.0" y="1810.0" type="line" smooth="yes"/>
      <point x="1056.0" y="1810.0"/>
      <point x="1056.0" y="1760.0" type="qcurve" smooth="yes"/>
      <point x="1056.0" y="1325.0" type="line" smooth="yes"/>
      <point x="1056.0" y="1270.0"/>
      <point x="1006.0" y="1270.0" type="qcurve" smooth="yes"/>
      <point x="362.0" y="1270.0" type="line"/>
      <point x="362.0" y="55.0" type="line" smooth="yes"/>
      <point x="362.0" y="0.0"/>
      <point x="312.0" y="0.0" type="qcurve" smooth="yes"/>
    </contour>
  </outline>
</glyph>
<glyph name="afii10098" format="2">
  <advance width="846"/>
  <unicode hex="0491"/>
  <outline>
    <contour>
      <point x="187.0" y="0.0" type="line" smooth="yes"/>
      <point x="142.0" y="0.0"/>
      <point x="142.0" y="45.0" type="qcurve" smooth="yes"/>
      <point x="142.0" y="1005.0" type="line" smooth="yes"/>
      <point x="142.0" y="1050.0"/>
      <point x="187.0" y="1050.0" type="qcurve" smooth="yes"/>
      <point x="668.0" y="1050.0" type="line"/>
      <point x="668.0" y="1321.0" type="line" smooth="yes"/>
      <point x="668.0" y="1366.0"/>
      <point x="708.0" y="1366.0" type="qcurve" smooth="yes"/>
      <point x="782.0" y="1366.0" type="line" smooth="yes"/>
      <point x="822.0" y="1366.0"/>
      <point x="822.0" y="1321.0" type="qcurve" smooth="yes"/>
      <point x="822.0" y="963.0" type="line" smooth="yes"/>
      <point x="822.0" y="918.0"/>
      <point x="777.0" y="918.0" type="qcurve" smooth="yes"/>
      <point x="318.0" y="918.0" type="line"/>
      <point x="318.0" y="45.0" type="line" smooth="yes"/>
      <point x="318.0" y="0.0"/>
      <point x="273.0" y="0.0" type="qcurve" smooth="yes"/>
    </contour>
  </outline>
</glyph>
<glyph name="uni0492" format="2">
  <advance width="1194"/>
  <unicode hex="0492"/>
  <outline>
    <contour>
      <point x="105.0" y="654.0" type="line" smooth="yes"/>
      <point x="50.0" y="654.0"/>
      <point x="50.0" y="699.0" type="qcurve" smooth="yes"/>
      <point x="50.0" y="773.0" type="line" smooth="yes"/>
      <point x="50.0" y="818.0"/>
      <point x="105.0" y="818.0" type="qcurve" smooth="yes"/>
      <point x="254.0" y="818.0" type="line"/>
      <point x="254.0" y="1379.0" type="line" smooth="yes"/>
      <point x="254.0" y="1434.0"/>
      <point x="304.0" y="1434.0" type="qcurve" smooth="yes"/>
      <point x="1099.0" y="1434.0" type="line" smooth="yes"/>
      <point x="1154.0" y="1434.0"/>
      <point x="1154.0" y="1389.0" type="qcurve" smooth="yes"/>
      <point x="1154.0" y="1315.0" type="line" smooth="yes"/>
      <point x="1154.0" y="1270.0"/>
      <point x="1099.0" y="1270.0" type="qcurve" smooth="yes"/>
      <point x="446.0" y="1270.0" type="line"/>
      <point x="446.0" y="818.0" type="line"/>
      <point x="892.0" y="818.0" type="line" smooth="yes"/>
      <point x="947.0" y="818.0"/>
      <point x="947.0" y="773.0" type="qcurve" smooth="yes"/>
      <point x="947.0" y="699.0" type="line" smooth="yes"/>
      <point x="947.0" y="654.0"/>
      <point x="892.0" y="654.0" type="qcurve" smooth="yes"/>
      <point x="446.0" y="654.0" type="line"/>
      <point x="446.0" y="55.0" type="line" smooth="yes"/>
      <point x="446.0" y="0.0"/>
      <point x="396.0" y="0.0" type="qcurve" smooth="yes"/>
      <point x="304.0" y="0.0" type="line" smooth="yes"/>
      <point x="254.0" y="0.0"/>
      <point x="254.0" y="55.0" type="qcurve" smooth="yes"/>
      <point x="254.0" y="654.0" type="line"/>
    </contour>
  </outline>
</glyph>
<glyph name="uni049B" format="2">
  <advance width="1074"/>
  <unicode hex="049B"/>
  <outline>
    <contour>
      <point x="187.0" y="0.0" type="line" smooth="yes"/>
      <point x="142.0" y="0.0"/>
      <point x="142.0" y="45.0" type="qcurve" smooth="yes"/>
      <point x="142.0" y="1005.0" type="line" smooth="yes"/>
      <point x="142.0" y="1050.0"/>
      <point x="187.0" y="1050.0" type="qcurve" smooth="yes"/>
      <point x="273.0" y="1050.0" type="line" smooth="yes"/>
      <point x="318.0" y="1050.0"/>
      <point x="318.0" y="1005.0" type="qcurve" smooth="yes"/>
      <point x="318.0" y="614.0" type="line"/>
      <point x="359.0" y="614.0" type="line" smooth="yes"/>
      <point x="429.0" y="614.0"/>
      <point x="537.0" y="721.0"/>
      <point x="562.0" y="760.0" type="qcurve" smooth="yes"/>
      <point x="731.0" y="1024.0" type="line" smooth="yes"/>
      <point x="748.0" y="1050.0"/>
      <point x="784.0" y="1050.0" type="qcurve" smooth="yes"/>
      <point x="875.0" y="1050.0" type="line" smooth="yes"/>
      <point x="942.0" y="1050.0"/>
      <point x="901.0" y="991.0" type="qcurve" smooth="yes"/>
      <point x="698.0" y="700.0" type="line" smooth="yes"/>
      <point x="677.0" y="670.0"/>
      <point x="577.0" y="565.0"/>
      <point x="533.0" y="554.0" type="qcurve"/>
      <point x="533.0" y="552.0" type="line"/>
      <point x="590.0" y="533.0"/>
      <point x="671.0" y="470.0"/>
      <point x="724.0" y="384.0" type="qcurve" smooth="yes"/>
      <point x="879.0" y="132.0" type="line"/>
      <point x="1000.0" y="132.0" type="line" smooth="yes"/>
      <point x="1045.0" y="132.0"/>
      <point x="1045.0" y="87.0" type="qcurve" smooth="yes"/>
      <point x="1045.0" y="-265.0" type="line" smooth="yes"/>
      <point x="1045.0" y="-310.0"/>
      <point x="1005.0" y="-310.0" type="qcurve" smooth="yes"/>
      <point x="931.0" y="-310.0" type="line" smooth="yes"/>
      <point x="891.0" y="-310.0"/>
      <point x="891.0" y="-265.0" type="qcurve" smooth="yes"/>
      <point x="891.0" y="0.0" type="line"/>
      <point x="800.0" y="0.0" type="line" smooth="yes"/>
      <point x="765.0" y="0.0"/>
      <point x="743.0" y="37.0" type="qcurve" smooth="yes"/>
      <point x="556.0" y="358.0" type="line" smooth="yes"/>
      <point x="523.0" y="415.0"/>
      <point x="415.0" y="482.0"/>
      <point x="360.0" y="482.0" type="qcurve" smooth="yes"/>
      <point x="318.0" y="482.0" type="line"/>
      <point x="318.0" y="45.0" type="line" smooth="yes"/>
      <point x="318.0" y="0.0"/>
      <point x="273.0" y="0.0" type="qcurve" smooth="yes"/>
    </contour>
  </outline>
</glyph>
